{"glyphs":{"0":{"ha":833,"x_min":43,"x_max":790,"o":"m 417 -17 q 135 115 226 -17 q 43 485 43 247 q 135 854 43 722 q 417 986 226 986 q 699 854 607 986 q 790 485 790 722 q 699 115 790 247 q 417 -17 607 -17 m 417 160 q 532 221 500 160 q 564 393 564 282 l 564 576 q 532 749 564 688 q 417 810 500 810 q 301 749 333 810 q 269 576 269 688 l 269 393 q 301 221 269 282 q 417 160 333 160 z "},"1":{"ha":833,"x_min":49,"x_max":806,"o":"m 131 0 l 131 168 l 392 168 l 392 818 l 379 818 l 182 560 l 49 664 l 281 969 l 600 969 l 600 168 l 806 168 l 806 0 l 131 0 z "},"2":{"ha":833,"x_min":58,"x_max":765,"o":"m 765 0 l 79 0 l 79 190 l 378 446 q 446 509 418 481 q 491 565 474 538 q 516 618 508 592 q 524 675 524 644 l 524 694 q 513 743 524 722 q 483 778 501 764 q 442 799 465 792 q 396 806 419 806 q 335 794 361 806 q 291 765 310 783 q 260 722 272 746 q 240 669 247 697 l 58 739 q 104 834 75 789 q 177 913 133 879 q 281 967 221 947 q 415 986 340 986 q 556 964 494 986 q 659 903 617 942 q 724 810 701 864 q 746 694 746 757 q 725 581 746 632 q 669 484 704 529 q 586 399 633 439 q 488 317 539 358 l 307 175 l 765 175 l 765 0 z "},"3":{"ha":833,"x_min":22,"x_max":749,"o":"m 364 586 q 477 616 442 586 q 513 690 513 646 l 513 700 q 478 785 513 753 q 382 817 444 817 q 272 787 324 817 q 185 701 221 757 l 54 824 q 114 890 82 860 q 186 941 146 919 q 276 974 226 963 q 389 986 326 986 q 530 968 467 986 q 638 916 593 950 q 708 835 683 882 q 732 729 732 788 q 717 646 732 683 q 677 581 703 608 q 618 535 651 553 q 547 511 585 518 l 547 503 q 627 476 590 494 q 691 428 664 457 q 733 359 718 399 q 749 269 749 319 q 722 151 749 204 q 647 61 696 99 q 531 3 599 24 q 381 -17 463 -17 q 250 -1 307 -17 q 151 40 193 14 q 77 99 108 65 q 22 169 46 132 l 176 289 q 255 191 208 229 q 381 153 301 153 q 491 188 451 153 q 531 285 531 224 l 531 293 q 485 383 531 353 q 361 413 440 413 l 274 413 l 274 586 l 364 586 z "},"4":{"ha":833,"x_min":42,"x_max":789,"o":"m 468 0 l 468 186 l 42 186 l 42 364 l 419 969 l 667 969 l 667 347 l 789 347 l 789 186 l 667 186 l 667 0 l 468 0 m 208 347 l 468 347 l 468 754 l 454 754 l 208 347 z "},"5":{"ha":833,"x_min":64,"x_max":782,"o":"m 725 788 l 285 788 l 264 481 l 275 481 q 306 544 289 515 q 347 592 324 572 q 404 624 371 613 q 483 635 438 635 q 600 614 546 635 q 694 553 654 593 q 758 456 735 514 q 782 326 782 399 q 758 190 782 253 q 685 81 733 126 q 568 9 638 35 q 410 -17 499 -17 q 285 -1 339 -17 q 189 40 231 14 q 117 99 147 65 q 64 169 86 132 l 215 289 q 292 192 247 232 q 411 153 336 153 q 524 196 486 153 q 563 310 563 239 l 563 321 q 524 426 563 388 q 417 465 485 465 q 323 442 360 465 q 267 397 286 419 l 96 421 l 132 969 l 725 969 l 725 788 z "},"6":{"ha":833,"x_min":58,"x_max":786,"o":"m 422 -17 q 268 10 336 -17 q 153 88 200 38 q 83 210 107 139 q 58 368 58 281 q 90 560 58 469 q 170 728 121 651 q 281 867 219 806 q 406 969 343 928 l 693 969 q 533 848 604 906 q 410 732 463 790 q 324 613 358 674 q 276 483 290 553 l 289 479 q 319 533 301 507 q 362 580 336 560 q 422 613 388 600 q 503 625 457 625 q 615 603 563 625 q 705 543 667 582 q 765 448 743 504 q 786 324 786 392 q 760 186 786 249 q 687 78 735 124 q 572 8 639 33 q 422 -17 506 -17 m 422 146 q 531 184 492 146 q 569 293 569 222 l 569 318 q 531 427 569 389 q 422 465 492 465 q 314 427 353 465 q 275 318 275 389 l 275 293 q 314 184 275 222 q 422 146 353 146 z "},"7":{"ha":833,"x_min":76,"x_max":763,"o":"m 231 0 l 556 800 l 253 800 l 253 624 l 76 624 l 76 969 l 763 969 l 763 789 l 450 0 l 231 0 z "},"8":{"ha":833,"x_min":56,"x_max":778,"o":"m 417 -17 q 263 5 331 -17 q 150 64 196 26 q 80 153 104 101 q 56 265 56 204 q 107 417 56 358 q 246 500 158 476 l 246 511 q 130 592 175 538 q 85 731 85 646 q 106 833 85 786 q 170 915 128 881 q 274 967 213 949 q 417 986 336 986 q 559 967 497 986 q 663 915 621 949 q 727 833 706 881 q 749 731 749 786 q 703 592 749 646 q 588 511 658 538 l 588 500 q 726 417 675 476 q 778 265 778 358 q 753 153 778 204 q 683 64 729 101 q 570 5 638 26 q 417 -17 503 -17 m 417 143 q 523 176 486 143 q 560 267 560 208 l 560 294 q 523 385 560 353 q 417 418 486 418 q 310 385 347 418 q 274 294 274 353 l 274 267 q 310 176 274 208 q 417 143 347 143 m 417 571 q 518 602 483 571 q 553 688 553 633 l 553 710 q 518 795 553 764 q 417 826 483 826 q 315 795 350 826 q 281 710 281 764 l 281 688 q 315 602 281 633 q 417 571 350 571 z "},"9":{"ha":833,"x_min":47,"x_max":775,"o":"m 775 601 q 744 408 775 499 q 663 241 713 318 q 552 103 614 164 q 428 0 490 42 l 140 0 q 300 122 229 64 q 423 238 371 179 q 508 356 475 296 q 557 486 542 417 l 544 490 q 515 436 532 463 q 472 390 497 410 q 411 357 446 369 q 331 344 376 344 q 219 366 271 344 q 128 426 167 388 q 69 521 90 465 q 47 646 47 576 q 73 783 47 721 q 147 891 99 846 q 261 961 194 936 q 411 986 328 986 q 565 959 497 986 q 680 881 633 932 q 751 760 726 831 q 775 601 775 689 m 411 504 q 519 542 481 504 q 558 651 558 581 l 558 676 q 519 785 558 747 q 411 824 481 824 q 303 785 342 824 q 264 676 264 747 l 264 651 q 303 542 264 581 q 411 504 342 504 z "},"\u0000":{"ha":0,"x_min":0,"x_max":0,"o":""},"\r":{"ha":328,"x_min":0,"x_max":0,"o":""}," ":{"ha":328,"x_min":0,"x_max":0,"o":""},"a":{"ha":790,"x_min":47,"x_max":749,"o":"m 635 0 q 542 35 579 0 q 496 128 506 69 l 488 128 q 414 20 471 57 q 274 -17 357 -17 q 106 42 164 -17 q 47 196 47 100 q 131 367 47 311 q 360 424 215 424 l 475 424 l 475 469 q 447 553 475 522 q 354 585 419 585 q 257 558 293 585 q 197 499 221 532 l 75 607 q 187 709 119 672 q 369 746 254 746 q 603 678 525 746 q 681 479 681 610 l 681 160 l 749 160 l 749 0 l 635 0 m 350 126 q 438 149 401 126 q 475 221 475 171 l 475 307 l 375 307 q 254 225 254 307 l 254 204 q 279 145 254 164 q 350 126 304 126 z "},"b":{"ha":844,"x_min":96,"x_max":785,"o":"m 96 1028 l 301 1028 l 301 607 l 308 607 q 378 707 324 668 q 504 746 433 746 q 714 649 643 746 q 785 365 785 551 q 714 81 785 179 q 504 -17 643 -17 q 436 -6 468 -17 q 378 23 404 4 q 335 67 353 42 q 308 122 317 93 l 301 122 l 301 0 l 96 0 l 96 1028 m 436 150 q 533 191 494 150 q 571 301 571 232 l 571 428 q 533 538 571 497 q 436 579 494 579 q 340 551 378 579 q 301 472 301 522 l 301 257 q 340 178 301 207 q 436 150 378 150 z "},"c":{"ha":718,"x_min":50,"x_max":686,"o":"m 390 -17 q 244 10 308 -17 q 138 87 181 38 q 72 207 94 136 q 50 365 50 278 q 72 523 50 453 q 138 643 94 593 q 244 719 181 693 q 390 746 308 746 q 576 696 501 746 q 682 556 650 646 l 515 483 q 475 554 506 525 q 390 583 444 583 q 296 542 328 583 q 264 432 264 501 l 264 296 q 296 186 264 226 q 390 146 328 146 q 478 176 446 146 q 526 254 511 206 l 686 185 q 574 32 650 81 q 390 -17 499 -17 z "},"d":{"ha":844,"x_min":60,"x_max":749,"o":"m 543 122 l 536 122 q 510 67 528 93 q 466 23 492 42 q 408 -6 440 4 q 340 -17 375 -17 q 131 81 201 -17 q 60 365 60 179 q 131 649 60 551 q 340 746 201 746 q 466 707 411 746 q 536 607 521 668 l 543 607 l 543 1028 l 749 1028 l 749 0 l 543 0 l 543 122 m 408 150 q 505 178 467 150 q 543 257 543 207 l 543 472 q 505 551 543 522 q 408 579 467 579 q 312 538 350 579 q 274 428 274 497 l 274 301 q 312 191 274 232 q 408 150 350 150 z "},"e":{"ha":781,"x_min":50,"x_max":731,"o":"m 400 -17 q 251 10 317 -17 q 141 87 186 38 q 73 207 96 136 q 50 365 50 278 q 72 522 50 451 q 138 642 94 592 q 246 719 182 692 q 392 746 310 746 q 547 715 482 746 q 652 633 611 685 q 712 515 693 582 q 731 374 731 447 l 731 313 l 263 313 l 263 301 q 301 187 263 229 q 424 144 340 144 q 528 170 488 144 q 603 232 568 196 l 706 104 q 578 15 657 47 q 400 -17 500 -17 m 396 594 q 298 553 333 594 q 263 444 263 513 l 263 433 l 518 433 l 518 446 q 488 553 518 513 q 396 594 458 594 z "},"f":{"ha":501,"x_min":29,"x_max":483,"o":"m 132 569 l 29 569 l 29 729 l 132 729 l 132 815 q 188 974 132 921 q 350 1028 243 1028 l 483 1028 l 483 868 l 338 868 l 338 729 l 483 729 l 483 569 l 338 569 l 338 0 l 132 0 l 132 569 z "},"g":{"ha":767,"x_min":31,"x_max":771,"o":"m 771 -53 q 751 -156 771 -111 q 685 -231 731 -200 q 563 -278 639 -262 q 376 -294 488 -294 q 216 -283 282 -294 q 109 -249 150 -271 q 49 -197 68 -228 q 31 -125 31 -165 q 67 -29 31 -64 q 167 14 103 6 l 167 29 q 88 74 114 39 q 61 157 61 110 q 73 208 61 186 q 103 245 85 229 q 147 271 122 261 q 197 286 172 281 l 197 292 q 99 376 131 322 q 67 500 67 429 q 144 678 67 611 q 379 746 221 746 q 503 732 451 746 l 503 760 q 531 844 503 818 q 613 869 560 869 l 728 869 l 728 717 l 567 717 l 567 708 q 661 624 631 678 q 692 500 692 571 q 615 324 692 390 q 379 258 538 258 q 250 274 308 258 q 218 215 218 253 q 238 174 218 189 q 306 160 258 160 l 517 160 q 710 104 650 160 q 771 -53 771 49 m 578 -81 q 553 -32 578 -49 q 465 -15 528 -15 l 215 -15 q 195 -47 201 -29 q 189 -81 189 -64 q 224 -140 189 -121 q 342 -158 258 -158 l 425 -158 q 543 -140 508 -158 q 578 -81 578 -121 m 379 393 q 470 419 440 393 q 500 493 500 444 l 500 510 q 470 584 500 558 q 379 610 440 610 q 288 584 318 610 q 258 510 258 558 l 258 493 q 288 419 258 444 q 379 393 318 393 z "},"h":{"ha":828,"x_min":96,"x_max":740,"o":"m 96 1028 l 301 1028 l 301 606 l 310 606 q 378 704 329 663 q 513 746 426 746 q 683 671 625 746 q 740 457 740 596 l 740 0 l 535 0 l 535 440 q 513 545 535 511 q 433 579 490 579 q 385 573 408 579 q 342 553 361 567 q 313 519 324 539 q 301 472 301 499 l 301 0 l 96 0 l 96 1028 z "},"i":{"ha":397,"x_min":79,"x_max":318,"o":"m 199 807 q 108 835 136 807 q 79 908 79 864 l 79 939 q 108 1012 79 983 q 199 1040 136 1040 q 290 1012 261 1040 q 318 939 318 983 l 318 908 q 290 835 318 864 q 199 807 261 807 m 96 729 l 301 729 l 301 0 l 96 0 l 96 729 z "},"j":{"ha":397,"x_min":-12,"x_max":318,"o":"m 96 729 l 301 729 l 301 -78 q 253 -226 301 -175 q 96 -278 204 -278 l -12 -278 l -12 -118 l 96 -118 l 96 729 m 199 807 q 108 835 136 807 q 79 908 79 864 l 79 939 q 108 1012 79 983 q 199 1040 136 1040 q 290 1012 261 1040 q 318 939 318 983 l 318 908 q 290 835 318 864 q 199 807 261 807 z "},"k":{"ha":801,"x_min":96,"x_max":801,"o":"m 96 1028 l 301 1028 l 301 421 l 310 421 l 400 556 l 546 729 l 774 729 l 531 450 l 801 0 l 557 0 l 393 308 l 301 206 l 301 0 l 96 0 l 96 1028 z "},"l":{"ha":421,"x_min":96,"x_max":393,"o":"m 300 0 q 145 51 194 0 q 96 200 96 103 l 96 1028 l 301 1028 l 301 160 l 393 160 l 393 0 l 300 0 z "},"m":{"ha":1242,"x_min":96,"x_max":1154,"o":"m 96 0 l 96 729 l 301 729 l 301 606 l 310 606 q 376 705 329 664 q 506 746 424 746 q 633 708 581 746 q 710 599 686 671 l 714 599 q 744 656 724 629 q 793 703 764 683 q 858 734 822 722 q 936 746 894 746 q 1098 671 1042 746 q 1154 457 1154 596 l 1154 0 l 949 0 l 949 440 q 849 579 949 579 q 765 553 803 579 q 728 472 728 526 l 728 0 l 522 0 l 522 440 q 422 579 522 579 q 378 573 400 579 q 340 553 357 567 q 312 519 322 539 q 301 472 301 499 l 301 0 l 96 0 z "},"n":{"ha":828,"x_min":96,"x_max":740,"o":"m 96 0 l 96 729 l 301 729 l 301 606 l 310 606 q 378 704 329 663 q 513 746 426 746 q 683 671 625 746 q 740 457 740 596 l 740 0 l 535 0 l 535 440 q 513 545 535 511 q 433 579 490 579 q 385 573 408 579 q 342 553 361 567 q 313 519 324 539 q 301 472 301 499 l 301 0 l 96 0 z "},"o":{"ha":783,"x_min":50,"x_max":733,"o":"m 392 -17 q 248 10 311 -17 q 141 86 185 36 q 74 207 97 136 q 50 365 50 278 q 74 524 50 453 q 141 644 97 594 q 248 719 185 693 q 392 746 311 746 q 535 719 472 746 q 642 644 599 693 q 710 524 686 594 q 733 365 733 453 q 710 207 733 278 q 642 86 686 136 q 535 10 599 36 q 392 -17 472 -17 m 392 146 q 486 183 453 146 q 519 290 519 221 l 519 439 q 486 546 519 508 q 392 583 453 583 q 297 546 331 583 q 264 439 264 508 l 264 290 q 297 183 264 221 q 392 146 331 146 z "},"p":{"ha":844,"x_min":96,"x_max":785,"o":"m 96 729 l 301 729 l 301 607 l 308 607 q 378 707 324 668 q 504 746 433 746 q 714 649 643 746 q 785 365 785 551 q 714 81 785 179 q 504 -17 643 -17 q 436 -6 468 -17 q 378 23 404 4 q 335 67 353 42 q 308 122 317 93 l 301 122 l 301 -278 l 96 -278 l 96 729 m 436 150 q 533 191 494 150 q 571 301 571 232 l 571 428 q 533 538 571 497 q 436 579 494 579 q 340 551 378 579 q 301 472 301 522 l 301 257 q 340 178 301 207 q 436 150 378 150 z "},"q":{"ha":844,"x_min":60,"x_max":749,"o":"m 543 122 l 536 122 q 510 67 528 93 q 466 23 492 42 q 408 -6 440 4 q 340 -17 375 -17 q 131 81 201 -17 q 60 365 60 179 q 131 649 60 551 q 340 746 201 746 q 466 707 411 746 q 536 607 521 668 l 543 607 l 543 729 l 749 729 l 749 -278 l 543 -278 l 543 122 m 408 150 q 505 178 467 150 q 543 257 543 207 l 543 472 q 505 551 543 522 q 408 579 467 579 q 312 538 350 579 q 274 428 274 497 l 274 301 q 312 191 274 232 q 408 150 350 150 z "},"r":{"ha":561,"x_min":96,"x_max":531,"o":"m 96 0 l 96 729 l 301 729 l 301 571 l 308 571 q 328 630 314 601 q 365 681 342 658 q 419 716 388 703 q 494 729 451 729 l 531 729 l 531 538 l 479 538 q 345 514 389 538 q 301 426 301 490 l 301 0 l 96 0 z "},"s":{"ha":700,"x_min":36,"x_max":656,"o":"m 343 -17 q 165 17 238 -17 q 36 114 93 51 l 157 236 q 243 168 196 193 q 350 143 290 143 q 435 162 411 143 q 458 213 458 181 q 385 274 458 264 l 306 283 q 60 508 60 314 q 80 605 60 561 q 137 680 100 649 q 226 728 174 711 q 343 746 278 746 q 444 738 400 746 q 522 716 488 731 q 584 680 556 701 q 640 632 613 658 l 522 511 q 444 566 488 546 q 354 586 400 586 q 279 569 301 586 q 257 525 257 553 q 273 480 257 496 q 333 457 289 464 l 415 446 q 656 226 656 414 q 633 129 656 174 q 570 52 611 85 q 472 1 529 19 q 343 -17 414 -17 z "},"t":{"ha":532,"x_min":32,"x_max":485,"o":"m 351 0 q 190 54 244 0 q 135 213 135 108 l 135 569 l 32 569 l 32 729 l 83 729 q 140 749 125 729 q 156 807 156 769 l 156 926 l 340 926 l 340 729 l 485 729 l 485 569 l 340 569 l 340 160 l 474 160 l 474 0 l 351 0 z "},"u":{"ha":828,"x_min":88,"x_max":732,"o":"m 526 122 l 519 122 q 494 69 510 94 q 453 25 478 44 q 394 -6 428 6 q 315 -17 360 -17 q 145 58 203 -17 q 88 271 88 132 l 88 729 l 293 729 l 293 289 q 317 186 293 222 q 397 150 340 150 q 444 157 421 150 q 486 177 468 164 q 515 210 504 190 q 526 256 526 229 l 526 729 l 732 729 l 732 0 l 526 0 l 526 122 z "},"v":{"ha":747,"x_min":13,"x_max":735,"o":"m 251 0 l 13 729 l 215 729 l 306 435 l 374 171 l 385 171 l 453 435 l 540 729 l 735 729 l 496 0 l 251 0 z "},"w":{"ha":1168,"x_min":26,"x_max":1142,"o":"m 26 729 l 225 729 l 296 435 l 346 213 l 351 213 l 410 435 l 493 729 l 681 729 l 765 435 l 825 213 l 831 213 l 881 435 l 951 729 l 1142 729 l 940 0 l 725 0 l 636 308 l 585 497 l 581 497 l 531 308 l 442 0 l 231 0 l 26 729 z "},"x":{"ha":778,"x_min":25,"x_max":753,"o":"m 25 0 l 265 371 l 28 729 l 261 729 l 397 500 l 403 500 l 535 729 l 751 729 l 510 364 l 753 0 l 519 0 l 379 238 l 374 238 l 239 0 l 25 0 z "},"y":{"ha":742,"x_min":8,"x_max":733,"o":"m 542 729 l 733 729 l 453 -112 q 374 -237 425 -197 q 229 -278 324 -278 l 101 -278 l 101 -118 l 239 -118 l 264 -37 l 8 729 l 213 729 l 319 389 l 372 178 l 381 178 l 435 389 l 542 729 z "},"z":{"ha":719,"x_min":54,"x_max":665,"o":"m 54 0 l 54 163 l 417 569 l 67 569 l 67 729 l 656 729 l 656 568 l 292 160 l 665 160 l 665 0 l 54 0 z "},"A":{"ha":951,"x_min":28,"x_max":924,"o":"m 704 0 l 635 231 l 311 231 l 242 0 l 28 0 l 347 969 l 608 969 l 924 0 l 704 0 m 475 778 l 468 778 l 361 410 l 583 410 l 475 778 z "},"B":{"ha":926,"x_min":107,"x_max":871,"o":"m 107 969 l 578 969 q 766 901 699 969 q 833 721 833 833 q 819 626 833 665 q 780 563 804 588 q 723 526 756 538 q 653 513 690 514 l 653 504 q 726 492 688 504 q 796 452 764 479 q 849 382 828 425 q 871 276 871 339 q 852 169 871 219 q 800 81 833 118 q 721 22 767 43 q 621 0 675 0 l 107 0 l 107 969 m 318 178 l 561 178 q 627 201 603 178 q 651 265 651 224 l 651 313 q 627 377 651 354 q 561 400 603 400 l 318 400 l 318 178 m 318 572 l 528 572 q 593 596 569 572 q 617 661 617 619 l 617 703 q 593 768 617 744 q 528 792 569 792 l 318 792 l 318 572 z "},"C":{"ha":904,"x_min":69,"x_max":864,"o":"m 499 -17 q 321 15 400 -17 q 186 108 242 46 q 100 262 131 169 q 69 478 69 354 q 100 695 69 600 q 186 855 131 790 q 321 953 242 919 q 499 986 400 986 q 721 931 633 986 q 861 758 808 876 l 679 664 q 619 762 660 725 q 499 799 578 799 q 349 738 406 799 q 293 563 293 678 l 293 407 q 349 231 293 292 q 499 171 406 171 q 623 213 576 171 q 692 315 669 256 l 864 215 q 722 44 810 104 q 499 -17 633 -17 z "},"D":{"ha":968,"x_min":107,"x_max":899,"o":"m 107 969 l 472 969 q 647 939 568 969 q 782 848 726 908 q 868 697 838 788 q 899 485 899 606 q 868 273 899 364 q 782 122 838 182 q 647 31 726 61 q 472 0 568 0 l 107 0 l 107 969 m 472 188 q 621 240 567 188 q 675 410 675 293 l 675 560 q 621 729 675 676 q 472 782 567 782 l 318 782 l 318 188 l 472 188 z "},"E":{"ha":843,"x_min":107,"x_max":767,"o":"m 107 0 l 107 969 l 767 969 l 767 782 l 318 782 l 318 583 l 703 583 l 703 397 l 318 397 l 318 188 l 767 188 l 767 0 l 107 0 z "},"F":{"ha":813,"x_min":107,"x_max":750,"o":"m 107 0 l 107 969 l 750 969 l 750 782 l 318 782 l 318 583 l 686 583 l 686 397 l 318 397 l 318 0 l 107 0 z "},"G":{"ha":999,"x_min":69,"x_max":900,"o":"m 722 154 l 715 154 q 640 32 704 81 q 467 -17 576 -17 q 311 15 383 -17 q 185 110 239 47 q 100 265 131 172 q 69 481 69 358 q 101 697 69 603 q 191 856 133 792 q 329 953 249 919 q 508 986 410 986 q 733 930 639 986 q 882 761 828 874 l 710 663 q 640 759 688 719 q 508 799 593 799 q 351 742 410 799 q 293 563 293 685 l 293 407 q 351 228 293 286 q 508 171 410 171 q 582 180 547 171 q 643 208 617 189 q 684 253 669 226 q 699 315 699 279 l 699 364 l 518 364 l 518 540 l 900 540 l 900 0 l 722 0 l 722 154 z "},"H":{"ha":1006,"x_min":107,"x_max":899,"o":"m 688 397 l 318 397 l 318 0 l 107 0 l 107 969 l 318 969 l 318 583 l 688 583 l 688 969 l 899 969 l 899 0 l 688 0 l 688 397 z "},"I":{"ha":600,"x_min":69,"x_max":531,"o":"m 69 0 l 69 168 l 194 168 l 194 801 l 69 801 l 69 969 l 531 969 l 531 801 l 406 801 l 406 168 l 531 168 l 531 0 l 69 0 z "},"J":{"ha":776,"x_min":35,"x_max":675,"o":"m 675 969 l 675 281 q 653 159 675 214 q 590 66 632 104 q 490 6 549 28 q 356 -15 431 -15 q 228 4 283 -15 q 134 60 174 24 q 69 146 94 96 q 35 257 44 196 l 232 296 q 353 169 256 169 q 431 199 399 169 q 464 290 464 228 l 464 800 l 169 800 l 169 969 l 675 969 z "},"K":{"ha":967,"x_min":107,"x_max":950,"o":"m 444 422 l 318 269 l 318 0 l 107 0 l 107 969 l 318 969 l 318 508 l 326 508 l 464 696 l 682 969 l 921 969 l 594 571 l 950 0 l 701 0 l 444 422 z "},"L":{"ha":736,"x_min":107,"x_max":688,"o":"m 107 0 l 107 969 l 318 969 l 318 188 l 688 188 l 688 0 l 107 0 z "},"M":{"ha":1138,"x_min":107,"x_max":1031,"o":"m 832 636 l 828 636 l 757 494 l 568 151 l 383 493 l 310 646 l 306 646 l 306 0 l 107 0 l 107 969 l 331 969 l 568 515 l 571 515 l 806 969 l 1031 969 l 1031 0 l 832 0 l 832 636 z "},"N":{"ha":1006,"x_min":107,"x_max":899,"o":"m 403 458 l 310 653 l 306 653 l 306 0 l 107 0 l 107 969 l 338 969 l 603 511 l 696 317 l 700 317 l 700 969 l 899 969 l 899 0 l 668 0 l 403 458 z "},"O":{"ha":992,"x_min":69,"x_max":922,"o":"m 496 -17 q 321 15 400 -17 q 186 110 242 47 q 100 267 131 174 q 69 485 69 361 q 100 702 69 608 q 186 859 131 796 q 321 954 242 922 q 496 986 400 986 q 671 954 592 986 q 806 859 750 922 q 892 702 861 796 q 922 485 922 608 q 892 267 922 361 q 806 110 861 174 q 671 15 750 47 q 496 -17 592 -17 m 496 171 q 645 233 592 171 q 699 413 699 296 l 699 557 q 645 736 699 674 q 496 799 592 799 q 347 736 400 799 q 293 557 293 674 l 293 413 q 347 233 293 296 q 496 171 400 171 z "},"P":{"ha":911,"x_min":107,"x_max":860,"o":"m 107 0 l 107 969 l 565 969 q 688 947 633 969 q 780 883 742 924 q 839 785 818 843 q 860 660 860 728 q 839 533 860 590 q 780 436 818 476 q 688 373 742 396 q 565 350 633 350 l 318 350 l 318 0 l 107 0 m 318 533 l 540 533 q 615 558 588 533 q 642 629 642 582 l 642 690 q 615 762 642 738 q 540 786 588 786 l 318 786 l 318 533 z "},"Q":{"ha":992,"x_min":69,"x_max":922,"o":"m 753 -256 l 622 -256 q 458 -203 510 -256 q 407 -50 407 -150 l 407 -10 q 160 142 251 18 q 69 485 69 267 q 100 702 69 608 q 186 859 131 796 q 321 954 242 922 q 496 986 400 986 q 671 954 592 986 q 806 859 750 922 q 892 702 861 796 q 922 485 922 608 q 837 150 922 274 q 604 -6 751 26 l 604 -83 l 753 -83 l 753 -256 m 496 171 q 645 233 592 171 q 699 413 699 296 l 699 557 q 645 736 699 674 q 496 799 592 799 q 347 736 400 799 q 293 557 293 674 l 293 413 q 347 233 293 296 q 496 171 400 171 z "},"R":{"ha":936,"x_min":107,"x_max":874,"o":"m 318 0 l 107 0 l 107 969 l 567 969 q 688 947 633 969 q 780 884 742 925 q 839 786 818 843 q 860 660 860 729 q 816 488 860 561 q 683 381 772 414 l 874 0 l 639 0 l 469 356 l 318 356 l 318 0 m 540 533 q 615 558 588 533 q 642 629 642 582 l 642 690 q 615 762 642 738 q 540 786 588 786 l 318 786 l 318 533 l 540 533 z "},"S":{"ha":867,"x_min":53,"x_max":799,"o":"m 421 -17 q 204 27 293 -17 q 53 140 115 71 l 192 281 q 435 169 290 169 q 550 201 513 169 q 588 286 588 233 q 565 353 588 326 q 475 390 543 381 l 379 403 q 153 496 225 422 q 82 692 82 569 q 107 811 82 757 q 178 904 132 865 q 292 965 225 943 q 446 986 360 986 q 639 951 556 986 q 782 850 722 917 l 642 708 q 558 774 607 749 q 433 800 508 800 q 328 775 363 800 q 293 706 293 750 q 320 633 293 656 q 408 601 347 611 l 504 586 q 726 494 654 563 q 799 299 799 425 q 774 171 799 229 q 701 71 749 113 q 582 6 653 29 q 421 -17 511 -17 z "},"T":{"ha":811,"x_min":38,"x_max":774,"o":"m 511 782 l 511 0 l 300 0 l 300 782 l 38 782 l 38 969 l 774 969 l 774 782 l 511 782 z "},"U":{"ha":964,"x_min":101,"x_max":863,"o":"m 307 969 l 307 375 q 347 222 307 272 q 482 171 388 171 q 617 222 576 171 q 657 375 657 272 l 657 969 l 863 969 l 863 397 q 842 212 863 290 q 776 83 822 133 q 658 8 731 32 q 482 -17 586 -17 q 306 8 378 -17 q 188 83 233 32 q 122 212 142 133 q 101 397 101 290 l 101 969 l 307 969 z "},"V":{"ha":903,"x_min":19,"x_max":883,"o":"m 332 0 l 19 969 l 233 969 l 378 504 l 454 200 l 458 200 l 532 504 l 676 969 l 883 969 l 568 0 l 332 0 z "},"W":{"ha":1351,"x_min":40,"x_max":1311,"o":"m 260 0 l 40 969 l 249 969 l 340 504 l 392 235 l 396 235 l 457 504 l 564 969 l 794 969 l 903 504 l 963 235 l 967 235 l 1018 504 l 1111 969 l 1311 969 l 1086 0 l 846 0 l 724 525 l 676 738 l 672 738 l 624 525 l 501 0 l 260 0 z "},"X":{"ha":935,"x_min":22,"x_max":913,"o":"m 913 0 l 668 0 l 458 357 l 454 357 l 250 0 l 22 0 l 333 501 l 38 969 l 283 969 l 472 642 l 476 642 l 668 969 l 896 969 l 597 497 l 913 0 z "},"Y":{"ha":901,"x_min":13,"x_max":889,"o":"m 344 0 l 344 379 l 13 969 l 249 969 l 457 583 l 460 583 l 660 969 l 889 969 l 557 381 l 557 0 l 344 0 z "},"Z":{"ha":843,"x_min":54,"x_max":789,"o":"m 789 0 l 54 0 l 54 188 l 532 782 l 78 782 l 78 969 l 778 969 l 778 782 l 299 188 l 789 188 l 789 0 z "},"&":{"ha":1001,"x_min":69,"x_max":997,"o":"m 676 79 q 565 13 631 42 q 399 -17 500 -17 q 257 3 318 -17 q 154 60 196 24 q 91 147 113 97 q 69 254 69 196 q 84 343 69 304 q 124 414 99 382 q 186 472 150 446 q 264 524 222 499 q 224 572 243 546 q 189 628 204 599 q 165 689 174 657 q 156 754 156 721 q 176 844 156 801 q 234 918 196 886 q 326 968 272 950 q 446 986 379 986 q 556 972 506 986 q 644 928 607 957 q 703 858 682 900 q 725 764 725 817 q 710 681 725 718 q 668 612 694 643 q 606 554 642 581 q 532 504 571 528 l 682 342 q 710 436 700 386 q 722 535 719 486 l 954 535 l 954 364 l 867 364 q 804 210 843 275 l 997 0 l 749 0 l 676 79 m 440 829 q 377 808 403 829 q 351 750 351 788 l 351 744 q 369 690 351 717 q 431 614 388 663 q 504 673 479 643 q 529 744 529 703 l 529 750 q 503 808 529 788 q 440 829 478 829 m 429 154 q 569 193 511 154 l 365 414 q 299 357 318 386 q 279 290 279 328 l 279 276 q 317 189 279 224 q 429 154 354 154 z "},"@":{"ha":1254,"x_min":85,"x_max":1175,"o":"m 933 -168 l 642 -168 q 406 -126 510 -168 q 231 -9 303 -85 q 122 172 160 67 q 85 404 85 276 q 124 638 85 531 q 235 822 163 744 q 410 942 307 899 q 642 985 513 985 q 860 948 761 985 q 1028 844 958 911 q 1137 680 1099 776 q 1175 465 1175 583 q 1105 206 1175 299 q 915 114 1035 114 q 793 150 840 114 q 742 244 746 186 l 735 244 q 683 151 721 186 q 575 117 644 117 q 422 190 483 117 q 361 404 361 263 q 422 619 361 546 q 575 692 483 692 q 669 660 633 692 q 718 583 706 629 l 725 583 l 725 679 l 879 679 l 879 306 q 940 236 879 236 q 1017 287 988 236 q 1046 444 1046 338 l 1046 483 q 1016 643 1046 572 q 933 763 986 714 q 805 838 879 811 q 642 864 731 864 q 465 832 543 864 q 330 742 386 800 q 244 605 274 685 q 214 431 214 525 l 214 378 q 244 205 214 283 q 330 71 274 126 q 465 -15 386 15 q 642 -46 543 -46 l 933 -46 l 933 -168 m 632 243 q 697 270 668 243 q 725 329 725 297 l 725 490 q 697 544 725 522 q 632 565 668 565 q 552 533 582 565 q 522 451 522 501 l 522 357 q 552 275 522 307 q 632 243 582 243 z "},"-":{"ha":560,"x_min":74,"x_max":486,"o":"m 74 324 l 74 524 l 486 524 l 486 324 l 74 324 z "},"­":{"ha":560,"x_min":74,"x_max":486,"o":"m 74 324 l 74 524 l 486 524 l 486 324 l 74 324 z "},"–":{"ha":817,"x_min":50,"x_max":767,"o":"m 50 339 l 50 506 l 767 506 l 767 339 l 50 339 z "},"—":{"ha":1083,"x_min":50,"x_max":1033,"o":"m 50 339 l 50 506 l 1033 506 l 1033 339 l 50 339 z "},"_":{"ha":772,"x_min":42,"x_max":731,"o":"m 42 -264 l 42 -93 l 731 -93 l 731 -264 l 42 -264 z "},".":{"ha":431,"x_min":93,"x_max":338,"o":"m 215 -15 q 123 16 153 -15 q 93 96 93 47 l 93 124 q 123 203 93 172 q 215 235 153 235 q 308 203 278 235 q 338 124 338 172 l 338 96 q 308 16 338 47 q 215 -15 278 -15 z "},"…":{"ha":1246,"x_min":93,"x_max":1153,"o":"m 215 -15 q 123 16 153 -15 q 93 96 93 47 l 93 124 q 123 203 93 172 q 215 235 153 235 q 308 203 278 235 q 338 124 338 172 l 338 96 q 308 16 338 47 q 215 -15 278 -15 m 622 -15 q 530 16 560 -15 q 500 96 500 47 l 500 124 q 530 203 500 172 q 622 235 560 235 q 715 203 685 235 q 744 124 744 172 l 744 96 q 715 16 744 47 q 622 -15 685 -15 m 1031 -15 q 938 16 968 -15 q 908 96 908 47 l 908 124 q 938 203 908 172 q 1031 235 968 235 q 1123 203 1093 235 q 1153 124 1153 172 l 1153 96 q 1123 16 1153 47 q 1031 -15 1093 -15 z "},":":{"ha":458,"x_min":107,"x_max":351,"o":"m 229 -15 q 137 16 167 -15 q 107 96 107 47 l 107 124 q 137 203 107 172 q 229 235 167 235 q 322 203 292 235 q 351 124 351 172 l 351 96 q 322 16 351 47 q 229 -15 292 -15 m 229 494 q 137 526 167 494 q 107 606 107 557 l 107 633 q 137 713 107 682 q 229 744 167 744 q 322 713 292 744 q 351 633 351 682 l 351 606 q 322 526 351 557 q 229 494 292 494 z "},",":{"ha":431,"x_min":53,"x_max":340,"o":"m 218 235 q 310 203 281 235 q 340 124 340 172 l 340 96 q 299 -71 340 11 q 192 -204 258 -153 l 53 -204 q 136 -113 101 -158 q 189 -12 171 -68 q 118 26 140 -4 q 96 96 96 56 l 96 124 q 126 203 96 172 q 218 235 156 235 z "},";":{"ha":458,"x_min":67,"x_max":354,"o":"m 232 235 q 324 203 294 235 q 354 124 354 172 l 354 96 q 313 -71 354 11 q 206 -204 272 -153 l 67 -204 q 150 -113 115 -158 q 203 -12 185 -68 q 132 26 154 -4 q 110 96 110 56 l 110 124 q 140 203 110 172 q 232 235 169 235 m 229 494 q 137 526 167 494 q 107 606 107 557 l 107 633 q 137 713 107 682 q 229 744 167 744 q 322 713 292 744 q 351 633 351 682 l 351 606 q 322 526 351 557 q 229 494 292 494 z "},"'":{"ha":372,"x_min":94,"x_max":278,"o":"m 94 575 l 94 1028 l 278 1028 l 278 575 l 94 575 z "},"\"":{"ha":685,"x_min":94,"x_max":590,"o":"m 94 575 l 94 1028 l 278 1028 l 278 575 l 94 575 m 407 575 l 407 1028 l 590 1028 l 590 575 l 407 575 z "},"‘":{"ha":417,"x_min":86,"x_max":367,"o":"m 206 611 q 115 640 143 611 q 86 711 86 668 l 86 740 q 98 822 86 781 q 130 900 110 863 q 178 970 150 938 q 238 1028 206 1003 l 367 1028 q 288 943 321 986 q 239 847 256 900 q 304 810 283 839 q 325 746 325 782 l 325 711 q 297 640 325 668 q 206 611 268 611 z "},"’":{"ha":417,"x_min":50,"x_max":331,"o":"m 211 1042 q 302 1013 274 1042 q 331 942 331 985 l 331 913 q 319 831 331 872 q 287 753 307 790 q 239 683 267 715 q 179 625 211 650 l 50 625 q 128 710 96 667 q 178 806 161 753 q 113 842 133 814 q 92 907 92 871 l 92 942 q 120 1013 92 985 q 211 1042 149 1042 z "},"“":{"ha":743,"x_min":86,"x_max":693,"o":"m 206 611 q 115 640 143 611 q 86 711 86 668 l 86 740 q 98 822 86 781 q 130 900 110 863 q 178 970 150 938 q 238 1028 206 1003 l 367 1028 q 288 943 321 986 q 239 847 256 900 q 304 810 283 839 q 325 746 325 782 l 325 711 q 297 640 325 668 q 206 611 268 611 m 532 611 q 441 640 469 611 q 413 711 413 668 l 413 740 q 424 822 413 781 q 456 900 436 863 q 504 970 476 938 q 564 1028 532 1003 l 693 1028 q 615 943 647 986 q 565 847 582 900 q 631 810 610 839 q 651 746 651 782 l 651 711 q 623 640 651 668 q 532 611 594 611 z "},"”":{"ha":743,"x_min":50,"x_max":657,"o":"m 211 1042 q 302 1013 274 1042 q 331 942 331 985 l 331 913 q 319 831 331 872 q 287 753 307 790 q 239 683 267 715 q 179 625 211 650 l 50 625 q 128 710 96 667 q 178 806 161 753 q 113 842 133 814 q 92 907 92 871 l 92 942 q 120 1013 92 985 q 211 1042 149 1042 m 538 1042 q 628 1013 600 1042 q 657 942 657 985 l 657 913 q 645 831 657 872 q 613 753 633 790 q 565 683 593 715 q 506 625 538 650 l 376 625 q 455 710 422 667 q 504 806 488 753 q 439 842 460 814 q 418 907 418 871 l 418 942 q 447 1013 418 985 q 538 1042 475 1042 z "},"‚":{"ha":422,"x_min":53,"x_max":333,"o":"m 215 254 q 306 225 279 254 q 333 151 333 196 l 333 121 q 322 40 333 81 q 291 -37 311 0 q 244 -106 271 -74 q 186 -162 217 -137 l 53 -162 q 133 -78 100 -121 q 183 18 167 -35 q 117 56 138 26 q 97 121 97 85 l 97 151 q 124 225 97 196 q 215 254 151 254 z "},"„":{"ha":749,"x_min":53,"x_max":660,"o":"m 215 254 q 306 225 279 254 q 333 151 333 196 l 333 121 q 322 40 333 81 q 291 -37 311 0 q 244 -106 271 -74 q 186 -162 217 -137 l 53 -162 q 133 -78 100 -121 q 183 18 167 -35 q 117 56 138 26 q 97 121 97 85 l 97 151 q 124 225 97 196 q 215 254 151 254 m 542 254 q 633 225 606 254 q 660 151 660 196 l 660 121 q 649 40 660 81 q 617 -37 638 0 q 570 -106 597 -74 q 513 -162 543 -137 l 379 -162 q 460 -78 426 -121 q 510 18 493 -35 q 444 56 464 26 q 424 121 424 85 l 424 151 q 451 225 424 196 q 542 254 478 254 z "},"‹":{"ha":440,"x_min":53,"x_max":371,"o":"m 311 68 l 53 290 l 53 465 l 311 688 l 371 560 l 204 378 l 371 196 l 311 68 z "},"›":{"ha":440,"x_min":69,"x_max":388,"o":"m 69 196 l 236 378 l 69 560 l 129 688 l 388 465 l 388 290 l 129 68 l 69 196 z "},"«":{"ha":775,"x_min":53,"x_max":706,"o":"m 311 68 l 53 290 l 53 465 l 311 688 l 371 560 l 204 378 l 371 196 l 311 68 m 646 68 l 388 290 l 388 465 l 646 688 l 706 560 l 539 378 l 706 196 l 646 68 z "},"»":{"ha":775,"x_min":69,"x_max":722,"o":"m 69 196 l 236 378 l 69 560 l 129 688 l 388 465 l 388 290 l 129 68 l 69 196 m 404 196 l 571 378 l 404 560 l 464 688 l 722 465 l 722 290 l 464 68 l 404 196 z "},"¡":{"ha":444,"x_min":99,"x_max":346,"o":"m 114 -240 l 114 29 l 178 424 l 265 424 l 331 29 l 331 -240 l 114 -240 m 222 501 q 127 532 156 501 q 99 607 99 563 l 99 640 q 127 715 99 685 q 222 746 156 746 q 317 715 289 746 q 346 640 346 685 l 346 607 q 317 532 346 563 q 222 501 289 501 z "},"!":{"ha":444,"x_min":99,"x_max":346,"o":"m 181 306 l 115 700 l 115 969 l 332 969 l 332 700 l 268 306 l 181 306 m 222 -17 q 127 14 156 -17 q 99 89 99 44 l 99 122 q 127 197 99 167 q 222 228 156 228 q 317 197 289 228 q 346 122 346 167 l 346 89 q 317 14 346 44 q 222 -17 289 -17 z "},"¿":{"ha":686,"x_min":38,"x_max":675,"o":"m 361 -257 q 228 -236 288 -257 q 126 -178 169 -215 q 60 -87 83 -140 q 38 29 38 -35 q 57 135 38 88 q 110 217 76 182 q 188 275 143 253 q 281 306 232 297 l 281 406 l 475 406 l 475 193 q 310 156 365 189 q 256 46 256 124 l 256 26 q 287 -54 256 -26 q 368 -82 318 -82 q 458 -49 422 -82 q 506 36 493 -15 l 675 -35 q 639 -117 663 -76 q 577 -188 615 -157 q 485 -238 539 -219 q 361 -257 432 -257 m 375 501 q 280 532 308 501 q 251 607 251 563 l 251 640 q 280 715 251 685 q 375 746 308 746 q 470 715 442 746 q 499 640 499 685 l 499 607 q 470 532 499 563 q 375 501 442 501 z "},"?":{"ha":694,"x_min":19,"x_max":657,"o":"m 219 324 l 219 536 q 384 573 329 540 q 439 683 439 606 l 439 703 q 408 783 439 756 q 326 811 376 811 q 237 778 272 811 q 189 693 201 744 l 19 764 q 56 845 32 806 q 117 916 79 885 q 209 967 156 947 q 333 986 263 986 q 465 965 406 986 q 568 907 525 944 q 634 817 611 869 q 657 700 657 764 q 638 594 657 642 q 585 512 618 547 q 507 454 551 476 q 414 424 463 432 l 414 324 l 219 324 m 319 -17 q 224 14 253 -17 q 196 89 196 44 l 196 122 q 224 197 196 167 q 319 228 253 228 q 415 197 386 228 q 443 122 443 167 l 443 89 q 415 14 443 44 q 319 -17 386 -17 z "},"(":{"ha":469,"x_min":51,"x_max":488,"o":"m 51 433 q 70 626 51 533 q 121 799 89 719 q 197 944 153 879 q 294 1056 242 1010 l 488 1056 q 310 805 375 951 q 246 481 246 658 l 246 383 q 311 54 246 199 q 488 -192 376 -90 l 293 -192 q 199 -83 243 -149 q 122 63 154 -18 q 70 238 89 144 q 51 433 51 332 z "},")":{"ha":469,"x_min":-18,"x_max":418,"o":"m 418 433 q 399 238 418 332 q 348 63 381 144 q 271 -83 315 -18 q 176 -192 226 -149 l -18 -192 q 158 54 93 -90 q 224 383 224 199 l 224 481 q 159 805 224 658 q -18 1056 94 951 l 175 1056 q 272 944 228 1010 q 349 799 317 879 q 399 626 381 719 q 418 433 418 533 z "},"[":{"ha":464,"x_min":107,"x_max":394,"o":"m 107 -192 l 107 1056 l 394 1056 l 394 911 l 297 911 l 297 -47 l 394 -47 l 394 -192 l 107 -192 z "},"]":{"ha":464,"x_min":69,"x_max":357,"o":"m 357 1056 l 357 -192 l 69 -192 l 69 -47 l 167 -47 l 167 911 l 69 911 l 69 1056 l 357 1056 z "},"{":{"ha":517,"x_min":26,"x_max":447,"o":"m 296 -192 q 200 -156 239 -192 q 161 -51 161 -119 l 161 231 q 123 323 161 292 q 26 354 85 354 l 26 511 q 123 542 85 511 q 161 635 161 574 l 161 915 q 200 1019 161 983 q 296 1056 239 1056 l 447 1056 l 447 911 l 351 911 l 351 613 q 340 549 351 579 q 308 496 328 519 q 263 456 289 472 q 207 435 236 440 l 207 429 q 263 408 236 424 q 308 368 289 392 q 340 315 328 344 q 351 251 351 285 l 351 -47 l 447 -47 l 447 -192 l 296 -192 z "},"}":{"ha":517,"x_min":69,"x_max":490,"o":"m 221 1056 q 317 1019 278 1056 q 356 915 356 983 l 356 635 q 394 542 356 574 q 490 511 432 511 l 490 354 q 394 323 432 354 q 356 231 356 292 l 356 -51 q 317 -156 356 -119 q 221 -192 278 -192 l 69 -192 l 69 -47 l 165 -47 l 165 253 q 177 316 165 286 q 208 369 189 346 q 254 409 228 393 q 310 431 281 425 l 310 436 q 254 458 281 442 q 208 497 228 474 q 177 551 189 521 q 165 614 165 581 l 165 911 l 69 911 l 69 1056 l 221 1056 z "},"/":{"ha":639,"x_min":4,"x_max":588,"o":"m 4 -210 l 418 1028 l 588 1028 l 174 -210 l 4 -210 z "},"\\":{"ha":639,"x_min":50,"x_max":633,"o":"m 464 -210 l 50 1028 l 219 1028 l 633 -210 l 464 -210 z "},"⁄":{"ha":204,"x_min":-340,"x_max":544,"o":"m -340 0 l 394 969 l 544 969 l -190 0 l -340 0 z "},"∕":{"ha":204,"x_min":-340,"x_max":544,"o":"m -340 0 l 394 969 l 544 969 l -190 0 l -340 0 z "},"%":{"ha":1353,"x_min":69,"x_max":1283,"o":"m 249 0 l 921 969 l 1104 969 l 432 0 l 249 0 m 319 436 q 133 506 197 436 q 69 711 69 575 q 133 917 69 847 q 319 986 197 986 q 506 917 442 986 q 569 711 569 847 q 506 506 569 575 q 319 436 442 436 m 319 556 q 374 584 356 556 q 392 675 392 613 l 392 747 q 374 838 392 810 q 319 867 356 867 q 265 838 283 867 q 247 747 247 810 l 247 675 q 265 584 247 613 q 319 556 283 556 m 1033 -17 q 847 53 911 -17 q 783 258 783 122 q 847 464 783 394 q 1033 533 911 533 q 1219 464 1156 533 q 1283 258 1283 394 q 1219 53 1283 122 q 1033 -17 1156 -17 m 1033 103 q 1088 131 1069 103 q 1106 222 1106 160 l 1106 294 q 1088 385 1106 357 q 1033 414 1069 414 q 979 385 997 414 q 961 294 961 357 l 961 222 q 979 131 961 160 q 1033 103 997 103 z "},"‰":{"ha":1919,"x_min":69,"x_max":1850,"o":"m 249 0 l 921 969 l 1104 969 l 432 0 l 249 0 m 319 436 q 133 506 197 436 q 69 711 69 575 q 133 917 69 847 q 319 986 197 986 q 506 917 442 986 q 569 711 569 847 q 506 506 569 575 q 319 436 442 436 m 319 556 q 374 584 356 556 q 392 675 392 613 l 392 747 q 374 838 392 810 q 319 867 356 867 q 265 838 283 867 q 247 747 247 810 l 247 675 q 265 584 247 613 q 319 556 283 556 m 1033 -17 q 847 53 911 -17 q 783 258 783 122 q 847 464 783 394 q 1033 533 911 533 q 1219 464 1156 533 q 1283 258 1283 394 q 1219 53 1283 122 q 1033 -17 1156 -17 m 1033 103 q 1088 131 1069 103 q 1106 222 1106 160 l 1106 294 q 1088 385 1106 357 q 1033 414 1069 414 q 979 385 997 414 q 961 294 961 357 l 961 222 q 979 131 961 160 q 1033 103 997 103 m 1600 -17 q 1414 53 1478 -17 q 1350 258 1350 122 q 1414 464 1350 394 q 1600 533 1478 533 q 1786 464 1722 533 q 1850 258 1850 394 q 1786 53 1850 122 q 1600 -17 1722 -17 m 1600 103 q 1654 131 1636 103 q 1672 222 1672 160 l 1672 294 q 1654 385 1672 357 q 1600 414 1636 414 q 1546 385 1564 414 q 1528 294 1528 357 l 1528 222 q 1546 131 1528 160 q 1600 103 1564 103 z "},"|":{"ha":558,"x_min":192,"x_max":367,"o":"m 192 -192 l 192 1056 l 367 1056 l 367 -192 l 192 -192 z "},"¦":{"ha":558,"x_min":192,"x_max":367,"o":"m 192 557 l 192 1056 l 367 1056 l 367 557 l 192 557 m 192 -192 l 192 307 l 367 307 l 367 -192 l 192 -192 z "},"§":{"ha":790,"x_min":69,"x_max":721,"o":"m 678 18 q 656 -83 678 -39 q 594 -159 633 -128 q 499 -207 554 -190 q 376 -224 443 -224 q 232 -201 304 -224 q 100 -124 160 -179 l 200 -1 q 281 -58 236 -37 q 379 -78 325 -78 q 471 -56 436 -78 q 506 10 506 -33 q 476 70 506 49 q 385 108 447 92 l 278 138 q 179 176 219 154 q 115 226 139 199 q 80 283 90 253 q 69 343 69 313 q 106 453 69 403 q 218 535 142 503 l 218 558 q 140 638 169 590 q 111 751 111 686 q 133 852 111 808 q 195 926 156 896 q 290 971 235 956 q 411 986 346 986 q 558 965 486 986 q 690 886 629 943 l 589 764 q 510 820 553 800 q 407 840 468 840 q 319 822 354 840 q 283 758 283 803 q 313 701 283 722 q 404 664 342 681 l 511 635 q 610 595 569 618 q 675 545 650 572 q 710 488 700 518 q 721 426 721 457 q 685 317 721 367 q 571 235 649 267 l 571 213 q 649 133 619 181 q 678 18 678 85 m 550 364 q 528 430 550 400 q 439 479 506 460 l 333 508 q 289 522 308 515 q 252 466 265 494 q 239 406 239 438 q 261 342 239 371 q 350 293 283 313 l 456 264 q 478 257 467 261 q 501 249 490 253 q 538 304 525 276 q 550 364 550 332 z "},"¶":{"ha":940,"x_min":43,"x_max":867,"o":"m 336 361 q 222 385 275 361 q 128 451 168 410 q 66 547 89 492 q 43 665 43 603 q 66 783 43 728 q 128 880 89 839 q 222 945 168 921 q 336 969 275 969 l 867 969 l 867 822 l 775 822 l 775 -207 l 624 -207 l 624 822 l 488 822 l 488 -207 l 336 -207 l 336 361 z "},"©":{"ha":1100,"x_min":67,"x_max":1033,"o":"m 550 -17 q 356 18 444 -17 q 203 118 267 53 q 103 276 139 183 q 67 485 67 368 q 103 694 67 601 q 203 851 139 786 q 356 951 267 917 q 550 986 444 986 q 744 951 656 986 q 897 851 833 917 q 997 694 961 786 q 1033 485 1033 601 q 997 276 1033 368 q 897 118 961 183 q 744 18 833 53 q 550 -17 656 -17 m 550 72 q 703 101 633 72 q 823 178 772 129 q 902 293 874 226 q 931 438 931 360 l 931 532 q 902 676 931 608 q 823 792 874 743 q 703 869 772 840 q 550 897 633 897 q 397 869 467 897 q 277 792 328 840 q 198 676 226 743 q 169 532 169 608 l 169 438 q 198 293 169 360 q 277 178 226 226 q 397 101 328 129 q 550 72 467 72 m 560 186 q 438 208 492 186 q 347 268 385 229 q 290 362 310 307 q 271 485 271 417 q 290 608 271 553 q 347 701 310 663 q 438 762 385 740 q 560 783 492 783 q 722 740 661 783 q 811 626 783 697 l 672 560 q 631 618 656 596 q 560 640 606 640 q 488 613 514 640 q 461 540 461 586 l 461 429 q 488 356 461 383 q 560 329 514 329 q 635 352 606 329 q 682 410 664 375 l 822 344 q 785 284 807 313 q 732 233 764 256 q 658 199 700 211 q 560 186 615 186 z "},"®":{"ha":644,"x_min":42,"x_max":603,"o":"m 322 414 q 213 435 264 414 q 123 495 161 457 q 63 586 85 533 q 42 700 42 639 q 63 814 42 761 q 123 905 85 867 q 213 965 161 943 q 322 986 264 986 q 432 965 381 986 q 522 905 483 943 q 581 814 560 867 q 603 700 603 761 q 581 586 603 639 q 522 495 560 533 q 432 435 483 457 q 322 414 381 414 m 322 479 q 401 492 364 479 q 467 531 439 506 q 511 594 494 557 q 528 678 528 631 l 528 722 q 511 806 528 769 q 467 869 494 843 q 401 908 439 894 q 322 921 364 921 q 243 908 281 921 q 178 869 206 894 q 133 806 150 843 q 117 722 117 769 l 117 678 q 133 594 117 631 q 178 531 150 557 q 243 492 206 506 q 322 479 281 479 m 290 556 l 201 556 l 201 846 l 343 846 q 428 818 401 846 q 454 749 454 790 q 440 691 454 714 q 403 657 426 668 l 463 556 l 367 556 l 322 640 l 290 640 l 290 556 m 325 706 q 364 738 364 706 l 364 747 q 325 779 364 779 l 290 779 l 290 706 l 325 706 z "},"™":{"ha":853,"x_min":33,"x_max":781,"o":"m 126 568 l 126 885 l 33 885 l 33 969 l 338 969 l 338 885 l 246 885 l 246 568 l 126 568 m 379 568 l 379 969 l 504 969 l 581 821 l 589 821 l 664 969 l 781 969 l 781 568 l 682 568 l 682 700 l 693 831 l 688 831 l 581 629 l 472 831 l 467 831 l 479 700 l 479 568 l 379 568 z "},"ª":{"ha":624,"x_min":64,"x_max":563,"o":"m 563 458 l 479 458 q 415 477 444 458 q 378 547 385 496 l 372 547 q 319 474 358 499 q 222 450 279 450 q 108 490 151 450 q 64 601 64 529 q 121 718 64 681 q 286 756 178 756 l 364 756 l 364 782 q 344 850 364 828 q 276 872 325 872 q 203 855 232 872 q 156 810 175 838 l 78 879 q 156 951 103 924 q 293 978 210 978 q 451 931 393 978 q 508 788 508 883 l 508 563 l 563 563 l 563 458 m 290 678 q 204 618 204 678 l 204 599 q 224 558 204 571 q 278 544 244 544 q 339 563 314 544 q 364 617 364 581 l 364 678 l 290 678 z "},"º":{"ha":601,"x_min":53,"x_max":550,"o":"m 301 450 q 118 521 183 450 q 53 714 53 592 q 118 907 53 836 q 301 978 183 978 q 485 907 419 978 q 550 714 550 836 q 485 521 550 592 q 301 450 419 450 m 301 558 q 375 587 349 558 q 401 674 401 615 l 401 754 q 375 841 401 813 q 301 869 349 869 q 228 841 254 869 q 201 754 201 813 l 201 674 q 228 587 201 615 q 301 558 254 558 z "},"°":{"ha":653,"x_min":69,"x_max":583,"o":"m 326 464 q 225 483 272 464 q 143 538 178 503 q 89 621 108 574 q 69 725 69 668 q 89 828 69 781 q 143 912 108 876 q 225 967 178 947 q 326 986 272 986 q 428 967 381 986 q 510 912 475 947 q 564 828 544 876 q 583 725 583 781 q 564 621 583 668 q 510 538 544 574 q 428 483 475 503 q 326 464 381 464 m 326 596 q 411 633 379 596 q 443 725 443 669 q 411 817 443 781 q 326 854 379 854 q 242 817 274 854 q 210 725 210 781 q 242 633 210 669 q 326 596 274 596 z "},"*":{"ha":835,"x_min":44,"x_max":790,"o":"m 267 331 l 122 428 l 299 640 l 44 717 l 99 875 l 340 774 l 328 1038 l 507 1038 l 494 774 l 736 875 l 790 717 l 536 640 l 711 428 l 567 332 l 417 557 l 267 331 z "},"†":{"ha":725,"x_min":36,"x_max":689,"o":"m 275 -278 l 275 567 l 36 567 l 36 717 l 275 717 l 275 1028 l 450 1028 l 450 717 l 689 717 l 689 567 l 450 567 l 450 -278 l 275 -278 z "},"‡":{"ha":753,"x_min":50,"x_max":703,"o":"m 289 -278 l 289 33 l 50 33 l 50 183 l 289 183 l 289 567 l 50 567 l 50 717 l 289 717 l 289 1028 l 464 1028 l 464 717 l 703 717 l 703 567 l 464 567 l 464 183 l 703 183 l 703 33 l 464 33 l 464 -278 l 289 -278 z "},"#":{"ha":878,"x_min":15,"x_max":863,"o":"m 508 240 l 286 240 l 244 0 l 114 0 l 156 240 l 15 240 l 15 365 l 178 365 l 218 604 l 78 604 l 78 729 l 240 729 l 282 969 l 411 969 l 369 729 l 592 729 l 633 969 l 764 969 l 722 729 l 863 729 l 863 604 l 700 604 l 660 365 l 800 365 l 800 240 l 638 240 l 596 0 l 467 0 l 508 240 m 529 365 l 571 604 l 349 604 l 307 365 l 529 365 z "},"^":{"ha":833,"x_min":58,"x_max":776,"o":"m 611 385 l 417 746 l 408 746 l 214 385 l 58 464 l 336 969 l 503 969 l 776 464 l 611 385 z "},"~":{"ha":833,"x_min":74,"x_max":760,"o":"m 578 294 q 488 308 526 294 q 403 344 449 321 q 329 377 365 364 q 250 390 293 390 q 195 381 218 390 q 142 353 172 372 l 74 469 q 143 531 99 506 q 256 556 188 556 q 346 542 307 556 q 431 506 385 529 q 504 473 468 486 q 583 460 540 460 q 638 469 615 460 q 692 497 661 478 l 760 381 q 690 319 735 344 q 578 294 646 294 z "},"+":{"ha":833,"x_min":93,"x_max":740,"o":"m 328 88 l 328 343 l 93 343 l 93 507 l 328 507 l 328 763 l 506 763 l 506 507 l 740 507 l 740 343 l 506 343 l 506 88 l 328 88 z "},"−":{"ha":833,"x_min":93,"x_max":740,"o":"m 93 343 l 93 507 l 740 507 l 740 343 l 93 343 z "},"±":{"ha":833,"x_min":93,"x_max":740,"o":"m 328 256 l 328 488 l 93 488 l 93 653 l 328 653 l 328 882 l 506 882 l 506 653 l 740 653 l 740 488 l 506 488 l 506 256 l 328 256 m 93 0 l 93 165 l 740 165 l 740 0 l 93 0 z "},"×":{"ha":833,"x_min":110,"x_max":724,"o":"m 417 301 l 224 99 l 110 213 l 303 415 l 110 618 l 224 732 l 417 529 l 610 732 l 724 618 l 531 415 l 724 213 l 610 99 l 417 301 z "},"÷":{"ha":833,"x_min":93,"x_max":739,"o":"m 93 343 l 93 507 l 739 507 l 739 343 l 93 343 m 417 39 q 324 67 351 39 q 296 135 296 96 l 296 168 q 324 235 296 207 q 417 264 351 264 q 510 235 482 264 q 538 168 538 207 l 538 135 q 510 67 538 96 q 417 39 482 39 m 417 583 q 324 612 351 583 q 296 679 296 640 l 296 713 q 324 780 296 751 q 417 808 351 808 q 510 780 482 808 q 538 713 538 751 l 538 679 q 510 612 538 640 q 417 583 482 583 z "},"=":{"ha":833,"x_min":93,"x_max":740,"o":"m 93 503 l 93 667 l 740 667 l 740 503 l 93 503 m 93 181 l 93 344 l 740 344 l 740 181 l 93 181 z "},"≈":{"ha":833,"x_min":78,"x_max":764,"o":"m 582 456 q 492 469 531 456 q 407 506 453 482 q 333 538 369 525 q 254 551 297 551 q 199 542 222 551 q 146 514 176 533 l 78 631 q 147 692 103 667 q 260 717 192 717 q 350 703 311 717 q 435 667 389 690 q 508 634 472 647 q 588 621 544 621 q 642 630 619 621 q 696 658 665 639 l 764 542 q 694 481 739 506 q 582 456 650 456 m 582 133 q 492 147 531 133 q 407 183 453 160 q 333 216 369 203 q 254 229 297 229 q 199 220 222 229 q 146 192 176 211 l 78 308 q 147 369 103 344 q 260 394 192 394 q 350 381 311 394 q 435 344 389 368 q 508 312 472 325 q 588 299 544 299 q 642 308 619 299 q 696 336 665 317 l 764 219 q 694 158 739 183 q 582 133 650 133 z "},"≠":{"ha":833,"x_min":93,"x_max":740,"o":"m 129 51 l 199 181 l 93 181 l 93 342 l 285 342 l 369 506 l 93 506 l 93 667 l 454 667 l 525 799 l 700 799 l 629 667 l 740 667 l 740 506 l 544 506 l 458 342 l 740 342 l 740 181 l 372 181 l 303 51 l 129 51 z "},"<":{"ha":833,"x_min":143,"x_max":690,"o":"m 143 358 l 143 479 l 690 839 l 690 632 l 360 424 l 360 414 l 690 206 l 690 -3 l 143 358 z "},">":{"ha":833,"x_min":143,"x_max":690,"o":"m 143 206 l 474 414 l 474 424 l 143 632 l 143 839 l 690 481 l 690 360 l 143 -3 l 143 206 z "},"≤":{"ha":833,"x_min":143,"x_max":690,"o":"m 143 0 l 143 161 l 690 161 l 690 0 l 143 0 m 690 656 l 388 524 l 388 514 l 690 383 l 690 193 l 143 456 l 143 581 l 690 846 l 690 656 z "},"≥":{"ha":833,"x_min":143,"x_max":690,"o":"m 143 383 l 446 515 l 446 525 l 143 656 l 143 846 l 690 583 l 690 458 l 143 193 l 143 383 m 143 161 l 690 161 l 690 0 l 143 0 l 143 161 z "},"·":{"ha":497,"x_min":126,"x_max":371,"o":"m 249 296 q 156 327 186 296 q 126 407 126 358 l 126 435 q 156 515 126 483 q 249 546 186 546 q 341 515 311 546 q 371 435 371 483 l 371 407 q 341 327 371 358 q 249 296 311 296 z "},"•":{"ha":597,"x_min":86,"x_max":511,"o":"m 299 208 q 200 222 240 208 q 135 260 160 236 q 98 318 110 285 q 86 390 86 351 l 86 440 q 98 513 86 479 q 135 570 110 546 q 200 608 160 594 q 299 622 240 622 q 397 608 357 622 q 463 570 438 594 q 499 513 488 546 q 511 440 511 479 l 511 390 q 499 318 511 351 q 463 260 488 285 q 397 222 438 236 q 299 208 357 208 z "},"◊":{"ha":833,"x_min":74,"x_max":760,"o":"m 358 0 l 74 485 l 358 969 l 475 969 l 760 485 l 475 0 l 358 0 m 421 199 l 578 485 l 421 771 l 413 771 l 256 485 l 413 199 l 421 199 z "},"¬":{"ha":833,"x_min":72,"x_max":740,"o":"m 572 108 l 572 343 l 72 343 l 72 507 l 740 507 l 740 108 l 572 108 z "},"√":{"ha":833,"x_min":19,"x_max":813,"o":"m 288 0 l 125 557 l 19 557 l 19 729 l 256 729 l 344 415 l 407 171 l 418 171 l 481 415 l 642 969 l 813 969 l 532 0 l 288 0 z "},"∫":{"ha":622,"x_min":49,"x_max":574,"o":"m 49 -118 l 208 -118 l 208 819 q 222 903 208 865 q 262 969 235 942 q 330 1013 289 997 q 426 1028 371 1028 l 574 1028 l 574 868 l 414 868 l 414 -69 q 401 -153 414 -115 q 360 -219 388 -192 q 292 -262 333 -247 q 196 -278 251 -278 l 49 -278 l 49 -118 z "},"∞":{"ha":1100,"x_min":31,"x_max":1069,"o":"m 310 118 q 105 193 179 118 q 31 403 31 268 q 105 613 31 538 q 310 688 179 688 q 474 645 403 688 q 579 499 544 603 l 588 499 q 609 575 590 540 q 657 635 628 610 q 721 674 686 660 q 790 688 756 688 q 995 613 921 688 q 1069 403 1069 538 q 995 193 1069 268 q 790 118 921 118 q 626 160 697 118 q 521 307 556 203 l 513 307 q 491 231 510 265 q 443 171 472 196 q 379 132 414 146 q 310 118 344 118 m 310 275 q 413 309 369 275 q 472 386 457 343 q 446 440 461 414 q 410 487 431 467 q 365 519 390 507 q 310 531 339 531 q 236 501 263 531 q 210 415 210 472 l 210 390 q 236 304 210 333 q 310 275 263 275 m 790 275 q 864 304 838 275 q 890 390 890 333 l 890 415 q 864 501 890 472 q 790 531 838 531 q 687 497 731 531 q 628 419 643 463 q 653 365 638 392 q 690 319 669 339 q 735 287 710 299 q 790 275 761 275 z "},"℮":{"ha":992,"x_min":42,"x_max":950,"o":"m 297 122 q 386 83 338 97 q 496 68 435 68 q 703 125 621 68 q 835 275 785 182 l 911 231 q 843 133 883 178 q 750 54 803 88 q 633 2 697 21 q 496 -17 569 -17 q 315 19 397 -17 q 171 119 232 54 q 76 277 110 185 q 42 485 42 369 q 76 692 42 599 q 171 850 110 785 q 315 951 232 915 q 496 986 397 986 q 676 951 593 986 q 821 850 760 915 q 916 692 882 785 q 950 485 950 599 l 297 485 l 297 122 m 694 565 l 694 851 q 606 890 654 875 q 496 906 557 906 q 386 890 435 906 q 297 851 338 875 l 297 565 l 694 565 z "},"ℓ":{"ha":768,"x_min":22,"x_max":739,"o":"m 436 -17 q 332 0 381 -17 q 247 47 283 17 q 189 122 210 78 q 168 221 168 165 l 168 225 l 111 188 l 22 331 q 98 378 60 351 q 158 419 136 404 l 158 757 q 178 890 158 835 q 231 978 197 944 q 312 1028 265 1013 q 411 1044 358 1044 q 598 974 533 1044 q 663 779 663 903 q 643 656 663 714 q 585 544 624 599 q 489 433 547 489 q 353 317 431 378 l 353 260 q 374 184 353 207 q 433 161 396 161 q 502 191 472 161 q 572 304 532 221 l 739 219 q 625 49 699 114 q 436 -17 551 -17 m 417 863 q 373 840 393 863 q 353 764 353 818 l 353 525 q 440 630 406 572 q 474 763 474 688 l 474 776 q 457 842 474 821 q 417 863 440 863 z "},"№":{"ha":1472,"x_min":107,"x_max":1421,"o":"m 1190 497 q 1020 561 1081 497 q 960 742 960 625 q 1020 922 960 858 q 1190 986 1081 986 q 1360 922 1300 986 q 1421 742 1421 858 q 1360 561 1421 625 q 1190 497 1300 497 m 107 0 l 107 969 l 338 969 l 567 525 l 660 314 l 664 314 l 664 969 l 863 969 l 863 0 l 632 0 l 403 444 l 310 656 l 306 656 l 306 0 l 107 0 m 1190 607 q 1251 632 1229 607 q 1274 704 1274 657 l 1274 779 q 1251 851 1274 826 q 1190 876 1229 876 q 1129 851 1151 876 q 1107 779 1107 826 l 1107 704 q 1129 632 1107 657 q 1190 607 1151 607 m 969 303 l 969 413 l 1411 413 l 1411 303 l 969 303 z "},"∂":{"ha":815,"x_min":53,"x_max":761,"o":"m 761 381 q 735 203 761 278 q 663 79 710 128 q 552 7 617 31 q 410 -17 488 -17 q 260 9 326 -17 q 148 83 194 35 q 77 199 101 131 q 53 354 53 268 q 72 496 53 432 q 126 605 90 560 q 211 675 161 650 q 324 700 261 700 q 452 663 400 700 q 538 564 504 626 l 550 569 q 404 778 511 682 q 124 969 297 874 l 425 969 q 549 874 489 929 q 657 747 610 819 q 733 583 704 674 q 761 381 761 492 m 407 136 q 511 179 474 136 q 549 301 549 222 l 549 379 q 511 501 549 458 q 407 544 474 544 q 303 501 340 544 q 265 379 265 458 l 265 301 q 303 179 265 222 q 407 136 340 136 z "},"¤":{"ha":872,"x_min":14,"x_max":858,"o":"m 436 149 q 336 160 383 149 q 253 190 289 171 l 126 63 l 14 174 l 140 300 q 96 485 96 376 q 140 669 96 593 l 14 796 l 126 907 l 253 779 q 336 810 289 799 q 436 821 383 821 q 536 810 489 821 q 619 779 583 799 l 746 907 l 858 796 l 732 669 q 776 485 776 593 q 732 300 776 376 l 858 174 l 746 63 l 619 190 q 536 160 583 171 q 436 149 489 149 m 436 297 q 535 336 500 297 q 571 446 571 375 l 571 524 q 535 633 571 594 q 436 672 500 672 q 337 633 372 672 q 301 524 301 594 l 301 446 q 337 336 301 375 q 436 297 372 297 z "},"¢":{"ha":767,"x_min":57,"x_max":717,"o":"m 329 -158 l 329 -10 q 128 111 199 15 q 57 358 57 207 q 128 606 57 510 q 329 726 200 703 l 329 875 l 482 875 l 482 728 q 621 669 567 714 q 706 558 675 625 l 558 478 q 523 533 544 508 q 469 571 501 558 l 469 144 q 530 183 506 157 q 571 240 554 208 l 717 158 q 627 47 685 92 q 482 -11 569 1 l 482 -158 l 329 -158 m 253 300 q 276 205 253 244 q 343 147 299 165 l 343 569 q 276 512 299 551 q 253 417 253 472 l 253 300 z "},"€":{"ha":871,"x_min":69,"x_max":831,"o":"m 494 -17 q 322 17 400 -17 q 187 115 243 51 q 100 272 131 179 q 69 485 69 365 q 100 697 69 603 q 187 854 131 790 q 322 952 243 918 q 494 986 400 986 q 615 972 564 986 q 703 934 665 957 q 767 881 740 911 q 817 819 794 850 l 665 710 q 595 791 635 764 q 494 818 556 818 q 376 775 428 818 q 303 657 324 732 l 622 657 l 622 532 l 292 532 l 292 438 l 622 438 l 622 313 l 303 313 q 374 192 322 233 q 494 151 425 151 q 679 269 613 151 l 831 158 q 781 95 810 126 q 712 39 753 64 q 617 -1 671 14 q 494 -17 564 -17 z "},"ƒ":{"ha":672,"x_min":7,"x_max":656,"o":"m 24 -26 l 183 -26 l 222 349 l 75 349 l 92 515 l 239 515 l 264 758 q 333 910 274 850 q 503 969 392 969 l 656 969 l 639 810 l 474 810 l 443 515 l 617 515 l 603 349 l 426 349 l 393 24 q 325 -127 383 -68 q 154 -186 267 -186 l 7 -186 l 24 -26 z "},"£":{"ha":808,"x_min":47,"x_max":789,"o":"m 92 0 l 92 189 q 176 256 144 213 q 207 358 207 299 q 201 404 207 383 l 47 404 l 47 571 l 139 571 q 121 633 128 600 q 114 701 114 665 q 138 818 114 765 q 208 908 163 871 q 318 966 254 946 q 461 986 382 986 q 653 944 574 986 q 789 818 733 901 l 636 711 q 557 783 597 761 q 467 804 517 804 q 363 769 399 804 q 326 668 326 733 q 332 617 326 640 q 346 571 338 594 l 618 571 l 618 404 l 410 404 q 412 385 411 394 q 413 365 413 376 q 403 301 413 329 q 377 251 393 272 q 342 215 361 229 q 306 190 324 200 l 306 178 l 769 178 l 769 0 l 92 0 z "},"$":{"ha":835,"x_min":44,"x_max":776,"o":"m 347 -114 l 347 14 q 169 63 242 24 q 44 160 97 101 l 169 274 q 258 205 210 232 q 365 169 307 178 l 365 419 q 140 519 208 451 q 72 689 72 588 q 142 868 72 799 q 347 953 213 938 l 347 1083 l 506 1083 l 506 953 q 651 912 589 943 q 760 828 714 881 l 633 714 q 574 764 608 742 q 489 797 539 786 l 489 567 q 706 471 636 533 q 776 301 776 408 q 710 121 776 199 q 506 19 644 43 l 506 -114 l 347 -114 m 264 694 q 288 632 264 654 q 365 594 313 610 l 365 800 q 288 762 313 789 q 264 694 264 735 m 585 286 q 567 345 585 317 q 489 392 549 374 l 489 172 q 561 216 538 186 q 585 286 585 246 z "},"¥":{"ha":903,"x_min":26,"x_max":876,"o":"m 554 185 l 554 0 l 342 0 l 342 185 l 108 185 l 108 310 l 342 310 l 342 404 l 108 404 l 108 529 l 261 529 l 26 969 l 265 969 l 457 588 l 460 588 l 650 969 l 876 969 l 635 529 l 788 529 l 788 404 l 554 404 l 554 310 l 788 310 l 788 185 l 554 185 z "},"฿":{"ha":924,"x_min":107,"x_max":868,"o":"m 542 -125 l 383 -125 l 383 28 l 107 28 l 107 942 l 383 942 l 383 1083 l 542 1083 l 542 942 l 593 942 q 769 878 706 942 q 833 707 833 814 q 790 567 833 611 q 656 511 747 522 l 656 503 q 739 487 700 500 q 806 448 778 474 q 851 383 835 422 q 868 289 868 344 q 850 187 868 235 q 801 103 832 139 q 726 48 769 68 q 632 28 682 28 l 542 28 l 542 -125 m 397 567 l 397 774 l 306 774 l 306 567 l 397 567 m 529 567 l 543 567 q 606 588 583 567 q 628 649 628 608 l 628 692 q 606 753 628 732 q 543 774 583 774 l 529 774 l 529 567 m 397 196 l 397 406 l 306 406 l 306 196 l 397 196 m 529 196 l 576 196 q 640 217 617 196 q 663 279 663 239 l 663 322 q 640 384 663 363 q 576 406 617 406 l 529 406 l 529 196 z "},"₡":{"ha":857,"x_min":69,"x_max":817,"o":"m 449 13 q 419 17 433 14 q 390 22 404 19 l 376 -114 l 279 -114 l 297 54 q 131 217 193 107 q 69 486 69 326 q 155 793 69 675 q 389 946 240 911 l 403 1083 l 500 1083 l 488 958 l 504 958 q 526 958 515 958 q 547 957 536 958 l 560 1083 l 657 1083 l 642 938 q 742 881 701 918 q 817 800 782 844 l 675 697 q 621 757 653 735 l 561 183 q 624 221 594 196 q 672 282 653 246 l 815 176 q 774 124 799 150 q 715 75 749 97 q 638 36 681 53 q 544 14 596 19 l 532 -114 l 435 -114 l 449 13 m 469 799 l 406 188 q 467 172 436 174 l 531 794 q 506 798 521 797 q 481 799 492 799 l 469 799 m 281 404 q 291 324 281 361 q 321 260 301 288 l 371 761 q 306 682 331 732 q 281 565 281 632 l 281 404 z "},"₤":{"ha":808,"x_min":47,"x_max":789,"o":"m 769 0 l 92 0 l 92 182 q 163 237 135 201 q 203 315 192 272 l 47 315 l 47 440 l 192 440 q 174 488 185 464 q 154 535 164 511 l 47 535 l 47 660 l 117 660 q 115 681 115 671 q 114 701 114 690 q 138 818 114 765 q 208 908 163 871 q 318 966 254 946 q 461 986 382 986 q 653 944 574 986 q 789 818 733 901 l 636 717 q 557 788 597 767 q 467 810 517 810 q 363 772 399 810 q 326 668 326 733 l 326 660 l 590 660 l 590 535 l 361 535 q 383 488 372 511 q 400 440 393 465 l 590 440 l 590 315 l 407 315 q 365 232 396 265 q 306 183 335 199 l 306 171 l 769 171 l 769 0 z "},"₦":{"ha":1078,"x_min":24,"x_max":1054,"o":"m 529 317 l 331 317 l 331 0 l 146 0 l 146 317 l 24 317 l 24 442 l 146 442 l 146 536 l 24 536 l 24 661 l 146 661 l 146 969 l 388 969 l 543 661 l 749 661 l 749 969 l 931 969 l 931 661 l 1054 661 l 1054 536 l 931 536 l 931 442 l 1054 442 l 1054 317 l 931 317 l 931 0 l 688 0 l 529 317 m 469 436 l 335 714 l 331 714 l 331 436 l 469 436 m 744 256 l 749 256 l 749 542 l 604 542 l 744 256 z "},"₨":{"ha":1240,"x_min":107,"x_max":1196,"o":"m 107 0 l 107 969 l 435 969 q 649 894 569 969 q 728 685 728 819 q 701 548 728 610 q 625 444 674 486 l 717 271 q 794 174 753 204 q 881 143 835 143 q 945 160 922 143 q 968 200 968 176 q 956 247 968 225 q 913 296 944 268 l 886 319 q 801 417 831 369 q 772 529 772 465 q 790 619 772 579 q 842 688 808 660 q 921 730 875 715 q 1021 744 967 744 q 1111 735 1065 744 q 1196 703 1157 726 l 1129 568 q 1044 593 1090 593 q 990 580 1013 593 q 967 536 967 567 q 987 488 967 508 q 1038 439 1007 467 l 1064 415 q 1146 319 1119 364 q 1172 208 1172 274 q 1156 122 1172 163 q 1102 50 1139 81 q 1006 1 1065 19 q 863 -17 947 -17 q 670 25 749 -17 q 543 167 592 67 l 438 379 l 318 379 l 318 0 l 107 0 m 407 550 q 483 573 456 550 q 510 644 510 596 l 510 704 q 483 776 510 753 q 407 799 456 799 l 318 799 l 318 550 l 407 550 z "},"₩":{"ha":1421,"x_min":53,"x_max":1368,"o":"m 810 317 l 608 317 l 533 0 l 292 0 l 219 317 l 53 317 l 53 442 l 190 442 l 169 536 l 53 536 l 53 661 l 140 661 l 69 969 l 278 969 l 339 661 l 526 661 l 599 969 l 829 969 l 901 661 l 1089 661 l 1151 969 l 1351 969 l 1279 661 l 1368 661 l 1368 536 l 1250 536 l 1228 442 l 1368 442 l 1368 317 l 1199 317 l 1124 0 l 883 0 l 810 317 m 489 497 l 499 542 l 363 542 l 371 496 l 424 229 l 428 229 l 489 497 m 1004 229 l 1056 493 l 1065 542 l 929 542 l 939 501 l 1000 229 l 1004 229 m 636 436 l 782 436 l 769 490 l 711 740 l 707 740 l 649 492 l 636 436 z "},"₪":{"ha":1272,"x_min":107,"x_max":1165,"o":"m 397 701 l 585 701 l 585 171 l 885 171 q 956 201 933 171 q 978 276 978 231 l 978 969 l 1165 969 l 1165 275 q 1095 68 1165 136 q 913 0 1025 0 l 397 0 l 397 701 m 107 0 l 107 969 l 622 969 q 805 901 735 969 q 875 694 875 833 l 875 265 l 688 265 l 688 693 q 667 769 688 739 q 594 799 646 799 l 294 799 l 294 0 l 107 0 z "},"₫":{"ha":800,"x_min":50,"x_max":757,"o":"m 469 331 l 461 331 q 435 288 450 308 q 397 252 419 268 q 344 227 375 236 q 275 218 314 218 q 184 233 225 218 q 113 281 143 249 q 67 365 83 314 q 50 485 50 415 q 67 605 50 554 q 113 688 83 656 q 184 736 143 721 q 275 751 225 751 q 397 719 354 751 q 461 638 439 686 l 469 638 l 469 824 l 300 824 l 300 949 l 469 949 l 469 1028 l 675 1028 l 675 949 l 757 949 l 757 824 l 675 824 l 675 229 l 469 229 l 469 331 m 360 363 q 442 386 414 363 q 469 439 469 410 l 469 532 q 442 585 469 561 q 360 608 414 608 q 278 581 306 608 q 250 508 250 553 l 250 463 q 278 390 250 418 q 360 363 306 363 m 74 0 l 74 146 l 700 146 l 700 0 l 74 0 z "},"₭":{"ha":950,"x_min":8,"x_max":933,"o":"m 343 0 l 132 0 l 132 404 l 8 404 l 8 571 l 132 571 l 132 969 l 343 969 l 343 571 l 396 571 l 657 969 l 896 969 l 615 571 l 867 571 l 867 404 l 633 404 l 933 0 l 683 0 l 399 404 l 343 404 l 343 0 z "},"₮":{"ha":839,"x_min":51,"x_max":788,"o":"m 525 289 l 525 0 l 314 0 l 314 189 l 147 110 l 147 235 l 314 314 l 314 407 l 147 329 l 147 453 l 314 532 l 314 799 l 51 799 l 51 969 l 788 969 l 788 799 l 525 799 l 525 632 l 693 711 l 693 586 l 525 507 l 525 414 l 693 493 l 693 368 l 525 289 z "},"₱":{"ha":969,"x_min":22,"x_max":947,"o":"m 357 0 l 146 0 l 146 432 l 22 432 l 22 543 l 146 543 l 146 638 l 22 638 l 22 749 l 146 749 l 146 969 l 538 969 q 713 919 643 969 q 810 749 783 868 l 947 749 l 947 638 l 822 638 q 824 616 824 626 q 824 594 824 606 q 824 568 824 581 q 822 543 824 556 l 947 543 l 947 432 l 806 432 q 709 265 778 319 q 536 210 640 210 l 357 210 l 357 0 m 357 740 l 610 740 q 577 804 603 781 q 511 828 551 828 l 357 828 l 357 740 m 613 538 l 613 643 l 357 643 l 357 538 l 613 538 m 511 349 q 577 373 551 349 q 610 440 603 397 l 357 440 l 357 349 l 511 349 z "},"₲":{"ha":926,"x_min":69,"x_max":854,"o":"m 274 -114 l 301 44 q 134 201 199 90 q 69 483 69 311 q 97 679 69 593 q 176 826 125 765 q 300 919 228 886 q 461 957 372 953 l 482 1083 l 642 1083 l 617 939 q 838 746 764 894 l 675 671 q 637 735 661 707 q 575 781 613 764 l 533 538 l 854 538 l 854 347 q 816 192 854 256 q 719 88 778 128 q 592 29 661 47 q 463 11 524 11 l 456 11 l 433 -114 l 274 -114 m 281 413 q 297 296 281 343 q 344 219 314 249 l 446 796 q 324 720 368 782 q 281 558 281 658 l 281 413 m 506 378 l 469 171 l 479 171 q 550 181 517 171 q 608 211 583 190 q 649 264 633 232 q 664 340 664 296 l 664 378 l 506 378 z "},"₴":{"ha":894,"x_min":53,"x_max":842,"o":"m 465 -17 q 327 7 386 -17 q 228 71 268 31 q 169 164 189 111 q 149 276 149 217 q 149 297 149 288 q 151 317 150 307 l 53 317 l 53 442 l 203 442 l 382 536 l 53 536 l 53 661 l 551 661 q 558 706 558 682 q 527 792 558 765 q 439 818 496 818 q 344 798 389 818 q 267 742 299 778 l 164 871 q 284 954 208 922 q 447 986 360 986 q 574 965 518 986 q 667 908 629 944 q 726 825 706 872 q 746 726 746 778 q 744 694 746 711 q 739 661 743 678 l 842 661 l 842 536 l 676 536 l 504 442 l 842 442 l 842 317 l 340 317 q 336 282 336 300 q 373 181 336 214 q 474 147 410 147 q 567 169 522 147 q 661 246 611 192 l 767 117 q 642 21 718 58 q 465 -17 565 -17 z "},"₵":{"ha":843,"x_min":69,"x_max":803,"o":"m 276 -114 l 304 50 q 133 211 196 100 q 69 485 69 322 q 98 676 69 590 q 178 822 126 761 q 303 917 231 882 q 463 957 375 951 l 485 1083 l 644 1083 l 619 942 q 728 884 685 922 q 803 800 772 846 l 660 697 q 576 779 628 753 l 471 171 l 489 171 q 658 282 599 171 l 801 178 q 755 119 782 149 q 690 65 728 89 q 602 26 651 40 q 489 11 553 11 l 457 11 l 436 -114 l 276 -114 m 281 406 q 298 303 281 347 q 347 228 315 258 l 447 796 q 328 721 375 781 q 281 565 281 661 l 281 406 z "},"₸":{"ha":839,"x_min":51,"x_max":788,"o":"m 51 824 l 51 969 l 788 969 l 788 824 l 51 824 m 525 564 l 525 0 l 314 0 l 314 564 l 51 564 l 51 710 l 788 710 l 788 564 l 525 564 z "},"₹":{"ha":874,"x_min":86,"x_max":822,"o":"m 481 0 l 251 304 l 86 304 l 86 450 l 310 450 q 446 564 436 450 l 86 564 l 86 710 l 446 710 q 407 801 440 778 q 310 824 374 824 l 86 824 l 86 969 l 822 969 l 822 824 l 539 824 l 539 818 q 601 785 571 814 q 646 710 631 756 l 822 710 l 822 564 l 651 564 q 597 419 639 482 q 475 326 554 357 l 738 0 l 481 0 z "},"₺":{"ha":849,"x_min":24,"x_max":813,"o":"m 146 296 l 24 238 l 24 363 l 146 421 l 146 515 l 24 457 l 24 581 l 146 639 l 146 969 l 357 969 l 357 739 l 567 839 l 567 714 l 357 615 l 357 521 l 567 619 l 567 496 l 357 396 l 357 171 l 425 171 q 507 182 472 171 q 565 222 542 193 q 599 300 588 251 q 611 424 611 349 l 813 424 q 792 258 813 335 q 727 123 771 181 q 615 33 683 65 q 451 0 546 0 l 146 0 l 146 296 z "},"₽":{"ha":918,"x_min":22,"x_max":868,"o":"m 356 143 l 356 0 l 144 0 l 144 143 l 22 143 l 22 289 l 144 289 l 144 403 l 22 403 l 22 549 l 144 549 l 144 969 l 576 969 q 790 896 713 969 q 868 686 868 822 q 790 476 868 550 q 576 403 713 403 l 356 403 l 356 289 l 653 289 l 653 143 l 356 143 m 356 549 l 550 549 q 625 574 599 549 q 651 647 651 600 l 651 708 q 624 777 651 756 q 550 799 597 799 l 356 799 l 356 549 z "},"₿":{"ha":924,"x_min":107,"x_max":868,"o":"m 492 28 l 399 28 l 399 -114 l 246 -114 l 246 28 l 107 28 l 107 942 l 246 942 l 246 1083 l 399 1083 l 399 942 l 492 942 l 492 1083 l 644 1083 l 644 938 q 784 862 735 922 q 833 707 833 801 q 790 567 833 611 q 656 511 747 522 l 656 503 q 742 486 703 500 q 809 447 781 472 q 853 382 838 421 q 868 289 868 343 q 851 190 868 236 q 804 108 835 143 q 733 52 774 74 q 644 28 692 31 l 644 -114 l 492 -114 l 492 28 m 306 567 l 543 567 q 606 587 583 567 q 628 647 628 607 l 628 693 q 606 753 628 733 q 543 774 583 774 l 306 774 l 306 567 m 306 196 l 576 196 q 640 217 617 196 q 663 278 663 238 l 663 324 q 640 385 663 364 q 576 406 617 406 l 306 406 l 306 196 z "},"ﬁ":{"ha":899,"x_min":29,"x_max":819,"o":"m 132 569 l 29 569 l 29 729 l 132 729 l 132 815 q 188 974 132 921 q 350 1028 243 1028 l 483 1028 l 483 868 l 338 868 l 338 729 l 803 729 l 803 0 l 597 0 l 597 569 l 338 569 l 338 0 l 132 0 l 132 569 m 700 807 q 609 835 638 807 q 581 908 581 864 l 581 939 q 609 1012 581 983 q 700 1040 638 1040 q 791 1012 763 1040 q 819 939 819 983 l 819 908 q 791 835 819 864 q 700 807 763 807 z "},"ﬂ":{"ha":922,"x_min":29,"x_max":894,"o":"m 132 569 l 29 569 l 29 729 l 132 729 l 132 815 q 188 974 132 921 q 350 1028 243 1028 l 483 1028 l 483 868 l 338 868 l 338 729 l 483 729 l 483 569 l 338 569 l 338 0 l 132 0 l 132 569 m 801 0 q 647 51 696 0 q 597 200 597 103 l 597 1028 l 803 1028 l 803 160 l 894 160 l 894 0 l 801 0 z "},"á":{"ha":790,"x_min":47,"x_max":749,"o":"m 635 0 q 542 35 579 0 q 496 128 506 69 l 488 128 q 414 20 471 57 q 274 -17 357 -17 q 106 42 164 -17 q 47 196 47 100 q 131 367 47 311 q 360 424 215 424 l 475 424 l 475 469 q 447 553 475 522 q 354 585 419 585 q 257 558 293 585 q 197 499 221 532 l 75 607 q 187 709 119 672 q 369 746 254 746 q 603 678 525 746 q 681 479 681 610 l 681 160 l 749 160 l 749 0 l 635 0 m 350 126 q 438 149 401 126 q 475 221 475 171 l 475 307 l 375 307 q 254 225 254 307 l 254 204 q 279 145 254 164 q 350 126 304 126 m 396 804 l 274 864 l 411 1133 l 582 1049 l 396 804 z "},"â":{"ha":790,"x_min":47,"x_max":749,"o":"m 635 0 q 542 35 579 0 q 496 128 506 69 l 488 128 q 414 20 471 57 q 274 -17 357 -17 q 106 42 164 -17 q 47 196 47 100 q 131 367 47 311 q 360 424 215 424 l 475 424 l 475 469 q 447 553 475 522 q 354 585 419 585 q 257 558 293 585 q 197 499 221 532 l 75 607 q 187 709 119 672 q 369 746 254 746 q 603 678 525 746 q 681 479 681 610 l 681 160 l 749 160 l 749 0 l 635 0 m 350 126 q 438 149 401 126 q 475 221 475 171 l 475 307 l 375 307 q 254 225 254 307 l 254 204 q 279 145 254 164 q 350 126 304 126 m 460 1104 l 643 883 l 542 803 l 374 963 l 206 803 l 104 883 l 288 1104 l 460 1104 z "},"ä":{"ha":790,"x_min":47,"x_max":749,"o":"m 635 0 q 542 35 579 0 q 496 128 506 69 l 488 128 q 414 20 471 57 q 274 -17 357 -17 q 106 42 164 -17 q 47 196 47 100 q 131 367 47 311 q 360 424 215 424 l 475 424 l 475 469 q 447 553 475 522 q 354 585 419 585 q 257 558 293 585 q 197 499 221 532 l 75 607 q 187 709 119 672 q 369 746 254 746 q 603 678 525 746 q 681 479 681 610 l 681 160 l 749 160 l 749 0 l 635 0 m 350 126 q 438 149 401 126 q 475 221 475 171 l 475 307 l 375 307 q 254 225 254 307 l 254 204 q 279 145 254 164 q 350 126 304 126 m 221 833 q 134 859 158 833 q 110 921 110 885 l 110 956 q 134 1017 110 992 q 221 1043 158 1043 q 308 1017 283 1043 q 332 956 332 992 l 332 921 q 308 859 332 885 q 221 833 283 833 m 526 833 q 440 859 464 833 q 415 921 415 885 l 415 956 q 440 1017 415 992 q 526 1043 464 1043 q 613 1017 589 1043 q 638 956 638 992 l 638 921 q 613 859 638 885 q 526 833 589 833 z "},"à":{"ha":790,"x_min":47,"x_max":749,"o":"m 635 0 q 542 35 579 0 q 496 128 506 69 l 488 128 q 414 20 471 57 q 274 -17 357 -17 q 106 42 164 -17 q 47 196 47 100 q 131 367 47 311 q 360 424 215 424 l 475 424 l 475 469 q 447 553 475 522 q 354 585 419 585 q 257 558 293 585 q 197 499 221 532 l 75 607 q 187 709 119 672 q 369 746 254 746 q 603 678 525 746 q 681 479 681 610 l 681 160 l 749 160 l 749 0 l 635 0 m 350 126 q 438 149 401 126 q 475 221 475 171 l 475 307 l 375 307 q 254 225 254 307 l 254 204 q 279 145 254 164 q 350 126 304 126 m 165 1049 l 336 1133 l 474 864 l 351 804 l 165 1049 z "},"å":{"ha":790,"x_min":47,"x_max":749,"o":"m 635 0 q 542 35 579 0 q 496 128 506 69 l 488 128 q 414 20 471 57 q 274 -17 357 -17 q 106 42 164 -17 q 47 196 47 100 q 131 367 47 311 q 360 424 215 424 l 475 424 l 475 469 q 447 553 475 522 q 354 585 419 585 q 257 558 293 585 q 197 499 221 532 l 75 607 q 187 709 119 672 q 369 746 254 746 q 603 678 525 746 q 681 479 681 610 l 681 160 l 749 160 l 749 0 l 635 0 m 350 126 q 438 149 401 126 q 475 221 475 171 l 475 307 l 375 307 q 254 225 254 307 l 254 204 q 279 145 254 164 q 350 126 304 126 m 374 775 q 293 790 331 775 q 228 831 256 804 q 184 894 200 857 q 168 974 168 931 q 184 1053 168 1017 q 228 1117 200 1090 q 293 1158 256 1143 q 374 1172 331 1172 q 454 1158 417 1172 q 519 1117 492 1143 q 563 1053 547 1090 q 579 974 579 1017 q 563 894 579 931 q 519 831 547 857 q 454 790 492 804 q 374 775 417 775 m 374 879 q 426 898 408 879 q 444 950 444 917 l 444 997 q 426 1049 444 1031 q 374 1068 408 1068 q 321 1049 339 1068 q 303 997 303 1031 l 303 950 q 321 898 303 917 q 374 879 339 879 z "},"ã":{"ha":790,"x_min":47,"x_max":749,"o":"m 635 0 q 542 35 579 0 q 496 128 506 69 l 488 128 q 414 20 471 57 q 274 -17 357 -17 q 106 42 164 -17 q 47 196 47 100 q 131 367 47 311 q 360 424 215 424 l 475 424 l 475 469 q 447 553 475 522 q 354 585 419 585 q 257 558 293 585 q 197 499 221 532 l 75 607 q 187 709 119 672 q 369 746 254 746 q 603 678 525 746 q 681 479 681 610 l 681 160 l 749 160 l 749 0 l 635 0 m 350 126 q 438 149 401 126 q 475 221 475 171 l 475 307 l 375 307 q 254 225 254 307 l 254 204 q 279 145 254 164 q 350 126 304 126 m 479 835 q 423 843 447 835 q 372 863 399 851 q 317 884 342 875 q 264 893 292 893 q 222 885 240 893 q 182 858 204 876 l 110 953 q 174 1016 135 990 q 268 1042 213 1042 q 324 1033 300 1042 q 375 1014 349 1025 q 431 992 406 1001 q 483 983 456 983 q 525 992 507 983 q 565 1018 543 1000 l 638 924 q 574 860 613 886 q 479 835 535 835 z "},"æ":{"ha":1200,"x_min":47,"x_max":1150,"o":"m 375 313 q 287 292 319 313 q 254 231 254 271 l 254 211 q 353 126 254 126 q 438 149 401 126 q 475 221 475 171 l 475 313 l 375 313 m 938 433 l 938 446 q 908 553 938 513 q 815 594 878 594 q 717 553 753 594 q 682 444 682 513 l 682 433 l 938 433 m 847 147 q 953 174 911 147 q 1026 232 996 200 l 1129 104 q 1002 15 1081 47 q 824 -17 924 -17 q 644 24 719 -17 q 540 126 569 65 l 532 126 q 501 71 521 97 q 449 25 481 44 q 375 -6 418 6 q 275 -17 332 -17 q 177 -1 219 -17 q 106 44 135 15 q 62 113 76 74 q 47 200 47 153 q 70 302 47 258 q 135 375 93 346 q 234 419 176 404 q 360 433 292 433 l 475 433 l 475 469 q 447 553 475 522 q 354 585 419 585 q 257 558 293 585 q 197 499 221 532 l 75 607 q 187 709 119 672 q 369 746 254 746 q 488 722 436 746 q 575 643 540 697 l 583 643 q 677 721 617 696 q 817 746 738 746 q 971 715 907 746 q 1074 633 1035 685 q 1132 515 1114 582 q 1150 374 1150 447 l 1150 313 l 681 313 l 681 301 q 724 189 681 231 q 847 147 768 147 z "},"ç":{"ha":718,"x_min":50,"x_max":686,"o":"m 390 746 q 576 696 501 746 q 682 556 650 646 l 515 483 q 475 554 506 525 q 390 583 444 583 q 296 542 328 583 q 264 432 264 501 l 264 296 q 296 186 264 226 q 390 146 328 146 q 478 176 446 146 q 526 254 511 206 l 686 185 q 578 35 650 83 q 404 -17 506 -14 l 392 -76 l 397 -82 q 431 -75 414 -78 q 464 -72 447 -72 q 535 -94 506 -72 q 565 -168 565 -117 q 550 -228 565 -204 q 509 -267 535 -251 q 450 -288 483 -282 q 382 -294 417 -294 q 269 -274 310 -294 q 210 -233 228 -254 l 274 -156 q 310 -184 288 -172 q 365 -196 333 -196 q 409 -187 392 -196 q 426 -161 426 -179 q 422 -144 426 -153 q 406 -128 418 -136 q 374 -115 394 -121 q 322 -106 354 -108 l 293 -103 l 313 -10 q 117 113 185 14 q 50 365 50 211 q 72 523 50 453 q 138 643 94 593 q 244 719 181 693 q 390 746 308 746 z "},"ð":{"ha":838,"x_min":57,"x_max":771,"o":"m 665 963 l 564 901 q 717 667 664 797 q 771 386 771 538 q 745 204 771 281 q 673 79 719 128 q 562 7 626 31 q 418 -17 497 -17 q 266 9 333 -17 q 152 82 199 35 q 81 197 106 129 q 57 351 57 265 q 76 492 57 429 q 132 601 96 556 q 219 670 168 646 q 332 694 269 694 q 463 658 410 694 q 549 558 515 621 l 558 563 q 499 690 539 629 q 403 807 460 750 l 279 733 l 208 817 l 319 882 q 213 960 268 924 q 99 1028 157 996 l 413 1028 q 447 1003 431 1017 q 481 978 464 990 l 596 1046 l 665 963 m 414 136 q 519 178 481 136 q 558 300 558 221 l 558 375 q 519 497 558 454 q 414 539 481 539 q 308 497 347 539 q 269 375 269 454 l 269 300 q 308 178 269 221 q 414 136 347 136 z "},"é":{"ha":781,"x_min":50,"x_max":731,"o":"m 400 -17 q 251 10 317 -17 q 141 87 186 38 q 73 207 96 136 q 50 365 50 278 q 72 522 50 451 q 138 642 94 592 q 246 719 182 692 q 392 746 310 746 q 547 715 482 746 q 652 633 611 685 q 712 515 693 582 q 731 374 731 447 l 731 313 l 263 313 l 263 301 q 301 187 263 229 q 424 144 340 144 q 528 170 488 144 q 603 232 568 196 l 706 104 q 578 15 657 47 q 400 -17 500 -17 m 396 594 q 298 553 333 594 q 263 444 263 513 l 263 433 l 518 433 l 518 446 q 488 553 518 513 q 396 594 458 594 m 422 804 l 300 864 l 438 1133 l 608 1049 l 422 804 z "},"ê":{"ha":781,"x_min":50,"x_max":731,"o":"m 400 -17 q 251 10 317 -17 q 141 87 186 38 q 73 207 96 136 q 50 365 50 278 q 72 522 50 451 q 138 642 94 592 q 246 719 182 692 q 392 746 310 746 q 547 715 482 746 q 652 633 611 685 q 712 515 693 582 q 731 374 731 447 l 731 313 l 263 313 l 263 301 q 301 187 263 229 q 424 144 340 144 q 528 170 488 144 q 603 232 568 196 l 706 104 q 578 15 657 47 q 400 -17 500 -17 m 396 594 q 298 553 333 594 q 263 444 263 513 l 263 433 l 518 433 l 518 446 q 488 553 518 513 q 396 594 458 594 m 486 1104 l 669 883 l 568 803 l 400 963 l 232 803 l 131 883 l 314 1104 l 486 1104 z "},"ë":{"ha":781,"x_min":50,"x_max":731,"o":"m 400 -17 q 251 10 317 -17 q 141 87 186 38 q 73 207 96 136 q 50 365 50 278 q 72 522 50 451 q 138 642 94 592 q 246 719 182 692 q 392 746 310 746 q 547 715 482 746 q 652 633 611 685 q 712 515 693 582 q 731 374 731 447 l 731 313 l 263 313 l 263 301 q 301 187 263 229 q 424 144 340 144 q 528 170 488 144 q 603 232 568 196 l 706 104 q 578 15 657 47 q 400 -17 500 -17 m 396 594 q 298 553 333 594 q 263 444 263 513 l 263 433 l 518 433 l 518 446 q 488 553 518 513 q 396 594 458 594 m 247 833 q 160 859 185 833 q 136 921 136 885 l 136 956 q 160 1017 136 992 q 247 1043 185 1043 q 334 1017 310 1043 q 358 956 358 992 l 358 921 q 334 859 358 885 q 247 833 310 833 m 553 833 q 466 859 490 833 q 442 921 442 885 l 442 956 q 466 1017 442 992 q 553 1043 490 1043 q 640 1017 615 1043 q 664 956 664 992 l 664 921 q 640 859 664 885 q 553 833 615 833 z "},"è":{"ha":781,"x_min":50,"x_max":731,"o":"m 400 -17 q 251 10 317 -17 q 141 87 186 38 q 73 207 96 136 q 50 365 50 278 q 72 522 50 451 q 138 642 94 592 q 246 719 182 692 q 392 746 310 746 q 547 715 482 746 q 652 633 611 685 q 712 515 693 582 q 731 374 731 447 l 731 313 l 263 313 l 263 301 q 301 187 263 229 q 424 144 340 144 q 528 170 488 144 q 603 232 568 196 l 706 104 q 578 15 657 47 q 400 -17 500 -17 m 396 594 q 298 553 333 594 q 263 444 263 513 l 263 433 l 518 433 l 518 446 q 488 553 518 513 q 396 594 458 594 m 192 1049 l 363 1133 l 500 864 l 378 804 l 192 1049 z "},"ı":{"ha":397,"x_min":96,"x_max":301,"o":"m 96 0 l 96 729 l 301 729 l 301 0 l 96 0 z "},"í":{"ha":397,"x_min":96,"x_max":408,"o":"m 96 0 l 96 729 l 301 729 l 301 0 l 96 0 m 222 804 l 100 864 l 238 1133 l 408 1049 l 222 804 z "},"î":{"ha":397,"x_min":-69,"x_max":469,"o":"m 96 0 l 96 729 l 301 729 l 301 0 l 96 0 m 286 1104 l 469 883 l 368 803 l 200 963 l 32 803 l -69 883 l 114 1104 l 286 1104 z "},"ï":{"ha":397,"x_min":-64,"x_max":464,"o":"m 96 0 l 96 729 l 301 729 l 301 0 l 96 0 m 47 833 q -40 859 -15 833 q -64 921 -64 885 l -64 956 q -40 1017 -64 992 q 47 1043 -15 1043 q 134 1017 110 1043 q 158 956 158 992 l 158 921 q 134 859 158 885 q 47 833 110 833 m 353 833 q 266 859 290 833 q 242 921 242 885 l 242 956 q 266 1017 242 992 q 353 1043 290 1043 q 440 1017 415 1043 q 464 956 464 992 l 464 921 q 440 859 464 885 q 353 833 415 833 z "},"ì":{"ha":397,"x_min":-8,"x_max":301,"o":"m 96 0 l 96 729 l 301 729 l 301 0 l 96 0 m -8 1049 l 163 1133 l 300 864 l 178 804 l -8 1049 z "},"ĳ":{"ha":786,"x_min":79,"x_max":707,"o":"m 199 807 q 108 835 136 807 q 79 908 79 864 l 79 939 q 108 1012 79 983 q 199 1040 136 1040 q 290 1012 261 1040 q 318 939 318 983 l 318 908 q 290 835 318 864 q 199 807 261 807 m 96 729 l 301 729 l 301 0 l 96 0 l 96 729 m 485 729 l 690 729 l 690 -78 q 642 -226 690 -175 q 485 -278 593 -278 l 376 -278 l 376 -118 l 485 -118 l 485 729 m 588 807 q 497 835 525 807 q 468 908 468 864 l 468 939 q 497 1012 468 983 q 588 1040 525 1040 q 678 1012 650 1040 q 707 939 707 983 l 707 908 q 678 835 707 864 q 588 807 650 807 z "},"ȷ":{"ha":397,"x_min":-12,"x_max":301,"o":"m -12 -118 l 96 -118 l 96 729 l 301 729 l 301 -78 q 253 -226 301 -175 q 96 -278 204 -278 l -12 -278 l -12 -118 z "},"ĵ":{"ha":397,"x_min":-69,"x_max":469,"o":"m -12 -118 l 96 -118 l 96 729 l 301 729 l 301 -78 q 253 -226 301 -175 q 96 -278 204 -278 l -12 -278 l -12 -118 m 286 1104 l 469 883 l 368 803 l 200 963 l 32 803 l -69 883 l 114 1104 l 286 1104 z "},"ŀ":{"ha":622,"x_min":96,"x_max":628,"o":"m 300 0 q 145 51 194 0 q 96 200 96 103 l 96 1028 l 301 1028 l 301 160 l 393 160 l 393 0 l 300 0 m 504 381 q 408 409 435 381 q 381 478 381 438 l 381 518 q 408 587 381 558 q 504 615 435 615 q 601 587 574 615 q 628 518 628 558 l 628 478 q 601 409 628 438 q 504 381 574 381 z "},"ł":{"ha":436,"x_min":-3,"x_max":454,"o":"m 401 0 l 308 0 q 153 51 203 0 q 104 200 104 103 l 104 410 l -3 375 l -3 526 l 104 561 l 104 1028 l 310 1028 l 310 628 l 454 675 l 454 524 l 310 476 l 310 160 l 401 160 l 401 0 z "},"ñ":{"ha":828,"x_min":96,"x_max":740,"o":"m 96 0 l 96 729 l 301 729 l 301 606 l 310 606 q 378 704 329 663 q 513 746 426 746 q 683 671 625 746 q 740 457 740 596 l 740 0 l 535 0 l 535 440 q 513 545 535 511 q 433 579 490 579 q 385 573 408 579 q 342 553 361 567 q 313 519 324 539 q 301 472 301 499 l 301 0 l 96 0 m 522 835 q 466 843 490 835 q 415 863 442 851 q 360 884 385 875 q 307 893 335 893 q 265 885 283 893 q 225 858 247 876 l 153 953 q 217 1016 178 990 q 311 1042 256 1042 q 367 1033 343 1042 q 418 1014 392 1025 q 474 992 449 1001 q 526 983 499 983 q 568 992 550 983 q 608 1018 586 1000 l 681 924 q 617 860 656 886 q 522 835 578 835 z "},"ó":{"ha":783,"x_min":50,"x_max":733,"o":"m 392 -17 q 248 10 311 -17 q 141 86 185 36 q 74 207 97 136 q 50 365 50 278 q 74 524 50 453 q 141 644 97 594 q 248 719 185 693 q 392 746 311 746 q 535 719 472 746 q 642 644 599 693 q 710 524 686 594 q 733 365 733 453 q 710 207 733 278 q 642 86 686 136 q 535 10 599 36 q 392 -17 472 -17 m 392 146 q 486 183 453 146 q 519 290 519 221 l 519 439 q 486 546 519 508 q 392 583 453 583 q 297 546 331 583 q 264 439 264 508 l 264 290 q 297 183 264 221 q 392 146 331 146 m 414 804 l 292 864 l 429 1133 l 600 1049 l 414 804 z "},"ô":{"ha":783,"x_min":50,"x_max":733,"o":"m 392 -17 q 248 10 311 -17 q 141 86 185 36 q 74 207 97 136 q 50 365 50 278 q 74 524 50 453 q 141 644 97 594 q 248 719 185 693 q 392 746 311 746 q 535 719 472 746 q 642 644 599 693 q 710 524 686 594 q 733 365 733 453 q 710 207 733 278 q 642 86 686 136 q 535 10 599 36 q 392 -17 472 -17 m 392 146 q 486 183 453 146 q 519 290 519 221 l 519 439 q 486 546 519 508 q 392 583 453 583 q 297 546 331 583 q 264 439 264 508 l 264 290 q 297 183 264 221 q 392 146 331 146 m 478 1104 l 661 883 l 560 803 l 392 963 l 224 803 l 122 883 l 306 1104 l 478 1104 z "},"ö":{"ha":783,"x_min":50,"x_max":733,"o":"m 392 -17 q 248 10 311 -17 q 141 86 185 36 q 74 207 97 136 q 50 365 50 278 q 74 524 50 453 q 141 644 97 594 q 248 719 185 693 q 392 746 311 746 q 535 719 472 746 q 642 644 599 693 q 710 524 686 594 q 733 365 733 453 q 710 207 733 278 q 642 86 686 136 q 535 10 599 36 q 392 -17 472 -17 m 392 146 q 486 183 453 146 q 519 290 519 221 l 519 439 q 486 546 519 508 q 392 583 453 583 q 297 546 331 583 q 264 439 264 508 l 264 290 q 297 183 264 221 q 392 146 331 146 m 239 833 q 152 859 176 833 q 128 921 128 885 l 128 956 q 152 1017 128 992 q 239 1043 176 1043 q 326 1017 301 1043 q 350 956 350 992 l 350 921 q 326 859 350 885 q 239 833 301 833 m 544 833 q 458 859 482 833 q 433 921 433 885 l 433 956 q 458 1017 433 992 q 544 1043 482 1043 q 631 1017 607 1043 q 656 956 656 992 l 656 921 q 631 859 656 885 q 544 833 607 833 z "},"ò":{"ha":783,"x_min":50,"x_max":733,"o":"m 392 -17 q 248 10 311 -17 q 141 86 185 36 q 74 207 97 136 q 50 365 50 278 q 74 524 50 453 q 141 644 97 594 q 248 719 185 693 q 392 746 311 746 q 535 719 472 746 q 642 644 599 693 q 710 524 686 594 q 733 365 733 453 q 710 207 733 278 q 642 86 686 136 q 535 10 599 36 q 392 -17 472 -17 m 392 146 q 486 183 453 146 q 519 290 519 221 l 519 439 q 486 546 519 508 q 392 583 453 583 q 297 546 331 583 q 264 439 264 508 l 264 290 q 297 183 264 221 q 392 146 331 146 m 183 1049 l 354 1133 l 492 864 l 369 804 l 183 1049 z "},"ø":{"ha":794,"x_min":19,"x_max":775,"o":"m 19 14 l 113 129 q 56 365 56 224 q 79 524 56 453 q 147 644 103 594 q 253 719 190 693 q 397 746 317 746 q 581 699 501 746 l 664 799 l 775 715 l 681 599 q 739 364 739 507 q 715 206 739 276 q 648 85 692 135 q 541 10 604 36 q 397 -17 478 -17 q 298 -5 344 -17 q 214 29 251 7 l 131 -69 l 19 14 m 397 133 q 497 178 461 133 q 532 297 532 222 l 532 433 l 308 165 q 397 133 343 133 m 263 297 l 485 564 q 397 596 450 596 q 298 551 333 596 q 263 432 263 507 l 263 297 z "},"õ":{"ha":783,"x_min":50,"x_max":733,"o":"m 392 -17 q 248 10 311 -17 q 141 86 185 36 q 74 207 97 136 q 50 365 50 278 q 74 524 50 453 q 141 644 97 594 q 248 719 185 693 q 392 746 311 746 q 535 719 472 746 q 642 644 599 693 q 710 524 686 594 q 733 365 733 453 q 710 207 733 278 q 642 86 686 136 q 535 10 599 36 q 392 -17 472 -17 m 392 146 q 486 183 453 146 q 519 290 519 221 l 519 439 q 486 546 519 508 q 392 583 453 583 q 297 546 331 583 q 264 439 264 508 l 264 290 q 297 183 264 221 q 392 146 331 146 m 497 835 q 441 843 465 835 q 390 863 417 851 q 335 884 360 875 q 282 893 310 893 q 240 885 258 893 q 200 858 222 876 l 128 953 q 192 1016 153 990 q 286 1042 231 1042 q 342 1033 318 1042 q 393 1014 367 1025 q 449 992 424 1001 q 501 983 474 983 q 543 992 525 983 q 583 1018 561 1000 l 656 924 q 592 860 631 886 q 497 835 553 835 z "},"œ":{"ha":1251,"x_min":50,"x_max":1201,"o":"m 392 146 q 486 183 453 146 q 519 290 519 221 l 519 439 q 486 546 519 508 q 392 583 453 583 q 297 546 331 583 q 264 439 264 508 l 264 290 q 297 183 264 221 q 392 146 331 146 m 988 433 l 988 446 q 958 553 988 513 q 865 594 928 594 q 767 553 803 594 q 732 444 732 513 l 732 433 l 988 433 m 875 -17 q 717 12 782 -17 q 631 86 653 40 l 622 86 q 537 10 594 38 q 392 -17 479 -17 q 248 10 311 -17 q 141 88 185 38 q 74 210 97 139 q 50 369 50 282 q 140 646 50 546 q 392 746 231 746 q 530 722 471 746 q 622 643 589 697 l 631 643 q 719 719 658 692 q 868 746 781 746 q 1011 719 949 746 q 1116 644 1074 693 q 1180 527 1158 596 q 1201 374 1201 458 l 1201 313 l 732 313 l 732 301 q 773 187 732 229 q 899 144 814 144 q 1003 170 963 144 q 1078 232 1043 196 l 1181 104 q 1053 15 1132 47 q 875 -17 975 -17 z "},"š":{"ha":700,"x_min":36,"x_max":656,"o":"m 343 -17 q 165 17 238 -17 q 36 114 93 51 l 157 236 q 243 168 196 193 q 350 143 290 143 q 435 162 411 143 q 458 213 458 181 q 385 274 458 264 l 306 283 q 60 508 60 314 q 80 605 60 561 q 137 680 100 649 q 226 728 174 711 q 343 746 278 746 q 444 738 400 746 q 522 716 488 731 q 584 680 556 701 q 640 632 613 658 l 522 511 q 444 566 488 546 q 354 586 400 586 q 279 569 301 586 q 257 525 257 553 q 273 480 257 496 q 333 457 289 464 l 415 446 q 656 226 656 414 q 633 129 656 174 q 570 52 611 85 q 472 1 529 19 q 343 -17 414 -17 m 263 815 l 79 1036 l 181 1117 l 349 957 l 517 1117 l 618 1036 l 435 815 l 263 815 z "},"ß":{"ha":961,"x_min":29,"x_max":926,"o":"m 926 240 q 906 133 926 181 q 851 53 886 86 q 766 1 815 19 q 657 -17 717 -17 q 504 8 569 -17 q 399 88 439 33 l 515 207 q 581 153 547 169 q 654 136 614 136 q 715 156 692 136 q 738 215 738 176 q 716 270 738 251 q 646 304 694 289 l 603 318 q 489 388 531 342 q 447 519 447 435 q 499 658 447 603 q 643 735 550 714 l 643 738 q 605 855 643 818 q 490 892 567 892 q 376 855 414 892 q 338 738 338 818 l 338 0 l 132 0 l 132 569 l 29 569 l 29 729 l 132 729 l 132 735 q 158 865 132 807 q 230 963 183 922 q 342 1024 276 1003 q 485 1044 407 1044 q 626 1024 563 1044 q 736 964 690 1003 q 807 867 782 925 q 832 738 832 810 l 832 603 l 754 603 q 663 588 689 603 q 636 538 636 574 q 657 490 636 504 q 722 460 678 475 l 765 446 q 883 374 840 422 q 926 240 926 326 z "},"þ":{"ha":844,"x_min":96,"x_max":785,"o":"m 96 1028 l 301 1028 l 301 607 l 308 607 q 378 707 324 668 q 504 746 433 746 q 714 649 643 746 q 785 365 785 551 q 714 81 785 179 q 504 -17 643 -17 q 436 -6 468 -17 q 378 23 404 4 q 335 67 353 42 q 308 122 317 93 l 301 122 l 301 -278 l 96 -278 l 96 1028 m 436 150 q 533 191 494 150 q 571 301 571 232 l 571 428 q 533 538 571 497 q 436 579 494 579 q 340 551 378 579 q 301 472 301 522 l 301 257 q 340 178 301 207 q 436 150 378 150 z "},"ú":{"ha":828,"x_min":88,"x_max":732,"o":"m 526 122 l 519 122 q 494 69 510 94 q 453 25 478 44 q 394 -6 428 6 q 315 -17 360 -17 q 145 58 203 -17 q 88 271 88 132 l 88 729 l 293 729 l 293 289 q 317 186 293 222 q 397 150 340 150 q 444 157 421 150 q 486 177 468 164 q 515 210 504 190 q 526 256 526 229 l 526 729 l 732 729 l 732 0 l 526 0 l 526 122 m 433 804 l 311 864 l 449 1133 l 619 1049 l 433 804 z "},"û":{"ha":828,"x_min":88,"x_max":732,"o":"m 526 122 l 519 122 q 494 69 510 94 q 453 25 478 44 q 394 -6 428 6 q 315 -17 360 -17 q 145 58 203 -17 q 88 271 88 132 l 88 729 l 293 729 l 293 289 q 317 186 293 222 q 397 150 340 150 q 444 157 421 150 q 486 177 468 164 q 515 210 504 190 q 526 256 526 229 l 526 729 l 732 729 l 732 0 l 526 0 l 526 122 m 497 1104 l 681 883 l 579 803 l 411 963 l 243 803 l 142 883 l 325 1104 l 497 1104 z "},"ü":{"ha":828,"x_min":88,"x_max":732,"o":"m 526 122 l 519 122 q 494 69 510 94 q 453 25 478 44 q 394 -6 428 6 q 315 -17 360 -17 q 145 58 203 -17 q 88 271 88 132 l 88 729 l 293 729 l 293 289 q 317 186 293 222 q 397 150 340 150 q 444 157 421 150 q 486 177 468 164 q 515 210 504 190 q 526 256 526 229 l 526 729 l 732 729 l 732 0 l 526 0 l 526 122 m 258 833 q 172 859 196 833 q 147 921 147 885 l 147 956 q 172 1017 147 992 q 258 1043 196 1043 q 345 1017 321 1043 q 369 956 369 992 l 369 921 q 345 859 369 885 q 258 833 321 833 m 564 833 q 477 859 501 833 q 453 921 453 885 l 453 956 q 477 1017 453 992 q 564 1043 501 1043 q 651 1017 626 1043 q 675 956 675 992 l 675 921 q 651 859 675 885 q 564 833 626 833 z "},"ù":{"ha":828,"x_min":88,"x_max":732,"o":"m 526 122 l 519 122 q 494 69 510 94 q 453 25 478 44 q 394 -6 428 6 q 315 -17 360 -17 q 145 58 203 -17 q 88 271 88 132 l 88 729 l 293 729 l 293 289 q 317 186 293 222 q 397 150 340 150 q 444 157 421 150 q 486 177 468 164 q 515 210 504 190 q 526 256 526 229 l 526 729 l 732 729 l 732 0 l 526 0 l 526 122 m 203 1049 l 374 1133 l 511 864 l 389 804 l 203 1049 z "},"ý":{"ha":742,"x_min":8,"x_max":733,"o":"m 542 729 l 733 729 l 453 -112 q 374 -237 425 -197 q 229 -278 324 -278 l 101 -278 l 101 -118 l 239 -118 l 264 -37 l 8 729 l 213 729 l 319 389 l 372 178 l 381 178 l 435 389 l 542 729 m 400 804 l 278 864 l 415 1133 l 586 1049 l 400 804 z "},"ÿ":{"ha":742,"x_min":8,"x_max":733,"o":"m 542 729 l 733 729 l 453 -112 q 374 -237 425 -197 q 229 -278 324 -278 l 101 -278 l 101 -118 l 239 -118 l 264 -37 l 8 729 l 213 729 l 319 389 l 372 178 l 381 178 l 435 389 l 542 729 m 225 833 q 138 859 163 833 q 114 921 114 885 l 114 956 q 138 1017 114 992 q 225 1043 163 1043 q 312 1017 288 1043 q 336 956 336 992 l 336 921 q 312 859 336 885 q 225 833 288 833 m 531 833 q 444 859 468 833 q 419 921 419 885 l 419 956 q 444 1017 419 992 q 531 1043 468 1043 q 617 1017 593 1043 q 642 956 642 992 l 642 921 q 617 859 642 885 q 531 833 593 833 z "},"ž":{"ha":719,"x_min":54,"x_max":665,"o":"m 54 0 l 54 163 l 417 569 l 67 569 l 67 729 l 656 729 l 656 568 l 292 160 l 665 160 l 665 0 l 54 0 m 275 815 l 92 1036 l 193 1117 l 361 957 l 529 1117 l 631 1036 l 447 815 l 275 815 z "},"Á":{"ha":951,"x_min":28,"x_max":924,"o":"m 704 0 l 635 231 l 311 231 l 242 0 l 28 0 l 347 969 l 608 969 l 924 0 l 704 0 m 475 778 l 468 778 l 361 410 l 583 410 l 475 778 m 493 1028 l 371 1088 l 508 1357 l 679 1272 l 493 1028 z "},"Â":{"ha":951,"x_min":28,"x_max":924,"o":"m 704 0 l 635 231 l 311 231 l 242 0 l 28 0 l 347 969 l 608 969 l 924 0 l 704 0 m 475 778 l 468 778 l 361 410 l 583 410 l 475 778 m 557 1328 l 740 1107 l 639 1026 l 471 1186 l 303 1026 l 201 1107 l 385 1328 l 557 1328 z "},"Ä":{"ha":951,"x_min":28,"x_max":924,"o":"m 704 0 l 635 231 l 311 231 l 242 0 l 28 0 l 347 969 l 608 969 l 924 0 l 704 0 m 475 778 l 468 778 l 361 410 l 583 410 l 475 778 m 318 1057 q 231 1083 256 1057 q 207 1144 207 1108 l 207 1179 q 231 1241 207 1215 q 318 1267 256 1267 q 405 1241 381 1267 q 429 1179 429 1215 l 429 1144 q 405 1083 429 1108 q 318 1057 381 1057 m 624 1057 q 537 1083 561 1057 q 513 1144 513 1108 l 513 1179 q 537 1241 513 1215 q 624 1267 561 1267 q 710 1241 686 1267 q 735 1179 735 1215 l 735 1144 q 710 1083 735 1108 q 624 1057 686 1057 z "},"À":{"ha":951,"x_min":28,"x_max":924,"o":"m 704 0 l 635 231 l 311 231 l 242 0 l 28 0 l 347 969 l 608 969 l 924 0 l 704 0 m 475 778 l 468 778 l 361 410 l 583 410 l 475 778 m 263 1272 l 433 1357 l 571 1088 l 449 1028 l 263 1272 z "},"Å":{"ha":951,"x_min":28,"x_max":924,"o":"m 704 0 l 635 231 l 311 231 l 242 0 l 28 0 l 347 969 l 608 969 l 924 0 l 704 0 m 475 778 l 468 778 l 361 410 l 583 410 l 475 778 m 471 999 q 390 1013 428 999 q 325 1054 353 1028 q 281 1117 297 1081 q 265 1197 265 1154 q 281 1277 265 1240 q 325 1340 297 1314 q 390 1381 353 1367 q 471 1396 428 1396 q 551 1381 514 1396 q 617 1340 589 1367 q 660 1277 644 1314 q 676 1197 676 1240 q 660 1117 676 1154 q 617 1054 644 1081 q 551 1013 589 1028 q 471 999 514 999 m 471 1103 q 524 1122 506 1103 q 542 1174 542 1142 l 542 1221 q 524 1272 542 1253 q 471 1292 506 1292 q 418 1272 436 1292 q 400 1221 400 1253 l 400 1174 q 418 1122 400 1142 q 471 1103 436 1103 z "},"Ã":{"ha":951,"x_min":28,"x_max":924,"o":"m 704 0 l 635 231 l 311 231 l 242 0 l 28 0 l 347 969 l 608 969 l 924 0 l 704 0 m 475 778 l 468 778 l 361 410 l 583 410 l 475 778 m 576 1058 q 520 1067 544 1058 q 469 1086 496 1075 q 414 1108 439 1099 q 361 1117 389 1117 q 319 1108 338 1117 q 279 1082 301 1100 l 207 1176 q 271 1240 232 1214 q 365 1265 310 1265 q 422 1257 397 1265 q 472 1238 446 1249 q 528 1216 503 1225 q 581 1207 553 1207 q 622 1215 604 1207 q 663 1242 640 1224 l 735 1147 q 671 1084 710 1110 q 576 1058 632 1058 z "},"Æ":{"ha":1344,"x_min":-1,"x_max":1268,"o":"m 608 231 l 318 231 l 210 0 l -1 0 l 472 969 l 1268 969 l 1268 782 l 818 782 l 818 583 l 1204 583 l 1204 397 l 818 397 l 818 188 l 1268 188 l 1268 0 l 608 0 l 608 231 m 576 782 l 403 410 l 608 410 l 608 782 l 576 782 z "},"Ç":{"ha":904,"x_min":69,"x_max":864,"o":"m 499 799 q 349 738 406 799 q 293 563 293 678 l 293 407 q 349 231 293 292 q 499 171 406 171 q 623 213 576 171 q 692 315 669 256 l 864 215 q 722 44 810 104 q 506 -17 635 -17 l 493 -76 l 499 -82 q 532 -75 515 -78 q 565 -72 549 -72 q 637 -94 607 -72 q 667 -168 667 -117 q 651 -228 667 -204 q 610 -267 636 -251 q 551 -288 585 -282 q 483 -294 518 -294 q 370 -274 411 -294 q 311 -233 329 -254 l 375 -156 q 412 -184 389 -172 q 467 -196 435 -196 q 510 -187 493 -196 q 528 -161 528 -179 q 524 -144 528 -153 q 508 -128 519 -136 q 476 -115 496 -121 q 424 -106 456 -108 l 394 -103 l 414 -10 q 162 137 254 14 q 69 478 69 260 q 100 695 69 600 q 186 855 131 790 q 321 953 242 919 q 499 986 400 986 q 721 931 633 986 q 861 758 808 876 l 679 664 q 619 762 660 725 q 499 799 578 799 z "},"Đ":{"ha":975,"x_min":10,"x_max":906,"o":"m 114 413 l 10 413 l 10 571 l 114 571 l 114 969 l 479 969 q 654 939 575 969 q 789 848 733 908 q 875 697 844 788 q 906 485 906 606 q 875 273 906 364 q 789 122 844 182 q 654 31 733 61 q 479 0 575 0 l 114 0 l 114 413 m 479 188 q 628 240 574 188 q 682 410 682 293 l 682 560 q 628 729 682 676 q 479 782 574 782 l 325 782 l 325 571 l 490 571 l 490 413 l 325 413 l 325 188 l 479 188 z "},"Ð":{"ha":975,"x_min":10,"x_max":906,"o":"m 114 413 l 10 413 l 10 571 l 114 571 l 114 969 l 479 969 q 654 939 575 969 q 789 848 733 908 q 875 697 844 788 q 906 485 906 606 q 875 273 906 364 q 789 122 844 182 q 654 31 733 61 q 479 0 575 0 l 114 0 l 114 413 m 479 188 q 628 240 574 188 q 682 410 682 293 l 682 560 q 628 729 682 676 q 479 782 574 782 l 325 782 l 325 571 l 490 571 l 490 413 l 325 413 l 325 188 l 479 188 z "},"É":{"ha":843,"x_min":107,"x_max":767,"o":"m 107 0 l 107 969 l 767 969 l 767 782 l 318 782 l 318 583 l 703 583 l 703 397 l 318 397 l 318 188 l 767 188 l 767 0 l 107 0 m 460 1028 l 338 1088 l 475 1357 l 646 1272 l 460 1028 z "},"Ê":{"ha":843,"x_min":107,"x_max":767,"o":"m 107 0 l 107 969 l 767 969 l 767 782 l 318 782 l 318 583 l 703 583 l 703 397 l 318 397 l 318 188 l 767 188 l 767 0 l 107 0 m 524 1328 l 707 1107 l 606 1026 l 438 1186 l 269 1026 l 168 1107 l 351 1328 l 524 1328 z "},"Ë":{"ha":843,"x_min":107,"x_max":767,"o":"m 107 0 l 107 969 l 767 969 l 767 782 l 318 782 l 318 583 l 703 583 l 703 397 l 318 397 l 318 188 l 767 188 l 767 0 l 107 0 m 285 1057 q 198 1083 222 1057 q 174 1144 174 1108 l 174 1179 q 198 1241 174 1215 q 285 1267 222 1267 q 372 1241 347 1267 q 396 1179 396 1215 l 396 1144 q 372 1083 396 1108 q 285 1057 347 1057 m 590 1057 q 503 1083 528 1057 q 479 1144 479 1108 l 479 1179 q 503 1241 479 1215 q 590 1267 528 1267 q 677 1241 653 1267 q 701 1179 701 1215 l 701 1144 q 677 1083 701 1108 q 590 1057 653 1057 z "},"È":{"ha":843,"x_min":107,"x_max":767,"o":"m 107 0 l 107 969 l 767 969 l 767 782 l 318 782 l 318 583 l 703 583 l 703 397 l 318 397 l 318 188 l 767 188 l 767 0 l 107 0 m 229 1272 l 400 1357 l 538 1088 l 415 1028 l 229 1272 z "},"Í":{"ha":600,"x_min":69,"x_max":531,"o":"m 69 0 l 69 168 l 194 168 l 194 801 l 69 801 l 69 969 l 531 969 l 531 801 l 406 801 l 406 168 l 531 168 l 531 0 l 69 0 m 324 1028 l 201 1088 l 339 1357 l 510 1272 l 324 1028 z "},"Î":{"ha":600,"x_min":32,"x_max":571,"o":"m 69 0 l 69 168 l 194 168 l 194 801 l 69 801 l 69 969 l 531 969 l 531 801 l 406 801 l 406 168 l 531 168 l 531 0 l 69 0 m 388 1328 l 571 1107 l 469 1026 l 301 1186 l 133 1026 l 32 1107 l 215 1328 l 388 1328 z "},"Ï":{"ha":600,"x_min":38,"x_max":565,"o":"m 69 0 l 69 168 l 194 168 l 194 801 l 69 801 l 69 969 l 531 969 l 531 801 l 406 801 l 406 168 l 531 168 l 531 0 l 69 0 m 149 1057 q 62 1083 86 1057 q 38 1144 38 1108 l 38 1179 q 62 1241 38 1215 q 149 1267 86 1267 q 235 1241 211 1267 q 260 1179 260 1215 l 260 1144 q 235 1083 260 1108 q 149 1057 211 1057 m 454 1057 q 367 1083 392 1057 q 343 1144 343 1108 l 343 1179 q 367 1241 343 1215 q 454 1267 392 1267 q 541 1241 517 1267 q 565 1179 565 1215 l 565 1144 q 541 1083 565 1108 q 454 1057 517 1057 z "},"Ì":{"ha":600,"x_min":69,"x_max":531,"o":"m 69 0 l 69 168 l 194 168 l 194 801 l 69 801 l 69 969 l 531 969 l 531 801 l 406 801 l 406 168 l 531 168 l 531 0 l 69 0 m 93 1272 l 264 1357 l 401 1088 l 279 1028 l 93 1272 z "},"Ĳ":{"ha":911,"x_min":101,"x_max":810,"o":"m 810 969 l 810 292 q 785 164 810 221 q 713 67 760 107 q 602 6 667 28 q 458 -15 538 -15 q 218 60 304 -15 q 111 257 132 135 l 308 296 q 358 201 319 233 q 457 169 397 169 q 509 177 483 169 q 555 201 535 185 q 587 242 575 217 q 599 304 599 268 l 599 800 l 476 800 l 476 969 l 810 969 m 101 969 l 313 969 l 313 429 l 101 429 l 101 969 z "},"Ł":{"ha":750,"x_min":-10,"x_max":694,"o":"m 694 0 l 114 0 l 114 338 l -10 297 l -10 454 l 114 494 l 114 969 l 325 969 l 325 561 l 544 632 l 544 475 l 325 404 l 325 188 l 694 188 l 694 0 z "},"Ñ":{"ha":1006,"x_min":107,"x_max":899,"o":"m 403 458 l 310 653 l 306 653 l 306 0 l 107 0 l 107 969 l 338 969 l 603 511 l 696 317 l 700 317 l 700 969 l 899 969 l 899 0 l 668 0 l 403 458 m 607 1058 q 551 1067 575 1058 q 500 1086 526 1075 q 444 1108 469 1099 q 392 1117 419 1117 q 350 1108 368 1117 q 310 1082 332 1100 l 238 1176 q 301 1240 263 1214 q 396 1265 340 1265 q 452 1257 428 1265 q 503 1238 476 1249 q 558 1216 533 1225 q 611 1207 583 1207 q 653 1215 635 1207 q 693 1242 671 1224 l 765 1147 q 701 1084 740 1110 q 607 1058 663 1058 z "},"Ó":{"ha":992,"x_min":69,"x_max":922,"o":"m 496 -17 q 321 15 400 -17 q 186 110 242 47 q 100 267 131 174 q 69 485 69 361 q 100 702 69 608 q 186 859 131 796 q 321 954 242 922 q 496 986 400 986 q 671 954 592 986 q 806 859 750 922 q 892 702 861 796 q 922 485 922 608 q 892 267 922 361 q 806 110 861 174 q 671 15 750 47 q 496 -17 592 -17 m 496 171 q 645 233 592 171 q 699 413 699 296 l 699 557 q 645 736 699 674 q 496 799 592 799 q 347 736 400 799 q 293 557 293 674 l 293 413 q 347 233 293 296 q 496 171 400 171 m 518 1028 l 396 1088 l 533 1357 l 704 1272 l 518 1028 z "},"Ô":{"ha":992,"x_min":69,"x_max":922,"o":"m 496 -17 q 321 15 400 -17 q 186 110 242 47 q 100 267 131 174 q 69 485 69 361 q 100 702 69 608 q 186 859 131 796 q 321 954 242 922 q 496 986 400 986 q 671 954 592 986 q 806 859 750 922 q 892 702 861 796 q 922 485 922 608 q 892 267 922 361 q 806 110 861 174 q 671 15 750 47 q 496 -17 592 -17 m 496 171 q 645 233 592 171 q 699 413 699 296 l 699 557 q 645 736 699 674 q 496 799 592 799 q 347 736 400 799 q 293 557 293 674 l 293 413 q 347 233 293 296 q 496 171 400 171 m 582 1328 l 765 1107 l 664 1026 l 496 1186 l 328 1026 l 226 1107 l 410 1328 l 582 1328 z "},"Ö":{"ha":992,"x_min":69,"x_max":922,"o":"m 496 -17 q 321 15 400 -17 q 186 110 242 47 q 100 267 131 174 q 69 485 69 361 q 100 702 69 608 q 186 859 131 796 q 321 954 242 922 q 496 986 400 986 q 671 954 592 986 q 806 859 750 922 q 892 702 861 796 q 922 485 922 608 q 892 267 922 361 q 806 110 861 174 q 671 15 750 47 q 496 -17 592 -17 m 496 171 q 645 233 592 171 q 699 413 699 296 l 699 557 q 645 736 699 674 q 496 799 592 799 q 347 736 400 799 q 293 557 293 674 l 293 413 q 347 233 293 296 q 496 171 400 171 m 343 1057 q 256 1083 281 1057 q 232 1144 232 1108 l 232 1179 q 256 1241 232 1215 q 343 1267 281 1267 q 430 1241 406 1267 q 454 1179 454 1215 l 454 1144 q 430 1083 454 1108 q 343 1057 406 1057 m 649 1057 q 562 1083 586 1057 q 538 1144 538 1108 l 538 1179 q 562 1241 538 1215 q 649 1267 586 1267 q 735 1241 711 1267 q 760 1179 760 1215 l 760 1144 q 735 1083 760 1108 q 649 1057 711 1057 z "},"Ò":{"ha":992,"x_min":69,"x_max":922,"o":"m 496 -17 q 321 15 400 -17 q 186 110 242 47 q 100 267 131 174 q 69 485 69 361 q 100 702 69 608 q 186 859 131 796 q 321 954 242 922 q 496 986 400 986 q 671 954 592 986 q 806 859 750 922 q 892 702 861 796 q 922 485 922 608 q 892 267 922 361 q 806 110 861 174 q 671 15 750 47 q 496 -17 592 -17 m 496 171 q 645 233 592 171 q 699 413 699 296 l 699 557 q 645 736 699 674 q 496 799 592 799 q 347 736 400 799 q 293 557 293 674 l 293 413 q 347 233 293 296 q 496 171 400 171 m 288 1272 l 458 1357 l 596 1088 l 474 1028 l 288 1272 z "},"Ø":{"ha":992,"x_min":69,"x_max":922,"o":"m 496 -17 q 288 31 379 -17 l 214 -78 l 86 4 l 171 129 q 96 281 122 192 q 69 485 69 369 q 100 702 69 608 q 186 859 131 796 q 321 954 242 922 q 496 986 400 986 q 704 939 613 986 l 778 1047 l 906 965 l 821 840 q 896 689 869 778 q 922 485 922 600 q 892 267 922 361 q 806 110 861 174 q 671 15 750 47 q 496 -17 592 -17 m 283 408 q 300 293 283 343 l 610 785 q 496 814 564 814 q 340 749 396 814 q 283 561 283 683 l 283 408 m 708 561 q 692 676 708 626 l 382 185 q 496 156 428 156 q 652 221 596 156 q 708 408 708 286 l 708 561 z "},"Õ":{"ha":992,"x_min":69,"x_max":922,"o":"m 496 -17 q 321 15 400 -17 q 186 110 242 47 q 100 267 131 174 q 69 485 69 361 q 100 702 69 608 q 186 859 131 796 q 321 954 242 922 q 496 986 400 986 q 671 954 592 986 q 806 859 750 922 q 892 702 861 796 q 922 485 922 608 q 892 267 922 361 q 806 110 861 174 q 671 15 750 47 q 496 -17 592 -17 m 496 171 q 645 233 592 171 q 699 413 699 296 l 699 557 q 645 736 699 674 q 496 799 592 799 q 347 736 400 799 q 293 557 293 674 l 293 413 q 347 233 293 296 q 496 171 400 171 m 601 1058 q 545 1067 569 1058 q 494 1086 521 1075 q 439 1108 464 1099 q 386 1117 414 1117 q 344 1108 363 1117 q 304 1082 326 1100 l 232 1176 q 296 1240 257 1214 q 390 1265 335 1265 q 447 1257 422 1265 q 497 1238 471 1249 q 553 1216 528 1225 q 606 1207 578 1207 q 647 1215 629 1207 q 688 1242 665 1224 l 760 1147 q 696 1084 735 1110 q 601 1058 657 1058 z "},"Œ":{"ha":1386,"x_min":69,"x_max":1310,"o":"m 656 0 q 584 -12 625 -8 q 496 -17 543 -17 q 321 15 400 -17 q 186 110 242 47 q 100 267 131 174 q 69 485 69 361 q 100 702 69 608 q 186 859 131 796 q 321 954 242 922 q 496 986 400 986 q 667 969 589 986 l 1310 969 l 1310 782 l 860 782 l 860 583 l 1246 583 l 1246 397 l 860 397 l 860 188 l 1310 188 l 1310 0 l 656 0 m 496 171 q 649 183 578 171 l 649 785 q 574 795 613 792 q 496 799 536 799 q 347 736 401 799 q 293 557 293 674 l 293 413 q 347 233 293 296 q 496 171 401 171 z "},"Š":{"ha":867,"x_min":53,"x_max":799,"o":"m 421 -17 q 204 27 293 -17 q 53 140 115 71 l 192 281 q 435 169 290 169 q 550 201 513 169 q 588 286 588 233 q 565 353 588 326 q 475 390 543 381 l 379 403 q 153 496 225 422 q 82 692 82 569 q 107 811 82 757 q 178 904 132 865 q 292 965 225 943 q 446 986 360 986 q 639 951 556 986 q 782 850 722 917 l 642 708 q 558 774 607 749 q 433 800 508 800 q 328 775 363 800 q 293 706 293 750 q 320 633 293 656 q 408 601 347 611 l 504 586 q 726 494 654 563 q 799 299 799 425 q 774 171 799 229 q 701 71 749 113 q 582 6 653 29 q 421 -17 511 -17 m 344 1039 l 161 1260 l 263 1340 l 431 1181 l 599 1340 l 700 1260 l 517 1039 l 344 1039 z "},"ẞ":{"ha":1015,"x_min":107,"x_max":974,"o":"m 974 300 q 951 174 974 232 q 888 74 929 117 q 788 8 847 32 q 656 -17 729 -17 q 495 13 564 -17 q 381 93 426 42 l 513 228 q 574 177 542 196 q 656 158 607 158 q 733 190 704 158 q 761 267 761 222 l 761 317 q 731 390 761 361 q 628 419 700 419 l 494 419 l 494 582 l 675 792 l 318 792 l 318 0 l 107 0 l 107 969 l 885 969 l 885 776 l 713 576 l 713 571 q 801 551 756 568 q 885 502 847 535 q 949 419 924 469 q 974 300 974 369 z "},"Þ":{"ha":911,"x_min":107,"x_max":860,"o":"m 107 0 l 107 969 l 318 969 l 318 803 l 565 803 q 688 780 633 803 q 780 716 742 757 q 839 618 818 675 q 860 493 860 561 q 839 368 860 425 q 780 270 818 311 q 688 206 742 229 q 565 183 633 183 l 318 183 l 318 0 l 107 0 m 318 367 l 540 367 q 615 391 588 367 q 642 463 642 415 l 642 524 q 615 595 642 571 q 540 619 588 619 l 318 619 l 318 367 z "},"Ú":{"ha":964,"x_min":101,"x_max":863,"o":"m 307 969 l 307 375 q 347 222 307 272 q 482 171 388 171 q 617 222 576 171 q 657 375 657 272 l 657 969 l 863 969 l 863 397 q 842 212 863 290 q 776 83 822 133 q 658 8 731 32 q 482 -17 586 -17 q 306 8 378 -17 q 188 83 233 32 q 122 212 142 133 q 101 397 101 290 l 101 969 l 307 969 m 504 1028 l 382 1088 l 519 1357 l 690 1272 l 504 1028 z "},"Û":{"ha":964,"x_min":101,"x_max":863,"o":"m 307 969 l 307 375 q 347 222 307 272 q 482 171 388 171 q 617 222 576 171 q 657 375 657 272 l 657 969 l 863 969 l 863 397 q 842 212 863 290 q 776 83 822 133 q 658 8 731 32 q 482 -17 586 -17 q 306 8 378 -17 q 188 83 233 32 q 122 212 142 133 q 101 397 101 290 l 101 969 l 307 969 m 568 1328 l 751 1107 l 650 1026 l 482 1186 l 314 1026 l 213 1107 l 396 1328 l 568 1328 z "},"Ü":{"ha":964,"x_min":101,"x_max":863,"o":"m 307 969 l 307 375 q 347 222 307 272 q 482 171 388 171 q 617 222 576 171 q 657 375 657 272 l 657 969 l 863 969 l 863 397 q 842 212 863 290 q 776 83 822 133 q 658 8 731 32 q 482 -17 586 -17 q 306 8 378 -17 q 188 83 233 32 q 122 212 142 133 q 101 397 101 290 l 101 969 l 307 969 m 329 1057 q 242 1083 267 1057 q 218 1144 218 1108 l 218 1179 q 242 1241 218 1215 q 329 1267 267 1267 q 416 1241 392 1267 q 440 1179 440 1215 l 440 1144 q 416 1083 440 1108 q 329 1057 392 1057 m 635 1057 q 548 1083 572 1057 q 524 1144 524 1108 l 524 1179 q 548 1241 524 1215 q 635 1267 572 1267 q 722 1241 697 1267 q 746 1179 746 1215 l 746 1144 q 722 1083 746 1108 q 635 1057 697 1057 z "},"Ù":{"ha":964,"x_min":101,"x_max":863,"o":"m 307 969 l 307 375 q 347 222 307 272 q 482 171 388 171 q 617 222 576 171 q 657 375 657 272 l 657 969 l 863 969 l 863 397 q 842 212 863 290 q 776 83 822 133 q 658 8 731 32 q 482 -17 586 -17 q 306 8 378 -17 q 188 83 233 32 q 122 212 142 133 q 101 397 101 290 l 101 969 l 307 969 m 274 1272 l 444 1357 l 582 1088 l 460 1028 l 274 1272 z "},"Ý":{"ha":901,"x_min":13,"x_max":889,"o":"m 344 0 l 344 379 l 13 969 l 249 969 l 457 583 l 460 583 l 660 969 l 889 969 l 557 381 l 557 0 l 344 0 m 474 1028 l 351 1088 l 489 1357 l 660 1272 l 474 1028 z "},"Ÿ":{"ha":901,"x_min":13,"x_max":889,"o":"m 344 0 l 344 379 l 13 969 l 249 969 l 457 583 l 460 583 l 660 969 l 889 969 l 557 381 l 557 0 l 344 0 m 299 1057 q 212 1083 236 1057 q 188 1144 188 1108 l 188 1179 q 212 1241 188 1215 q 299 1267 236 1267 q 385 1241 361 1267 q 410 1179 410 1215 l 410 1144 q 385 1083 410 1108 q 299 1057 361 1057 m 604 1057 q 517 1083 542 1057 q 493 1144 493 1108 l 493 1179 q 517 1241 493 1215 q 604 1267 542 1267 q 691 1241 667 1267 q 715 1179 715 1215 l 715 1144 q 691 1083 715 1108 q 604 1057 667 1057 z "},"Ž":{"ha":843,"x_min":54,"x_max":789,"o":"m 789 0 l 54 0 l 54 188 l 532 782 l 78 782 l 78 969 l 778 969 l 778 782 l 299 188 l 789 188 l 789 0 m 335 1039 l 151 1260 l 253 1340 l 421 1181 l 589 1340 l 690 1260 l 507 1039 l 335 1039 z "},"µ":{"ha":836,"x_min":96,"x_max":740,"o":"m 96 -278 l 96 729 l 301 729 l 301 286 q 325 185 301 219 q 404 150 349 150 q 452 157 429 150 q 494 177 475 164 q 524 210 513 190 q 535 256 535 231 l 535 729 l 740 729 l 740 0 l 535 0 l 535 122 l 528 122 q 469 24 510 65 q 367 -17 429 -17 q 302 0 326 -17 q 267 42 278 17 l 260 42 l 301 -147 l 301 -278 l 96 -278 z "},"∆":{"ha":950,"x_min":68,"x_max":882,"o":"m 68 168 l 344 969 l 606 969 l 882 168 l 882 0 l 68 0 l 68 168 m 475 778 l 468 778 l 283 188 l 660 188 l 475 778 z "},"∏":{"ha":1008,"x_min":33,"x_max":975,"o":"m 172 -278 l 172 782 l 33 782 l 33 969 l 975 969 l 975 782 l 836 782 l 836 -278 l 625 -278 l 625 782 l 383 782 l 383 -278 l 172 -278 z "},"∑":{"ha":775,"x_min":68,"x_max":724,"o":"m 724 -278 l 68 -278 l 68 -82 l 367 343 l 367 349 l 68 774 l 68 969 l 724 969 l 724 782 l 296 782 l 565 415 l 565 276 l 296 -90 l 724 -90 l 724 -278 z "},"Ω":{"ha":1006,"x_min":69,"x_max":936,"o":"m 69 186 l 290 186 l 290 200 q 131 334 186 247 q 76 556 76 421 q 105 724 76 646 q 188 861 133 803 q 322 953 243 919 q 503 986 401 986 q 683 953 604 986 q 817 861 763 919 q 901 724 872 803 q 929 556 929 646 q 874 334 929 421 q 715 200 819 247 l 715 186 l 936 186 l 936 0 l 563 0 l 563 285 q 622 315 594 294 q 667 362 649 335 q 697 421 686 389 q 707 486 707 453 l 707 599 q 693 674 707 638 q 653 738 679 710 q 588 782 626 765 q 503 799 550 799 q 417 782 456 799 q 353 738 379 765 q 313 674 326 710 q 299 599 299 638 l 299 486 q 309 421 299 453 q 338 362 319 389 q 384 315 357 335 q 443 285 411 294 l 443 0 l 69 0 l 69 186 z "},"π":{"ha":910,"x_min":32,"x_max":863,"o":"m 731 160 l 822 160 l 822 0 l 742 0 q 580 54 635 0 q 525 213 525 108 l 525 569 l 349 569 l 349 0 l 143 0 l 143 569 l 32 569 l 32 729 l 863 729 l 863 569 l 731 569 l 731 160 z "},"⁰":{"ha":514,"x_min":35,"x_max":479,"o":"m 257 449 q 90 518 144 449 q 35 714 35 588 q 90 909 35 840 q 257 978 144 978 q 424 909 369 978 q 479 714 479 840 q 424 518 479 588 q 257 449 369 449 m 257 565 q 310 589 297 565 q 324 661 324 613 l 324 767 q 310 838 324 815 q 257 861 297 861 q 203 838 217 861 q 190 767 190 815 l 190 661 q 203 589 190 613 q 257 565 217 565 z "},"ء":{"ha":636,"x_min":35,"x_max":601,"o":"m 35 182 l 125 182 l 128 188 q 94 258 104 228 q 85 329 85 289 q 103 417 85 376 q 153 489 121 458 q 231 537 186 519 q 329 554 275 554 q 472 518 406 554 q 579 417 538 482 l 431 290 q 315 351 388 351 q 260 334 282 351 q 238 289 238 317 q 281 228 238 253 q 404 203 324 203 l 601 203 l 601 0 l 35 0 l 35 182 z "},"ﺀ":{"ha":636,"x_min":35,"x_max":601,"o":"m 35 182 l 125 182 l 128 188 q 94 258 104 228 q 85 329 85 289 q 103 417 85 376 q 153 489 121 458 q 231 537 186 519 q 329 554 275 554 q 472 518 406 554 q 579 417 538 482 l 431 290 q 315 351 388 351 q 260 334 282 351 q 238 289 238 317 q 281 228 238 253 q 404 203 324 203 l 601 203 l 601 0 l 35 0 l 35 182 z "},"۽":{"ha":636,"x_min":35,"x_max":601,"o":"m 35 182 l 125 182 l 128 188 q 94 258 104 228 q 85 329 85 289 q 103 417 85 376 q 153 489 121 458 q 231 537 186 519 q 329 554 275 554 q 472 518 406 554 q 579 417 538 482 l 431 290 q 315 351 388 351 q 260 334 282 351 q 238 289 238 317 q 281 228 238 253 q 404 203 324 203 l 601 203 l 601 0 l 35 0 l 35 182 m 201 -81 l 299 -81 l 299 -332 l 201 -332 l 201 -81 m 368 -81 l 465 -81 l 465 -332 l 368 -332 l 368 -81 z "},"ا":{"ha":333,"x_min":83,"x_max":250,"o":"m 83 1028 l 250 1028 l 250 0 l 83 0 l 83 1028 z "},"ﺍ":{"ha":333,"x_min":83,"x_max":250,"o":"m 83 1028 l 250 1028 l 250 0 l 83 0 l 83 1028 z "},"إ":{"ha":333,"x_min":18,"x_max":347,"o":"m 83 1028 l 250 1028 l 250 0 l 83 0 l 83 1028 m 18 -257 l 76 -257 l 78 -250 q 50 -176 50 -219 q 92 -80 50 -118 q 201 -42 135 -42 q 279 -58 242 -42 q 344 -104 317 -75 l 278 -197 q 201 -164 244 -164 q 163 -175 178 -164 q 149 -201 149 -186 q 244 -247 149 -247 l 347 -247 l 347 -369 l 18 -369 l 18 -257 z "},"ﺇ":{"ha":333,"x_min":18,"x_max":347,"o":"m 83 1028 l 250 1028 l 250 0 l 83 0 l 83 1028 m 18 -257 l 76 -257 l 78 -250 q 50 -176 50 -219 q 92 -80 50 -118 q 201 -42 135 -42 q 279 -58 242 -42 q 344 -104 317 -75 l 278 -197 q 201 -164 244 -164 q 163 -175 178 -164 q 149 -201 149 -186 q 244 -247 149 -247 l 347 -247 l 347 -369 l 18 -369 l 18 -257 z "},"ٳ":{"ha":333,"x_min":-44,"x_max":381,"o":"m 83 1028 l 250 1028 l 250 0 l 83 0 l 83 1028 m 53 -369 l 53 -419 l -44 -419 l -44 -369 q -21 -287 -44 -317 q 51 -257 3 -257 l 110 -257 l 111 -250 q 83 -176 83 -219 q 126 -80 83 -118 q 235 -42 168 -42 q 313 -58 275 -42 q 378 -104 350 -75 l 311 -197 q 235 -164 278 -164 q 197 -175 211 -164 q 182 -201 182 -186 q 278 -247 182 -247 l 381 -247 l 381 -369 l 53 -369 z "},"ٵ":{"ha":333,"x_min":83,"x_max":642,"o":"m 83 1028 l 250 1028 l 250 0 l 83 0 l 83 1028 m 313 903 l 371 903 l 372 910 q 344 983 344 940 q 387 1080 344 1042 q 496 1118 429 1118 q 574 1101 536 1118 q 639 1056 611 1085 l 572 963 q 496 996 539 996 q 458 985 472 996 q 443 958 443 974 q 539 913 443 913 l 642 913 l 642 790 l 313 790 l 313 903 z "},"ﺎ":{"ha":403,"x_min":83,"x_max":403,"o":"m 360 0 q 151 67 219 0 q 83 283 83 133 l 83 1028 l 250 1028 l 250 311 q 275 228 250 249 q 361 208 300 208 l 403 208 l 403 42 l 361 0 l 360 0 z "},"ﺈ":{"ha":403,"x_min":46,"x_max":403,"o":"m 360 0 q 151 67 219 0 q 83 283 83 133 l 83 1028 l 250 1028 l 250 311 q 275 228 250 249 q 361 208 300 208 l 403 208 l 403 42 l 361 0 l 360 0 m 46 -257 l 104 -257 l 106 -250 q 78 -176 78 -219 q 120 -80 78 -118 q 229 -42 163 -42 q 307 -58 269 -42 q 372 -104 344 -75 l 306 -197 q 229 -164 272 -164 q 191 -175 206 -164 q 176 -201 176 -186 q 272 -247 176 -247 l 375 -247 l 375 -369 l 46 -369 l 46 -257 z "},"أ":{"ha":361,"x_min":15,"x_max":344,"o":"m 97 858 l 264 858 l 264 0 l 97 0 l 97 858 m 15 1082 l 74 1082 l 75 1089 q 47 1163 47 1119 q 90 1259 47 1221 q 199 1297 132 1297 q 276 1281 239 1297 q 342 1235 314 1264 l 275 1142 q 199 1175 242 1175 q 160 1164 175 1175 q 146 1138 146 1153 q 242 1092 146 1092 l 344 1092 l 344 969 l 15 969 l 15 1082 z "},"ﺃ":{"ha":361,"x_min":15,"x_max":344,"o":"m 97 858 l 264 858 l 264 0 l 97 0 l 97 858 m 15 1082 l 74 1082 l 75 1089 q 47 1163 47 1119 q 90 1259 47 1221 q 199 1297 132 1297 q 276 1281 239 1297 q 342 1235 314 1264 l 275 1142 q 199 1175 242 1175 q 160 1164 175 1175 q 146 1138 146 1153 q 242 1092 146 1092 l 344 1092 l 344 969 l 15 969 l 15 1082 z "},"ٲ":{"ha":361,"x_min":-58,"x_max":367,"o":"m 97 858 l 264 858 l 264 0 l 97 0 l 97 858 m 39 969 l 39 919 l -58 919 l -58 969 q -35 1052 -58 1022 q 38 1082 -11 1082 l 96 1082 l 97 1089 q 69 1163 69 1119 q 112 1259 69 1221 q 221 1297 154 1297 q 299 1281 261 1297 q 364 1235 336 1264 l 297 1142 q 221 1175 264 1175 q 183 1164 197 1175 q 168 1138 168 1153 q 264 1092 168 1092 l 367 1092 l 367 969 l 39 969 z "},"آ":{"ha":361,"x_min":-40,"x_max":403,"o":"m 97 858 l 264 858 l 264 0 l 97 0 l 97 858 m -40 1014 q -8 1106 -40 1076 q 92 1122 25 1135 l 176 1106 q 223 1097 207 1099 q 249 1096 239 1096 q 296 1108 281 1096 q 322 1156 311 1121 l 403 1115 q 249 975 375 975 q 208 977 229 975 q 154 986 188 979 l 57 1004 l 57 964 l -40 964 l -40 1014 z "},"ﺁ":{"ha":361,"x_min":-40,"x_max":403,"o":"m 97 858 l 264 858 l 264 0 l 97 0 l 97 858 m -40 1014 q -8 1106 -40 1076 q 92 1122 25 1135 l 176 1106 q 223 1097 207 1099 q 249 1096 239 1096 q 296 1108 281 1096 q 322 1156 311 1121 l 403 1115 q 249 975 375 975 q 208 977 229 975 q 154 986 188 979 l 57 1004 l 57 964 l -40 964 l -40 1014 z "},"ٱ":{"ha":361,"x_min":-40,"x_max":408,"o":"m 97 858 l 264 858 l 264 0 l 97 0 l 97 858 m -40 1014 q -13 1100 -40 1071 q 67 1125 14 1129 l 71 1136 q 153 1260 103 1215 q 265 1304 204 1304 q 370 1264 332 1304 q 408 1150 408 1224 q 366 1021 408 1067 q 249 975 324 975 q 208 977 229 975 q 154 986 188 979 l 57 1004 l 57 964 l -40 964 l -40 1014 m 254 1182 q 196 1163 222 1182 q 151 1110 169 1144 l 176 1106 q 224 1097 207 1099 q 251 1096 240 1096 q 295 1106 279 1096 q 311 1139 311 1117 q 297 1170 311 1158 q 254 1182 282 1182 z "},"ﴽ":{"ha":361,"x_min":-11,"x_max":374,"o":"m 97 858 l 264 858 l 264 0 l 97 0 l 97 858 m 374 1117 l 29 958 l -11 1047 l 333 1207 l 374 1117 m 374 1328 l 29 1169 l -11 1258 l 333 1418 l 374 1328 z "},"ݳ":{"ha":361,"x_min":47,"x_max":342,"o":"m 97 858 l 264 858 l 264 0 l 97 0 l 97 858 m 149 1236 l 193 1236 q 241 1242 225 1236 q 257 1272 257 1249 q 253 1297 257 1281 q 239 1347 250 1313 l 326 1367 q 338 1314 333 1338 q 342 1267 342 1290 q 193 1124 342 1124 l 157 1124 l 168 969 l 75 969 l 47 1354 l 140 1354 l 149 1236 z "},"ݴ":{"ha":361,"x_min":29,"x_max":415,"o":"m 97 858 l 264 858 l 264 0 l 97 0 l 97 858 m 131 1243 l 151 1243 q 194 1285 194 1243 l 194 1318 l 279 1318 l 279 1285 q 283 1248 279 1261 q 306 1235 286 1235 q 326 1242 321 1235 q 331 1269 331 1250 q 325 1306 331 1285 q 310 1354 319 1326 l 397 1374 q 411 1317 407 1342 q 415 1264 415 1292 q 306 1121 415 1121 q 234 1144 258 1121 q 203 1214 210 1167 l 197 1214 q 181 1158 194 1182 q 138 1131 167 1135 l 150 969 l 57 969 l 29 1354 l 122 1354 l 131 1243 z "},"ﺄ":{"ha":389,"x_min":15,"x_max":389,"o":"m 347 0 q 159 63 221 1 q 97 256 97 125 l 97 858 l 264 858 l 264 283 q 283 225 264 242 q 347 208 301 208 l 389 208 l 389 42 l 347 0 m 15 1082 l 74 1082 l 75 1089 q 47 1163 47 1119 q 90 1259 47 1221 q 199 1297 132 1297 q 276 1281 239 1297 q 342 1235 314 1264 l 275 1142 q 199 1175 242 1175 q 160 1164 175 1175 q 146 1138 146 1153 q 242 1092 146 1092 l 344 1092 l 344 969 l 15 969 l 15 1082 z "},"ﺂ":{"ha":389,"x_min":-40,"x_max":403,"o":"m 347 0 q 159 63 221 1 q 97 256 97 125 l 97 858 l 264 858 l 264 283 q 283 225 264 242 q 347 208 301 208 l 389 208 l 389 42 l 347 0 m -40 1014 q -8 1106 -40 1076 q 92 1122 25 1135 l 176 1106 q 223 1097 207 1099 q 249 1096 239 1096 q 296 1108 281 1096 q 322 1156 311 1121 l 403 1115 q 249 975 375 975 q 208 977 229 975 q 154 986 188 979 l 57 1004 l 57 964 l -40 964 l -40 1014 z "},"ﭑ":{"ha":389,"x_min":-40,"x_max":408,"o":"m 347 0 q 159 63 221 1 q 97 256 97 125 l 97 858 l 264 858 l 264 283 q 283 225 264 242 q 347 208 301 208 l 389 208 l 389 42 l 347 0 m -40 1014 q -13 1100 -40 1071 q 67 1125 14 1129 l 71 1136 q 153 1260 103 1215 q 265 1304 204 1304 q 370 1264 332 1304 q 408 1150 408 1224 q 366 1021 408 1067 q 249 975 324 975 q 208 977 229 975 q 154 986 188 979 l 57 1004 l 57 964 l -40 964 l -40 1014 m 254 1182 q 196 1163 222 1182 q 151 1110 169 1144 l 176 1106 q 224 1097 207 1099 q 251 1096 240 1096 q 295 1106 279 1096 q 311 1139 311 1117 q 297 1170 311 1158 q 254 1182 282 1182 z "},"ﴼ":{"ha":389,"x_min":-11,"x_max":389,"o":"m 347 0 q 159 63 221 1 q 97 256 97 125 l 97 858 l 264 858 l 264 283 q 283 225 264 242 q 347 208 301 208 l 389 208 l 389 42 l 347 0 m 374 1117 l 29 958 l -11 1047 l 333 1207 l 374 1117 m 374 1328 l 29 1169 l -11 1258 l 333 1418 l 374 1328 z "},"ﺒ":{"ha":458,"x_min":-42,"x_max":458,"o":"m -42 167 l 0 208 l 42 208 q 153 306 153 208 l 153 504 l 306 504 l 306 306 q 403 208 306 208 l 458 208 l 458 42 l 417 0 q 248 45 306 0 q 171 188 190 90 l 163 188 q 96 45 143 90 q -42 0 49 0 l -42 167 m 215 -299 q 156 -276 179 -299 q 133 -206 133 -254 q 156 -135 133 -157 q 215 -112 179 -112 l 243 -112 q 302 -135 279 -112 q 325 -206 325 -157 q 302 -276 325 -254 q 243 -299 279 -299 l 215 -299 z "},"ﭙ":{"ha":458,"x_min":-42,"x_max":458,"o":"m -42 167 l 0 208 l 42 208 q 153 306 153 208 l 153 504 l 306 504 l 306 306 q 403 208 306 208 l 458 208 l 458 42 l 417 0 q 248 45 306 0 q 171 188 190 90 l 163 188 q 96 45 143 90 q -42 0 49 0 l -42 167 m 325 -299 q 266 -276 289 -299 q 243 -206 243 -254 q 266 -135 243 -157 q 325 -112 289 -112 l 353 -112 q 412 -135 389 -112 q 435 -206 435 -157 q 412 -276 435 -254 q 353 -299 389 -299 l 325 -299 m 215 -501 q 156 -479 179 -501 q 133 -408 133 -457 q 156 -337 133 -360 q 215 -315 179 -315 l 243 -315 q 302 -337 279 -315 q 325 -408 325 -360 q 302 -479 325 -457 q 243 -501 279 -501 l 215 -501 m 106 -299 q 47 -276 69 -299 q 24 -206 24 -254 q 47 -135 24 -157 q 106 -112 69 -112 l 133 -112 q 192 -135 169 -112 q 215 -206 215 -157 q 192 -276 215 -254 q 133 -299 169 -299 l 106 -299 z "},"ﭕ":{"ha":458,"x_min":-42,"x_max":458,"o":"m -42 167 l 0 208 l 42 208 q 153 306 153 208 l 153 504 l 306 504 l 306 306 q 403 208 306 208 l 458 208 l 458 42 l 417 0 q 248 45 306 0 q 171 188 190 90 l 163 188 q 96 45 143 90 q -42 0 49 0 l -42 167 m 217 -471 q 158 -449 181 -471 q 135 -378 135 -426 q 158 -307 135 -329 q 217 -285 181 -285 l 244 -285 q 303 -307 281 -285 q 326 -378 326 -329 q 303 -449 326 -426 q 244 -471 281 -471 l 217 -471 m 217 -257 q 158 -235 181 -257 q 135 -164 135 -212 q 158 -93 135 -115 q 217 -71 181 -71 l 244 -71 q 303 -93 281 -71 q 326 -164 326 -115 q 303 -235 326 -212 q 244 -257 281 -257 l 217 -257 z "},"ﭝ":{"ha":458,"x_min":-42,"x_max":458,"o":"m -42 167 l 0 208 l 42 208 q 153 306 153 208 l 153 504 l 306 504 l 306 306 q 403 208 306 208 l 458 208 l 458 42 l 417 0 q 248 45 306 0 q 171 188 190 90 l 163 188 q 96 45 143 90 q -42 0 49 0 l -42 167 m 325 -471 q 266 -449 289 -471 q 243 -378 243 -426 q 266 -307 243 -329 q 325 -285 289 -285 l 353 -285 q 412 -307 389 -285 q 435 -378 435 -329 q 412 -449 435 -426 q 353 -471 389 -471 l 325 -471 m 325 -257 q 266 -235 289 -257 q 243 -164 243 -212 q 266 -93 243 -115 q 325 -71 289 -71 l 353 -71 q 412 -93 389 -71 q 435 -164 435 -115 q 412 -235 435 -212 q 353 -257 389 -257 l 325 -257 m 106 -471 q 47 -449 69 -471 q 24 -378 24 -426 q 47 -307 24 -329 q 106 -285 69 -285 l 133 -285 q 192 -307 169 -285 q 215 -378 215 -329 q 192 -449 215 -426 q 133 -471 169 -471 l 106 -471 m 106 -257 q 47 -235 69 -257 q 24 -164 24 -212 q 47 -93 24 -115 q 106 -71 69 -71 l 133 -71 q 192 -93 169 -71 q 215 -164 215 -115 q 192 -235 215 -212 q 133 -257 169 -257 l 106 -257 z "},"ﯩ":{"ha":458,"x_min":-42,"x_max":458,"o":"m -42 167 l 0 208 l 42 208 q 153 306 153 208 l 153 504 l 306 504 l 306 306 q 403 208 306 208 l 458 208 l 458 42 l 417 0 q 248 45 306 0 q 171 188 190 90 l 163 188 q 96 45 143 90 q -42 0 49 0 l -42 167 z "},"ﺘ":{"ha":458,"x_min":-42,"x_max":458,"o":"m -42 167 l 0 208 l 42 208 q 153 306 153 208 l 153 504 l 306 504 l 306 306 q 403 208 306 208 l 458 208 l 458 42 l 417 0 q 248 45 306 0 q 171 188 190 90 l 163 188 q 96 45 143 90 q -42 0 49 0 l -42 167 m 325 615 q 266 638 289 615 q 243 708 243 660 q 266 779 243 757 q 325 801 289 801 l 353 801 q 412 779 389 801 q 435 708 435 757 q 412 638 435 660 q 353 615 389 615 l 325 615 m 106 615 q 47 638 69 615 q 24 708 24 660 q 47 779 24 757 q 106 801 69 801 l 133 801 q 192 779 169 801 q 215 708 215 757 q 192 638 215 660 q 133 615 169 615 l 106 615 z "},"ﺜ":{"ha":458,"x_min":-42,"x_max":458,"o":"m -42 167 l 0 208 l 42 208 q 153 306 153 208 l 153 504 l 306 504 l 306 306 q 403 208 306 208 l 458 208 l 458 42 l 417 0 q 248 45 306 0 q 171 188 190 90 l 163 188 q 96 45 143 90 q -42 0 49 0 l -42 167 m 325 615 q 266 638 289 615 q 243 708 243 660 q 266 779 243 757 q 325 801 289 801 l 353 801 q 412 779 389 801 q 435 708 435 757 q 412 638 435 660 q 353 615 389 615 l 325 615 m 106 615 q 47 638 69 615 q 24 708 24 660 q 47 779 24 757 q 106 801 69 801 l 133 801 q 192 779 169 801 q 215 708 215 757 q 192 638 215 660 q 133 615 169 615 l 106 615 m 215 818 q 156 840 179 818 q 133 911 133 863 q 156 982 133 960 q 215 1004 179 1004 l 243 1004 q 302 982 279 1004 q 325 911 325 960 q 302 840 325 863 q 243 818 279 818 l 215 818 z "},"ﭩ":{"ha":458,"x_min":-42,"x_max":458,"o":"m -42 167 l 0 208 l 42 208 q 153 306 153 208 l 153 504 l 306 504 l 306 306 q 403 208 306 208 l 458 208 l 458 42 l 417 0 q 248 45 306 0 q 171 188 190 90 l 163 188 q 96 45 143 90 q -42 0 49 0 l -42 167 m 31 726 l 85 726 l 94 742 l 94 1013 l 192 1013 l 192 875 q 286 901 229 901 q 392 858 357 901 q 426 756 426 815 q 390 649 426 682 q 276 615 354 615 l 31 615 l 31 726 m 158 731 l 160 726 l 276 726 q 354 756 354 726 q 339 780 354 771 q 296 789 324 789 l 264 789 q 200 779 219 789 q 165 743 181 769 l 158 731 z "},"ﭡ":{"ha":458,"x_min":-42,"x_max":458,"o":"m -42 167 l 0 208 l 42 208 q 153 306 153 208 l 153 504 l 306 504 l 306 306 q 403 208 306 208 l 458 208 l 458 42 l 417 0 q 248 45 306 0 q 171 188 190 90 l 163 188 q 96 45 143 90 q -42 0 49 0 l -42 167 m 217 615 q 158 638 181 615 q 135 708 135 660 q 158 779 135 757 q 217 801 181 801 l 244 801 q 303 779 281 801 q 326 708 326 757 q 303 638 326 660 q 244 615 281 615 l 217 615 m 217 829 q 158 851 181 829 q 135 922 135 874 q 158 993 135 971 q 217 1015 181 1015 l 244 1015 q 303 993 281 1015 q 326 922 326 971 q 303 851 326 874 q 244 829 281 829 l 217 829 z "},"ﭥ":{"ha":458,"x_min":-42,"x_max":458,"o":"m -42 167 l 0 208 l 42 208 q 153 306 153 208 l 153 504 l 306 504 l 306 306 q 403 208 306 208 l 458 208 l 458 42 l 417 0 q 248 45 306 0 q 171 188 190 90 l 163 188 q 96 45 143 90 q -42 0 49 0 l -42 167 m 325 615 q 266 638 289 615 q 243 708 243 660 q 266 779 243 757 q 325 801 289 801 l 353 801 q 412 779 389 801 q 435 708 435 757 q 412 638 435 660 q 353 615 389 615 l 325 615 m 325 829 q 266 851 289 829 q 243 922 243 874 q 266 993 243 971 q 325 1015 289 1015 l 353 1015 q 412 993 389 1015 q 435 922 435 971 q 412 851 435 874 q 353 829 389 829 l 325 829 m 106 615 q 47 638 69 615 q 24 708 24 660 q 47 779 24 757 q 106 801 69 801 l 133 801 q 192 779 169 801 q 215 708 215 757 q 192 638 215 660 q 133 615 169 615 l 106 615 m 106 829 q 47 851 69 829 q 24 922 24 874 q 47 993 24 971 q 106 1015 69 1015 l 133 1015 q 192 993 169 1015 q 215 922 215 971 q 192 851 215 874 q 133 829 169 829 l 106 829 z "},"ﻨ":{"ha":458,"x_min":-42,"x_max":458,"o":"m -42 167 l 0 208 l 42 208 q 153 306 153 208 l 153 504 l 306 504 l 306 306 q 403 208 306 208 l 458 208 l 458 42 l 417 0 q 248 45 306 0 q 171 188 190 90 l 163 188 q 96 45 143 90 q -42 0 49 0 l -42 167 m 215 615 q 156 638 179 615 q 133 708 133 660 q 156 779 133 757 q 215 801 179 801 l 243 801 q 302 779 279 801 q 325 708 325 757 q 302 638 325 660 q 243 615 279 615 l 215 615 z "},"ﻴ":{"ha":458,"x_min":-42,"x_max":458,"o":"m -42 167 l 0 208 l 42 208 q 153 306 153 208 l 153 504 l 306 504 l 306 306 q 403 208 306 208 l 458 208 l 458 42 l 417 0 q 248 45 306 0 q 171 188 190 90 l 163 188 q 96 45 143 90 q -42 0 49 0 l -42 167 m 325 -299 q 266 -276 289 -299 q 243 -206 243 -254 q 266 -135 243 -157 q 325 -112 289 -112 l 353 -112 q 412 -135 389 -112 q 435 -206 435 -157 q 412 -276 435 -254 q 353 -299 389 -299 l 325 -299 m 106 -299 q 47 -276 69 -299 q 24 -206 24 -254 q 47 -135 24 -157 q 106 -112 69 -112 l 133 -112 q 192 -135 169 -112 q 215 -206 215 -157 q 192 -276 215 -254 q 133 -299 169 -299 l 106 -299 z "},"ﺌ":{"ha":458,"x_min":-42,"x_max":458,"o":"m -42 167 l 0 208 l 42 208 q 153 306 153 208 l 153 504 l 306 504 l 306 306 q 403 208 306 208 l 458 208 l 458 42 l 417 0 q 248 45 306 0 q 171 188 190 90 l 163 188 q 96 45 143 90 q -42 0 49 0 l -42 167 m 64 728 l 122 728 l 124 735 q 96 808 96 765 q 138 905 96 867 q 247 943 181 943 q 325 926 288 943 q 390 881 363 910 l 324 788 q 247 821 290 821 q 209 810 224 821 q 194 783 194 799 q 290 738 194 738 l 393 738 l 393 615 l 64 615 l 64 728 z "},"ﯿ":{"ha":458,"x_min":-42,"x_max":458,"o":"m -42 167 l 0 208 l 42 208 q 153 306 153 208 l 153 504 l 306 504 l 306 306 q 403 208 306 208 l 458 208 l 458 42 l 417 0 q 248 45 306 0 q 171 188 190 90 l 163 188 q 96 45 143 90 q -42 0 49 0 l -42 167 m 325 -299 q 266 -276 289 -299 q 243 -206 243 -254 q 266 -135 243 -157 q 325 -112 289 -112 l 353 -112 q 412 -135 389 -112 q 435 -206 435 -157 q 412 -276 435 -254 q 353 -299 389 -299 l 325 -299 m 106 -299 q 47 -276 69 -299 q 24 -206 24 -254 q 47 -135 24 -157 q 106 -112 69 -112 l 133 -112 q 192 -135 169 -112 q 215 -206 215 -157 q 192 -276 215 -254 q 133 -299 169 -299 l 106 -299 z "},"ﯧ":{"ha":458,"x_min":-42,"x_max":458,"o":"m -42 167 l 0 208 l 42 208 q 153 306 153 208 l 153 504 l 306 504 l 306 306 q 403 208 306 208 l 458 208 l 458 42 l 417 0 q 248 45 306 0 q 171 188 190 90 l 163 188 q 96 45 143 90 q -42 0 49 0 l -42 167 m 217 -471 q 158 -449 181 -471 q 135 -378 135 -426 q 158 -307 135 -329 q 217 -285 181 -285 l 244 -285 q 303 -307 281 -285 q 326 -378 326 -329 q 303 -449 326 -426 q 244 -471 281 -471 l 217 -471 m 217 -257 q 158 -235 181 -257 q 135 -164 135 -212 q 158 -93 135 -115 q 217 -71 181 -71 l 244 -71 q 303 -93 281 -71 q 326 -164 326 -115 q 303 -235 326 -212 q 244 -257 281 -257 l 217 -257 z "},"ﺴ":{"ha":1176,"x_min":-42,"x_max":1176,"o":"m -42 167 l 0 208 l 1 208 q 100 224 67 208 q 153 281 133 240 l 207 393 l 344 326 l 296 224 q 364 199 329 208 q 435 189 399 189 q 521 215 494 189 q 547 306 547 240 l 547 393 l 700 393 l 700 306 q 717 221 700 247 q 778 194 733 194 l 792 194 q 849 221 828 194 q 871 306 871 247 l 871 449 l 1024 449 l 1024 306 q 1121 208 1024 208 l 1176 208 l 1176 42 l 1135 0 q 974 42 1029 0 q 904 176 919 85 l 896 176 q 846 30 888 76 q 735 -17 804 -17 q 621 30 661 -17 q 565 176 581 76 l 557 176 q 508 30 546 76 q 407 -17 469 -17 q 327 -2 367 -17 q 224 50 288 13 l 196 67 q 98 13 153 26 q -42 0 43 0 l -42 167 z "},"ﺸ":{"ha":1176,"x_min":-42,"x_max":1176,"o":"m -42 167 l 0 208 l 1 208 q 100 224 67 208 q 153 281 133 240 l 207 393 l 344 326 l 296 224 q 364 199 329 208 q 435 189 399 189 q 521 215 494 189 q 547 306 547 240 l 547 393 l 700 393 l 700 306 q 717 221 700 247 q 778 194 733 194 l 792 194 q 849 221 828 194 q 871 306 871 247 l 871 449 l 1024 449 l 1024 306 q 1121 208 1024 208 l 1176 208 l 1176 42 l 1135 0 q 974 42 1029 0 q 904 176 919 85 l 896 176 q 846 30 888 76 q 735 -17 804 -17 q 621 30 661 -17 q 565 176 581 76 l 557 176 q 508 30 546 76 q 407 -17 469 -17 q 327 -2 367 -17 q 224 50 288 13 l 196 67 q 98 13 153 26 q -42 0 43 0 l -42 167 m 719 504 q 660 526 683 504 q 638 597 638 549 q 660 668 638 646 q 719 690 683 690 l 747 690 q 806 668 783 690 q 829 597 829 646 q 806 526 829 549 q 747 504 783 504 l 719 504 m 500 504 q 441 526 464 504 q 418 597 418 549 q 441 668 418 646 q 500 690 464 690 l 528 690 q 587 668 564 690 q 610 597 610 646 q 587 526 610 549 q 528 504 564 504 l 500 504 m 610 707 q 551 729 574 707 q 528 800 528 751 q 551 871 528 849 q 610 893 574 893 l 638 893 q 697 871 674 893 q 719 800 719 849 q 697 729 719 751 q 638 707 674 707 l 610 707 z "},"ﺳ":{"ha":1043,"x_min":-42,"x_max":1001,"o":"m -42 167 l 0 208 l 1 208 q 101 224 68 208 q 153 281 133 240 l 207 393 l 344 326 l 296 225 q 364 199 329 210 q 435 189 399 189 q 521 215 494 189 q 547 306 547 240 l 547 393 l 700 393 l 700 306 q 720 221 700 247 q 775 194 740 194 l 789 194 q 836 216 818 194 q 854 285 854 238 q 850 334 854 304 q 839 407 846 364 l 826 478 l 978 503 l 989 432 q 999 356 996 392 q 1001 285 1001 321 q 948 56 1001 129 q 782 -17 894 -17 q 633 31 683 -17 q 565 176 583 78 l 557 176 q 508 30 546 76 q 407 -17 469 -17 q 327 -2 367 -17 q 224 50 288 13 l 194 67 q 97 13 151 25 q -42 0 42 0 l -42 167 z "},"ﺷ":{"ha":1043,"x_min":-42,"x_max":1001,"o":"m -42 167 l 0 208 l 1 208 q 101 224 68 208 q 153 281 133 240 l 207 393 l 344 326 l 296 225 q 364 199 329 210 q 435 189 399 189 q 521 215 494 189 q 547 306 547 240 l 547 393 l 700 393 l 700 306 q 720 221 700 247 q 775 194 740 194 l 789 194 q 836 216 818 194 q 854 285 854 238 q 850 334 854 304 q 839 407 846 364 l 826 478 l 978 503 l 989 432 q 999 356 996 392 q 1001 285 1001 321 q 948 56 1001 129 q 782 -17 894 -17 q 633 31 683 -17 q 565 176 583 78 l 557 176 q 508 30 546 76 q 407 -17 469 -17 q 327 -2 367 -17 q 224 50 288 13 l 194 67 q 97 13 151 25 q -42 0 42 0 l -42 167 m 719 504 q 660 526 683 504 q 638 597 638 549 q 660 668 638 646 q 719 690 683 690 l 747 690 q 806 668 783 690 q 829 597 829 646 q 806 526 829 549 q 747 504 783 504 l 719 504 m 500 504 q 441 526 464 504 q 418 597 418 549 q 441 668 418 646 q 500 690 464 690 l 528 690 q 587 668 564 690 q 610 597 610 646 q 587 526 610 549 q 528 504 564 504 l 500 504 m 610 707 q 551 729 574 707 q 528 800 528 751 q 551 871 528 849 q 610 893 574 893 l 638 893 q 697 871 674 893 q 719 800 719 849 q 697 729 719 751 q 638 707 674 707 l 610 707 z "},"ﻠ":{"ha":458,"x_min":-42,"x_max":458,"o":"m -42 167 l 0 208 l 35 208 q 146 306 146 208 l 146 1028 l 313 1028 l 313 306 q 410 208 313 208 l 458 208 l 458 42 l 417 0 q 243 45 303 0 q 164 188 183 90 l 156 188 q 92 45 138 90 q -42 0 46 0 l -42 167 z "},"ﺑ":{"ha":400,"x_min":-42,"x_max":358,"o":"m -42 167 l 0 208 l 40 208 q 123 213 90 208 q 176 227 156 217 q 203 253 196 238 q 211 293 211 269 q 208 347 211 314 q 194 432 204 379 l 171 561 l 322 586 l 343 457 q 354 374 350 419 q 358 293 358 328 q 284 71 358 142 q 40 0 210 0 l -42 0 l -42 167 m 201 -299 q 142 -276 165 -299 q 119 -206 119 -254 q 142 -135 119 -157 q 201 -112 165 -112 l 229 -112 q 288 -135 265 -112 q 311 -206 311 -157 q 288 -276 311 -254 q 229 -299 265 -299 l 201 -299 z "},"ﭘ":{"ha":400,"x_min":-42,"x_max":422,"o":"m -42 167 l 0 208 l 40 208 q 123 213 90 208 q 176 227 156 217 q 203 253 196 238 q 211 293 211 269 q 208 347 211 314 q 194 432 204 379 l 171 561 l 322 586 l 343 457 q 354 374 350 419 q 358 293 358 328 q 284 71 358 142 q 40 0 210 0 l -42 0 l -42 167 m 313 -299 q 253 -276 276 -299 q 231 -206 231 -254 q 253 -135 231 -157 q 313 -112 276 -112 l 340 -112 q 399 -135 376 -112 q 422 -206 422 -157 q 399 -276 422 -254 q 340 -299 376 -299 l 313 -299 m 203 -501 q 144 -479 167 -501 q 121 -408 121 -457 q 144 -337 121 -360 q 203 -315 167 -315 l 231 -315 q 290 -337 267 -315 q 313 -408 313 -360 q 290 -479 313 -457 q 231 -501 267 -501 l 203 -501 m 93 -299 q 34 -276 57 -299 q 11 -206 11 -254 q 34 -135 11 -157 q 93 -112 57 -112 l 121 -112 q 180 -135 157 -112 q 203 -206 203 -157 q 180 -276 203 -254 q 121 -299 157 -299 l 93 -299 z "},"ﭔ":{"ha":400,"x_min":-42,"x_max":358,"o":"m -42 167 l 0 208 l 40 208 q 123 213 90 208 q 176 227 156 217 q 203 253 196 238 q 211 293 211 269 q 208 347 211 314 q 194 432 204 379 l 171 561 l 322 586 l 343 457 q 354 374 350 419 q 358 293 358 328 q 284 71 358 142 q 40 0 210 0 l -42 0 l -42 167 m 203 -471 q 144 -449 167 -471 q 121 -378 121 -426 q 144 -307 121 -329 q 203 -285 167 -285 l 231 -285 q 290 -307 267 -285 q 313 -378 313 -329 q 290 -449 313 -426 q 231 -471 267 -471 l 203 -471 m 203 -257 q 144 -235 167 -257 q 121 -164 121 -212 q 144 -93 121 -115 q 203 -71 167 -71 l 231 -71 q 290 -93 267 -71 q 313 -164 313 -115 q 290 -235 313 -212 q 231 -257 267 -257 l 203 -257 z "},"ﭜ":{"ha":400,"x_min":-42,"x_max":422,"o":"m -42 167 l 0 208 l 40 208 q 123 213 90 208 q 176 227 156 217 q 203 253 196 238 q 211 293 211 269 q 208 347 211 314 q 194 432 204 379 l 171 561 l 322 586 l 343 457 q 354 374 350 419 q 358 293 358 328 q 284 71 358 142 q 40 0 210 0 l -42 0 l -42 167 m 313 -471 q 253 -449 276 -471 q 231 -378 231 -426 q 253 -307 231 -329 q 313 -285 276 -285 l 340 -285 q 399 -307 376 -285 q 422 -378 422 -329 q 399 -449 422 -426 q 340 -471 376 -471 l 313 -471 m 313 -257 q 253 -235 276 -257 q 231 -164 231 -212 q 253 -93 231 -115 q 313 -71 276 -71 l 340 -71 q 399 -93 376 -71 q 422 -164 422 -115 q 399 -235 422 -212 q 340 -257 376 -257 l 313 -257 m 93 -471 q 34 -449 57 -471 q 11 -378 11 -426 q 34 -307 11 -329 q 93 -285 57 -285 l 121 -285 q 180 -307 157 -285 q 203 -378 203 -329 q 180 -449 203 -426 q 121 -471 157 -471 l 93 -471 m 93 -257 q 34 -235 57 -257 q 11 -164 11 -212 q 34 -93 11 -115 q 93 -71 57 -71 l 121 -71 q 180 -93 157 -71 q 203 -164 203 -115 q 180 -235 203 -212 q 121 -257 157 -257 l 93 -257 z "},"ﯨ":{"ha":400,"x_min":-42,"x_max":358,"o":"m -42 167 l 0 208 l 40 208 q 123 213 90 208 q 176 227 156 217 q 203 253 196 238 q 211 293 211 269 q 208 347 211 314 q 194 432 204 379 l 171 561 l 322 586 l 343 457 q 354 374 350 419 q 358 293 358 328 q 284 71 358 142 q 40 0 210 0 l -42 0 l -42 167 z "},"ﺗ":{"ha":400,"x_min":-42,"x_max":431,"o":"m -42 167 l 0 208 l 40 208 q 123 213 90 208 q 176 227 156 217 q 203 253 196 238 q 211 293 211 269 q 208 347 211 314 q 194 432 204 379 l 171 561 l 322 586 l 343 457 q 354 374 350 419 q 358 293 358 328 q 284 71 358 142 q 40 0 210 0 l -42 0 l -42 167 m 321 697 q 262 719 285 697 q 239 790 239 742 q 262 861 239 839 q 321 883 285 883 l 349 883 q 408 861 385 883 q 431 790 431 839 q 408 719 431 742 q 349 697 385 697 l 321 697 m 101 697 q 42 719 65 697 q 19 790 19 742 q 42 861 19 839 q 101 883 65 883 l 129 883 q 188 861 165 883 q 211 790 211 839 q 188 719 211 742 q 129 697 165 697 l 101 697 z "},"ﺛ":{"ha":400,"x_min":-42,"x_max":431,"o":"m -42 167 l 0 208 l 40 208 q 123 213 90 208 q 176 227 156 217 q 203 253 196 238 q 211 293 211 269 q 208 347 211 314 q 194 432 204 379 l 171 561 l 322 586 l 343 457 q 354 374 350 419 q 358 293 358 328 q 284 71 358 142 q 40 0 210 0 l -42 0 l -42 167 m 321 697 q 262 719 285 697 q 239 790 239 742 q 262 861 239 839 q 321 883 285 883 l 349 883 q 408 861 385 883 q 431 790 431 839 q 408 719 431 742 q 349 697 385 697 l 321 697 m 101 697 q 42 719 65 697 q 19 790 19 742 q 42 861 19 839 q 101 883 65 883 l 129 883 q 188 861 165 883 q 211 790 211 839 q 188 719 211 742 q 129 697 165 697 l 101 697 m 211 900 q 152 922 175 900 q 129 993 129 944 q 152 1064 129 1042 q 211 1086 175 1086 l 239 1086 q 298 1064 275 1086 q 321 993 321 1042 q 298 922 321 944 q 239 900 275 900 l 211 900 z "},"ﭨ":{"ha":400,"x_min":-42,"x_max":424,"o":"m -42 167 l 0 208 l 40 208 q 123 213 90 208 q 176 227 156 217 q 203 253 196 238 q 211 293 211 269 q 208 347 211 314 q 194 432 204 379 l 171 561 l 322 586 l 343 457 q 354 374 350 419 q 358 293 358 328 q 284 71 358 142 q 40 0 210 0 l -42 0 l -42 167 m 28 808 l 82 808 l 92 824 l 92 1094 l 189 1094 l 189 957 q 283 983 226 983 q 389 940 354 983 q 424 838 424 897 q 388 731 424 764 q 274 697 351 697 l 28 697 l 28 808 m 156 813 l 157 808 l 274 808 q 351 838 351 808 q 336 862 351 853 q 293 871 321 871 l 261 871 q 197 861 217 871 q 163 825 178 851 l 156 813 z "},"ﭠ":{"ha":400,"x_min":-42,"x_max":358,"o":"m -42 167 l 0 208 l 40 208 q 123 213 90 208 q 176 227 156 217 q 203 253 196 238 q 211 293 211 269 q 208 347 211 314 q 194 432 204 379 l 171 561 l 322 586 l 343 457 q 354 374 350 419 q 358 293 358 328 q 284 71 358 142 q 40 0 210 0 l -42 0 l -42 167 m 213 697 q 153 719 176 697 q 131 790 131 742 q 153 861 131 839 q 213 883 176 883 l 240 883 q 299 861 276 883 q 322 790 322 839 q 299 719 322 742 q 240 697 276 697 l 213 697 m 213 911 q 153 933 176 911 q 131 1004 131 956 q 153 1075 131 1053 q 213 1097 176 1097 l 240 1097 q 299 1075 276 1097 q 322 1004 322 1053 q 299 933 322 956 q 240 911 276 911 l 213 911 z "},"ﭤ":{"ha":400,"x_min":-42,"x_max":431,"o":"m -42 167 l 0 208 l 40 208 q 123 213 90 208 q 176 227 156 217 q 203 253 196 238 q 211 293 211 269 q 208 347 211 314 q 194 432 204 379 l 171 561 l 322 586 l 343 457 q 354 374 350 419 q 358 293 358 328 q 284 71 358 142 q 40 0 210 0 l -42 0 l -42 167 m 321 697 q 262 719 285 697 q 239 790 239 742 q 262 861 239 839 q 321 883 285 883 l 349 883 q 408 861 385 883 q 431 790 431 839 q 408 719 431 742 q 349 697 385 697 l 321 697 m 321 911 q 262 933 285 911 q 239 1004 239 956 q 262 1075 239 1053 q 321 1097 285 1097 l 349 1097 q 408 1075 385 1097 q 431 1004 431 1053 q 408 933 431 956 q 349 911 385 911 l 321 911 m 101 697 q 42 719 65 697 q 19 790 19 742 q 42 861 19 839 q 101 883 65 883 l 129 883 q 188 861 165 883 q 211 790 211 839 q 188 719 211 742 q 129 697 165 697 l 101 697 m 101 911 q 42 933 65 911 q 19 1004 19 956 q 42 1075 19 1053 q 101 1097 65 1097 l 129 1097 q 188 1075 165 1097 q 211 1004 211 1053 q 188 933 211 956 q 129 911 165 911 l 101 911 z "},"ﻧ":{"ha":400,"x_min":-42,"x_max":358,"o":"m -42 167 l 0 208 l 40 208 q 123 213 90 208 q 176 227 156 217 q 203 253 196 238 q 211 293 211 269 q 208 347 211 314 q 194 432 204 379 l 171 561 l 322 586 l 343 457 q 354 374 350 419 q 358 293 358 328 q 284 71 358 142 q 40 0 210 0 l -42 0 l -42 167 m 211 697 q 152 719 175 697 q 129 790 129 742 q 152 861 129 839 q 211 883 175 883 l 239 883 q 298 861 275 883 q 321 790 321 839 q 298 719 321 742 q 239 697 275 697 l 211 697 z "},"ﻳ":{"ha":400,"x_min":-42,"x_max":422,"o":"m -42 167 l 0 208 l 40 208 q 123 213 90 208 q 176 227 156 217 q 203 253 196 238 q 211 293 211 269 q 208 347 211 314 q 194 432 204 379 l 171 561 l 322 586 l 343 457 q 354 374 350 419 q 358 293 358 328 q 284 71 358 142 q 40 0 210 0 l -42 0 l -42 167 m 313 -299 q 253 -276 276 -299 q 231 -206 231 -254 q 253 -135 231 -157 q 313 -112 276 -112 l 340 -112 q 399 -135 376 -112 q 422 -206 422 -157 q 399 -276 422 -254 q 340 -299 376 -299 l 313 -299 m 93 -299 q 34 -276 57 -299 q 11 -206 11 -254 q 34 -135 11 -157 q 93 -112 57 -112 l 121 -112 q 180 -135 157 -112 q 203 -206 203 -157 q 180 -276 203 -254 q 121 -299 157 -299 l 93 -299 z "},"ﺋ":{"ha":400,"x_min":-42,"x_max":389,"o":"m -42 167 l 0 208 l 40 208 q 123 213 90 208 q 176 227 156 217 q 203 253 196 238 q 211 293 211 269 q 208 347 211 314 q 194 432 204 379 l 171 561 l 322 586 l 343 457 q 354 374 350 419 q 358 293 358 328 q 284 71 358 142 q 40 0 210 0 l -42 0 l -42 167 m 60 810 l 118 810 l 119 817 q 92 890 92 847 q 134 987 92 949 q 243 1025 176 1025 q 321 1008 283 1025 q 386 963 358 992 l 319 869 q 243 903 286 903 q 205 892 219 903 q 190 865 190 881 q 286 819 190 819 l 389 819 l 389 697 l 60 697 l 60 810 z "},"ﯾ":{"ha":400,"x_min":-42,"x_max":422,"o":"m -42 167 l 0 208 l 40 208 q 123 213 90 208 q 176 227 156 217 q 203 253 196 238 q 211 293 211 269 q 208 347 211 314 q 194 432 204 379 l 171 561 l 322 586 l 343 457 q 354 374 350 419 q 358 293 358 328 q 284 71 358 142 q 40 0 210 0 l -42 0 l -42 167 m 313 -299 q 253 -276 276 -299 q 231 -206 231 -254 q 253 -135 231 -157 q 313 -112 276 -112 l 340 -112 q 399 -135 376 -112 q 422 -206 422 -157 q 399 -276 422 -254 q 340 -299 376 -299 l 313 -299 m 93 -299 q 34 -276 57 -299 q 11 -206 11 -254 q 34 -135 11 -157 q 93 -112 57 -112 l 121 -112 q 180 -135 157 -112 q 203 -206 203 -157 q 180 -276 203 -254 q 121 -299 157 -299 l 93 -299 z "},"ﯦ":{"ha":400,"x_min":-42,"x_max":358,"o":"m -42 167 l 0 208 l 40 208 q 123 213 90 208 q 176 227 156 217 q 203 253 196 238 q 211 293 211 269 q 208 347 211 314 q 194 432 204 379 l 171 561 l 322 586 l 343 457 q 354 374 350 419 q 358 293 358 328 q 284 71 358 142 q 40 0 210 0 l -42 0 l -42 167 m 203 -471 q 144 -449 167 -471 q 121 -378 121 -426 q 144 -307 121 -329 q 203 -285 167 -285 l 231 -285 q 290 -307 267 -285 q 313 -378 313 -329 q 290 -449 313 -426 q 231 -471 267 -471 l 203 -471 m 203 -257 q 144 -235 167 -257 q 121 -164 121 -212 q 144 -93 121 -115 q 203 -71 167 -71 l 231 -71 q 290 -93 267 -71 q 313 -164 313 -115 q 290 -235 313 -212 q 231 -257 267 -257 l 203 -257 z "},"ر":{"ha":415,"x_min":-83,"x_max":367,"o":"m -83 -125 l -28 -125 q 158 -74 99 -125 q 215 97 217 -22 q 211 165 215 129 q 200 240 207 200 l 171 425 l 322 449 l 343 319 q 360 197 354 253 q 367 104 367 140 q 342 -76 367 4 q 267 -215 317 -157 q 143 -303 217 -272 q -26 -333 69 -333 l -83 -333 l -83 -125 z "},"ﺭ":{"ha":415,"x_min":-83,"x_max":367,"o":"m -83 -125 l -28 -125 q 158 -74 99 -125 q 215 97 217 -22 q 211 165 215 129 q 200 240 207 200 l 171 425 l 322 449 l 343 319 q 360 197 354 253 q 367 104 367 140 q 342 -76 367 4 q 267 -215 317 -157 q 143 -303 217 -272 q -26 -333 69 -333 l -83 -333 l -83 -125 z "},"ز":{"ha":415,"x_min":-83,"x_max":367,"o":"m -83 -125 l -28 -125 q 158 -74 99 -125 q 215 97 217 -22 q 211 165 215 129 q 200 240 207 200 l 171 425 l 322 449 l 343 319 q 360 197 354 253 q 367 104 367 140 q 342 -76 367 4 q 267 -215 317 -157 q 143 -303 217 -272 q -26 -333 69 -333 l -83 -333 l -83 -125 m 214 560 q 155 582 178 560 q 132 653 132 604 q 155 724 132 701 q 214 746 178 746 l 242 746 q 301 724 278 746 q 324 653 324 701 q 301 582 324 604 q 242 560 278 560 l 214 560 z "},"ﺯ":{"ha":415,"x_min":-83,"x_max":367,"o":"m -83 -125 l -28 -125 q 158 -74 99 -125 q 215 97 217 -22 q 211 165 215 129 q 200 240 207 200 l 171 425 l 322 449 l 343 319 q 360 197 354 253 q 367 104 367 140 q 342 -76 367 4 q 267 -215 317 -157 q 143 -303 217 -272 q -26 -333 69 -333 l -83 -333 l -83 -125 m 214 560 q 155 582 178 560 q 132 653 132 604 q 155 724 132 701 q 214 746 178 746 l 242 746 q 301 724 278 746 q 324 653 324 701 q 301 582 324 604 q 242 560 278 560 l 214 560 z "},"ڑ":{"ha":415,"x_min":-83,"x_max":426,"o":"m -83 -125 l -28 -125 q 158 -74 99 -125 q 215 97 217 -22 q 211 165 215 129 q 200 240 207 200 l 171 425 l 322 449 l 343 319 q 360 197 354 253 q 367 104 367 140 q 342 -76 367 4 q 267 -215 317 -157 q 143 -303 217 -272 q -26 -333 69 -333 l -83 -333 l -83 -125 m 31 671 l 85 671 l 94 686 l 94 957 l 192 957 l 192 819 q 286 846 229 846 q 392 803 357 846 q 426 700 426 760 q 390 593 426 626 q 276 560 354 560 l 31 560 l 31 671 m 158 675 l 160 671 l 276 671 q 354 700 354 671 q 339 724 354 715 q 296 733 324 733 l 264 733 q 200 724 219 733 q 165 688 181 714 l 158 675 z "},"ڒ":{"ha":415,"x_min":-83,"x_max":421,"o":"m -83 -125 l -28 -125 q 158 -74 99 -125 q 215 97 217 -22 q 211 165 215 129 q 200 240 207 200 l 171 425 l 322 449 l 343 319 q 360 197 354 253 q 367 104 367 140 q 342 -76 367 4 q 267 -215 317 -157 q 143 -303 217 -272 q -26 -333 69 -333 l -83 -333 l -83 -125 m 35 871 l 167 871 l 233 678 l 236 678 l 304 871 l 421 871 l 300 560 l 153 560 l 35 871 z "},"ڔ":{"ha":415,"x_min":-83,"x_max":367,"o":"m -83 -125 l -28 -125 q 158 -74 99 -125 q 215 97 217 -22 q 211 165 215 129 q 200 240 207 200 l 171 425 l 322 449 l 343 319 q 360 197 354 253 q 367 104 367 140 q 342 -76 367 4 q 267 -215 317 -157 q 143 -303 217 -272 q -26 -333 69 -333 l -83 -333 l -83 -125 m 43 -632 q -16 -610 7 -632 q -39 -539 -39 -587 q -16 -468 -39 -490 q 43 -446 7 -446 l 71 -446 q 130 -468 107 -446 q 153 -539 153 -490 q 130 -610 153 -587 q 71 -632 107 -632 l 43 -632 z "},"ڕ":{"ha":415,"x_min":-136,"x_max":367,"o":"m -83 -125 l -28 -125 q 158 -74 99 -125 q 215 97 217 -22 q 211 165 215 129 q 200 240 207 200 l 171 425 l 322 449 l 343 319 q 360 197 354 253 q 367 104 367 140 q 342 -76 367 4 q 267 -215 317 -157 q 143 -303 217 -272 q -26 -333 69 -333 l -83 -333 l -83 -125 m -136 -447 l -4 -447 l 63 -640 l 65 -640 l 133 -447 l 250 -447 l 129 -758 l -18 -758 l -136 -447 z "},"ږ":{"ha":415,"x_min":-83,"x_max":367,"o":"m -83 -125 l -28 -125 q 158 -74 99 -125 q 215 97 217 -22 q 211 165 215 129 q 200 240 207 200 l 171 425 l 322 449 l 343 319 q 360 197 354 253 q 367 104 367 140 q 342 -76 367 4 q 267 -215 317 -157 q 143 -303 217 -272 q -26 -333 69 -333 l -83 -333 l -83 -125 m 214 560 q 155 582 178 560 q 132 653 132 604 q 155 724 132 701 q 214 746 178 746 l 242 746 q 301 724 278 746 q 324 653 324 701 q 301 582 324 604 q 242 560 278 560 l 214 560 m 43 -632 q -16 -610 7 -632 q -39 -539 -39 -587 q -16 -468 -39 -490 q 43 -446 7 -446 l 71 -446 q 130 -468 107 -446 q 153 -539 153 -490 q 130 -610 153 -587 q 71 -632 107 -632 l 43 -632 z "},"ڗ":{"ha":415,"x_min":-83,"x_max":433,"o":"m -83 -125 l -28 -125 q 158 -74 99 -125 q 215 97 217 -22 q 211 165 215 129 q 200 240 207 200 l 171 425 l 322 449 l 343 319 q 360 197 354 253 q 367 104 367 140 q 342 -76 367 4 q 267 -215 317 -157 q 143 -303 217 -272 q -26 -333 69 -333 l -83 -333 l -83 -125 m 324 560 q 265 582 288 560 q 242 653 242 604 q 265 724 242 701 q 324 746 288 746 l 351 746 q 410 724 388 746 q 433 653 433 701 q 410 582 433 604 q 351 560 388 560 l 324 560 m 104 560 q 45 582 68 560 q 22 653 22 604 q 45 724 22 701 q 104 746 68 746 l 132 746 q 191 724 168 746 q 214 653 214 701 q 191 582 214 604 q 132 560 168 560 l 104 560 z "},"ژ":{"ha":415,"x_min":-83,"x_max":433,"o":"m -83 -125 l -28 -125 q 158 -74 99 -125 q 215 97 217 -22 q 211 165 215 129 q 200 240 207 200 l 171 425 l 322 449 l 343 319 q 360 197 354 253 q 367 104 367 140 q 342 -76 367 4 q 267 -215 317 -157 q 143 -303 217 -272 q -26 -333 69 -333 l -83 -333 l -83 -125 m 324 560 q 265 582 288 560 q 242 653 242 604 q 265 724 242 701 q 324 746 288 746 l 351 746 q 410 724 388 746 q 433 653 433 701 q 410 582 433 604 q 351 560 388 560 l 324 560 m 104 560 q 45 582 68 560 q 22 653 22 604 q 45 724 22 701 q 104 746 68 746 l 132 746 q 191 724 168 746 q 214 653 214 701 q 191 582 214 604 q 132 560 168 560 l 104 560 m 214 763 q 155 785 178 763 q 132 856 132 807 q 155 926 132 904 q 214 949 178 949 l 242 949 q 301 926 278 949 q 324 856 324 904 q 301 785 324 807 q 242 763 278 763 l 214 763 z "},"ڙ":{"ha":415,"x_min":-83,"x_max":433,"o":"m -83 -125 l -28 -125 q 158 -74 99 -125 q 215 97 217 -22 q 211 165 215 129 q 200 240 207 200 l 171 425 l 322 449 l 343 319 q 360 197 354 253 q 367 104 367 140 q 342 -76 367 4 q 267 -215 317 -157 q 143 -303 217 -272 q -26 -333 69 -333 l -83 -333 l -83 -125 m 324 560 q 265 582 288 560 q 242 653 242 604 q 265 724 242 701 q 324 746 288 746 l 351 746 q 410 724 388 746 q 433 653 433 701 q 410 582 433 604 q 351 560 388 560 l 324 560 m 324 774 q 265 796 288 774 q 242 867 242 818 q 265 938 242 915 q 324 960 288 960 l 351 960 q 410 938 388 960 q 433 867 433 915 q 410 796 433 818 q 351 774 388 774 l 324 774 m 104 560 q 45 582 68 560 q 22 653 22 604 q 45 724 22 701 q 104 746 68 746 l 132 746 q 191 724 168 746 q 214 653 214 701 q 191 582 214 604 q 132 560 168 560 l 104 560 m 104 774 q 45 796 68 774 q 22 867 22 818 q 45 938 22 915 q 104 960 68 960 l 132 960 q 191 938 168 960 q 214 867 214 915 q 191 796 214 818 q 132 774 168 774 l 104 774 z "},"ۯ":{"ha":415,"x_min":-83,"x_max":421,"o":"m -83 -125 l -28 -125 q 158 -74 99 -125 q 215 97 217 -22 q 211 165 215 129 q 200 240 207 200 l 171 425 l 322 449 l 343 319 q 360 197 354 253 q 367 104 367 140 q 342 -76 367 4 q 267 -215 317 -157 q 143 -303 217 -272 q -26 -333 69 -333 l -83 -333 l -83 -125 m 421 560 l 289 560 l 222 753 l 219 753 l 151 560 l 35 560 l 156 871 l 303 871 l 421 560 z "},"ݫ":{"ha":415,"x_min":-83,"x_max":367,"o":"m -83 -125 l -28 -125 q 158 -74 99 -125 q 215 97 217 -22 q 211 165 215 129 q 200 240 207 200 l 171 425 l 322 449 l 343 319 q 360 197 354 253 q 367 104 367 140 q 342 -76 367 4 q 267 -215 317 -157 q 143 -303 217 -272 q -26 -333 69 -333 l -83 -333 l -83 -125 m 215 560 q 156 582 179 560 q 133 653 133 604 q 156 724 133 701 q 215 746 179 746 l 243 746 q 302 724 279 746 q 325 653 325 701 q 302 582 325 604 q 243 560 279 560 l 215 560 m 215 774 q 156 796 179 774 q 133 867 133 818 q 156 938 133 915 q 215 960 179 960 l 243 960 q 302 938 279 960 q 325 867 325 915 q 302 796 325 818 q 243 774 279 774 l 215 774 z "},"ݬ":{"ha":415,"x_min":-83,"x_max":392,"o":"m -83 -125 l -28 -125 q 158 -74 99 -125 q 215 97 217 -22 q 211 165 215 129 q 200 240 207 200 l 171 425 l 322 449 l 343 319 q 360 197 354 253 q 367 104 367 140 q 342 -76 367 4 q 267 -215 317 -157 q 143 -303 217 -272 q -26 -333 69 -333 l -83 -333 l -83 -125 m 63 672 l 121 672 l 122 679 q 94 753 94 710 q 137 849 94 811 q 246 888 179 888 q 324 871 286 888 q 389 825 361 854 l 322 732 q 246 765 289 765 q 208 754 222 765 q 193 728 193 743 q 289 682 193 682 l 392 682 l 392 560 l 63 560 l 63 672 z "},"ݱ":{"ha":415,"x_min":-83,"x_max":433,"o":"m -83 -125 l -28 -125 q 158 -74 99 -125 q 215 97 217 -22 q 211 165 215 129 q 200 240 207 200 l 171 425 l 322 449 l 343 319 q 360 197 354 253 q 367 104 367 140 q 342 -76 367 4 q 267 -215 317 -157 q 143 -303 217 -272 q -26 -333 69 -333 l -83 -333 l -83 -125 m 324 560 q 265 582 288 560 q 242 653 242 604 q 265 724 242 701 q 324 746 288 746 l 351 746 q 410 724 388 746 q 433 653 433 701 q 410 582 433 604 q 351 560 388 560 l 324 560 m 104 560 q 45 582 68 560 q 22 653 22 604 q 45 724 22 701 q 104 746 68 746 l 132 746 q 191 724 168 746 q 214 653 214 701 q 191 582 214 604 q 132 560 168 560 l 104 560 m 31 968 l 85 968 l 94 983 l 94 1254 l 192 1254 l 192 1117 q 286 1143 229 1143 q 392 1100 357 1143 q 426 997 426 1057 q 390 890 426 924 q 276 857 354 857 l 31 857 l 31 968 m 158 972 l 160 968 l 276 968 q 354 997 354 968 q 339 1022 354 1013 q 296 1031 324 1031 l 264 1031 q 200 1021 219 1031 q 165 985 181 1011 l 158 972 z "},"ﱜ":{"ha":415,"x_min":-83,"x_max":367,"o":"m -83 -125 l -28 -125 q 158 -74 99 -125 q 215 97 217 -22 q 211 165 215 129 q 200 240 207 200 l 171 425 l 322 449 l 343 319 q 360 197 354 253 q 367 104 367 140 q 342 -76 367 4 q 267 -215 317 -157 q 143 -303 217 -272 q -26 -333 69 -333 l -83 -333 l -83 -125 m 179 811 l 276 811 l 276 560 l 179 560 l 179 811 z "},"ړ":{"ha":415,"x_min":-83,"x_max":367,"o":"m 142 -550 q 78 -537 107 -550 q 27 -502 49 -525 q -7 -449 6 -479 q -19 -382 -19 -418 q -12 -333 -19 -358 l -26 -333 l -83 -333 l -83 -125 l -28 -125 q 158 -74 99 -125 q 215 97 217 -22 q 211 165 215 129 q 200 240 207 200 l 171 425 l 322 449 l 343 319 q 360 197 354 253 q 367 104 367 140 q 334 -98 367 -10 q 238 -243 301 -186 q 285 -302 268 -267 q 303 -382 303 -337 q 290 -449 303 -418 q 256 -502 278 -479 q 206 -537 235 -525 q 142 -550 176 -550 m 142 -453 q 197 -433 175 -453 q 219 -382 219 -414 q 197 -331 219 -350 q 142 -311 175 -311 q 86 -331 108 -311 q 64 -382 64 -350 q 86 -433 64 -414 q 142 -453 108 -453 z "},"ݛ":{"ha":415,"x_min":-83,"x_max":367,"o":"m -83 50 l 213 50 q 215 73 214 61 q 215 97 215 85 q 211 165 215 129 q 200 240 207 200 l 171 425 l 322 449 l 343 319 q 360 197 354 253 q 367 104 367 140 q 342 -76 367 4 q 267 -215 317 -157 q 143 -303 217 -272 q -26 -333 69 -333 l -83 -333 l -83 -125 l -28 -125 q 157 -72 99 -125 l -83 -72 l -83 50 z "},"ﺮ":{"ha":486,"x_min":-83,"x_max":486,"o":"m -83 -125 l -28 -125 q 158 -74 99 -125 q 215 97 217 -22 q 211 165 215 129 q 200 240 207 200 l 171 425 l 322 449 l 343 319 q 352 261 349 289 q 358 208 356 233 l 486 208 l 486 42 l 444 0 l 358 0 q 237 -244 335 -154 q -26 -333 139 -333 l -83 -333 l -83 -125 z "},"ﺰ":{"ha":486,"x_min":-83,"x_max":486,"o":"m -83 -125 l -28 -125 q 158 -74 99 -125 q 215 97 217 -22 q 211 165 215 129 q 200 240 207 200 l 171 425 l 322 449 l 343 319 q 352 261 349 289 q 358 208 356 233 l 486 208 l 486 42 l 444 0 l 358 0 q 237 -244 335 -154 q -26 -333 139 -333 l -83 -333 l -83 -125 m 214 560 q 155 582 178 560 q 132 653 132 604 q 155 724 132 701 q 214 746 178 746 l 242 746 q 301 724 278 746 q 324 653 324 701 q 301 582 324 604 q 242 560 278 560 l 214 560 z "},"ﮍ":{"ha":486,"x_min":-83,"x_max":486,"o":"m -83 -125 l -28 -125 q 158 -74 99 -125 q 215 97 217 -22 q 211 165 215 129 q 200 240 207 200 l 171 425 l 322 449 l 343 319 q 352 261 349 289 q 358 208 356 233 l 486 208 l 486 42 l 444 0 l 358 0 q 237 -244 335 -154 q -26 -333 139 -333 l -83 -333 l -83 -125 m 31 671 l 85 671 l 94 686 l 94 957 l 192 957 l 192 819 q 286 846 229 846 q 392 803 357 846 q 426 700 426 760 q 390 593 426 626 q 276 560 354 560 l 31 560 l 31 671 m 158 675 l 160 671 l 276 671 q 354 700 354 671 q 339 724 354 715 q 296 733 324 733 l 264 733 q 200 724 219 733 q 165 688 181 714 l 158 675 z "},"ﮋ":{"ha":486,"x_min":-83,"x_max":486,"o":"m -83 -125 l -28 -125 q 158 -74 99 -125 q 215 97 217 -22 q 211 165 215 129 q 200 240 207 200 l 171 425 l 322 449 l 343 319 q 352 261 349 289 q 358 208 356 233 l 486 208 l 486 42 l 444 0 l 358 0 q 237 -244 335 -154 q -26 -333 139 -333 l -83 -333 l -83 -125 m 324 560 q 265 582 288 560 q 242 653 242 604 q 265 724 242 701 q 324 746 288 746 l 351 746 q 410 724 388 746 q 433 653 433 701 q 410 582 433 604 q 351 560 388 560 l 324 560 m 104 560 q 45 582 68 560 q 22 653 22 604 q 45 724 22 701 q 104 746 68 746 l 132 746 q 191 724 168 746 q 214 653 214 701 q 191 582 214 604 q 132 560 168 560 l 104 560 m 214 763 q 155 785 178 763 q 132 856 132 807 q 155 926 132 904 q 214 949 178 949 l 242 949 q 301 926 278 949 q 324 856 324 904 q 301 785 324 807 q 242 763 278 763 l 214 763 z "},"ࢪ":{"ha":800,"x_min":28,"x_max":751,"o":"m 286 -422 q 94 -360 161 -422 q 28 -178 28 -299 q 91 6 28 -56 q 272 67 154 67 q 356 58 318 67 q 428 32 394 50 q 494 -12 463 14 q 558 -76 525 -39 q 589 -2 578 -42 q 600 82 600 38 q 597 156 600 119 q 585 254 594 192 l 558 425 l 710 449 l 731 319 q 747 197 742 249 q 751 104 751 144 q 729 -66 751 13 q 667 -210 707 -144 l 751 -317 l 621 -422 l 551 -335 q 428 -399 494 -376 q 286 -422 361 -422 m 300 -228 q 372 -219 338 -228 q 436 -194 406 -210 q 369 -145 404 -162 q 286 -128 335 -128 l 244 -128 q 181 -178 181 -128 q 258 -228 181 -228 l 300 -228 z "},"ﻟ":{"ha":399,"x_min":-42,"x_max":315,"o":"m -42 167 l 0 208 l 61 208 q 131 228 114 208 q 149 292 149 249 l 149 1028 l 315 1028 l 315 292 q 258 72 315 143 q 61 0 200 1 l -42 0 l -42 167 z "},"ﱂ":{"ha":636,"x_min":56,"x_max":664,"o":"m 56 -8 q 276 332 56 294 l 276 1028 l 443 1028 l 443 328 q 517 310 479 321 q 590 286 554 300 l 664 258 l 590 64 l 517 92 q 423 121 468 111 q 347 131 378 131 q 252 97 282 131 q 222 -8 222 64 l 222 -422 l 56 -422 l 56 -8 z "},"ﳌ":{"ha":443,"x_min":-42,"x_max":485,"o":"m 317 -71 q 247 -36 278 -50 q 188 -14 217 -22 q 131 -3 160 -6 q 67 0 103 0 l -42 0 l -42 167 l 0 208 l 83 208 l 83 1028 l 250 1028 l 250 188 q 327 158 288 176 q 417 113 367 140 l 485 75 l 386 -108 l 317 -71 z "},"ل":{"ha":940,"x_min":49,"x_max":857,"o":"m 439 -333 q 147 -234 246 -333 q 49 47 49 -135 q 66 188 49 110 q 114 340 83 267 l 247 301 q 203 181 219 242 q 188 75 188 119 q 240 -60 188 -12 q 383 -108 292 -108 l 494 -108 q 586 -95 549 -108 q 647 -52 624 -82 q 680 26 669 -22 q 690 143 690 74 l 690 1028 l 857 1028 l 857 143 q 756 -218 857 -103 q 439 -333 654 -333 z "},"ﻝ":{"ha":940,"x_min":49,"x_max":857,"o":"m 439 -333 q 147 -234 246 -333 q 49 47 49 -135 q 66 188 49 110 q 114 340 83 267 l 247 301 q 203 181 219 242 q 188 75 188 119 q 240 -60 188 -12 q 383 -108 292 -108 l 494 -108 q 586 -95 549 -108 q 647 -52 624 -82 q 680 26 669 -22 q 690 143 690 74 l 690 1028 l 857 1028 l 857 143 q 756 -218 857 -103 q 439 -333 654 -333 z "},"ڵ":{"ha":940,"x_min":49,"x_max":857,"o":"m 439 -333 q 147 -234 246 -333 q 49 47 49 -135 q 66 188 49 110 q 114 340 83 267 l 247 301 q 203 181 219 242 q 188 75 188 119 q 240 -60 188 -12 q 383 -108 292 -108 l 494 -108 q 586 -95 549 -108 q 647 -52 624 -82 q 680 26 669 -22 q 690 143 690 74 l 690 1028 l 857 1028 l 857 143 q 756 -218 857 -103 q 439 -333 654 -333 m 190 1151 l 322 1151 l 389 958 l 392 958 l 460 1151 l 576 1151 l 456 840 l 308 840 l 190 1151 z "},"ڶ":{"ha":940,"x_min":49,"x_max":857,"o":"m 439 -333 q 147 -234 246 -333 q 49 47 49 -135 q 66 188 49 110 q 114 340 83 267 l 247 301 q 203 181 219 242 q 188 75 188 119 q 240 -60 188 -12 q 383 -108 292 -108 l 494 -108 q 586 -95 549 -108 q 647 -52 624 -82 q 680 26 669 -22 q 690 143 690 74 l 690 1028 l 857 1028 l 857 143 q 756 -218 857 -103 q 439 -333 654 -333 m 369 840 q 310 863 333 840 q 288 933 288 885 q 310 1004 288 982 q 369 1026 333 1026 l 397 1026 q 456 1004 433 1026 q 479 933 479 982 q 456 863 479 885 q 397 840 433 840 l 369 840 z "},"ڷ":{"ha":940,"x_min":49,"x_max":857,"o":"m 439 -333 q 147 -234 246 -333 q 49 47 49 -135 q 66 188 49 110 q 114 340 83 267 l 247 301 q 203 181 219 242 q 188 75 188 119 q 240 -60 188 -12 q 383 -108 292 -108 l 494 -108 q 586 -95 549 -108 q 647 -52 624 -82 q 680 26 669 -22 q 690 143 690 74 l 690 1028 l 857 1028 l 857 143 q 756 -218 857 -103 q 439 -333 654 -333 m 479 840 q 420 863 443 840 q 397 933 397 885 q 420 1004 397 982 q 479 1026 443 1026 l 507 1026 q 566 1004 543 1026 q 589 933 589 982 q 566 863 589 885 q 507 840 543 840 l 479 840 m 260 840 q 201 863 224 840 q 178 933 178 885 q 201 1004 178 982 q 260 1026 224 1026 l 288 1026 q 347 1004 324 1026 q 369 933 369 982 q 347 863 369 885 q 288 840 324 840 l 260 840 m 369 1043 q 310 1065 333 1043 q 288 1136 288 1088 q 310 1207 288 1185 q 369 1229 333 1229 l 397 1229 q 456 1207 433 1229 q 479 1136 479 1185 q 456 1065 479 1088 q 397 1043 433 1043 l 369 1043 z "},"ڸ":{"ha":940,"x_min":49,"x_max":857,"o":"m 439 -333 q 147 -234 246 -333 q 49 47 49 -135 q 66 188 49 110 q 114 340 83 267 l 247 301 q 203 181 219 242 q 188 75 188 119 q 240 -60 188 -12 q 383 -108 292 -108 l 494 -108 q 586 -95 549 -108 q 647 -52 624 -82 q 680 26 669 -22 q 690 143 690 74 l 690 1028 l 857 1028 l 857 143 q 756 -218 857 -103 q 439 -333 654 -333 m 535 -632 q 476 -610 499 -632 q 453 -539 453 -587 q 476 -468 453 -490 q 535 -446 499 -446 l 563 -446 q 622 -468 599 -446 q 644 -539 644 -490 q 622 -610 644 -587 q 563 -632 599 -632 l 535 -632 m 425 -835 q 366 -812 389 -835 q 343 -742 343 -790 q 366 -671 343 -693 q 425 -649 389 -649 l 453 -649 q 512 -671 489 -649 q 535 -742 535 -693 q 512 -812 535 -790 q 453 -835 489 -835 l 425 -835 m 315 -632 q 256 -610 279 -632 q 233 -539 233 -587 q 256 -468 233 -490 q 315 -446 279 -446 l 343 -446 q 402 -468 379 -446 q 425 -539 425 -490 q 402 -610 425 -587 q 343 -632 379 -632 l 315 -632 z "},"ݪ":{"ha":940,"x_min":49,"x_max":954,"o":"m 593 650 l 690 650 l 690 1028 l 857 1028 l 857 650 l 954 650 l 954 528 l 857 528 l 857 143 q 756 -218 857 -103 q 439 -333 654 -333 q 147 -234 246 -333 q 49 47 49 -135 q 66 188 49 110 q 114 340 83 267 l 247 301 q 203 181 219 242 q 188 75 188 119 q 240 -60 188 -12 q 383 -108 292 -108 l 494 -108 q 586 -95 549 -108 q 647 -52 624 -82 q 680 26 669 -22 q 690 143 690 74 l 690 528 l 593 528 l 593 650 z "},"ࢦ":{"ha":940,"x_min":49,"x_max":954,"o":"m 593 758 l 690 758 l 690 1028 l 857 1028 l 857 758 l 954 758 l 954 636 l 857 636 l 857 542 l 954 542 l 954 419 l 857 419 l 857 143 q 756 -218 857 -103 q 439 -333 654 -333 q 147 -234 246 -333 q 49 47 49 -135 q 66 188 49 110 q 114 340 83 267 l 247 301 q 203 181 219 242 q 188 75 188 119 q 240 -60 188 -12 q 383 -108 292 -108 l 494 -108 q 586 -95 549 -108 q 647 -52 624 -82 q 680 26 669 -22 q 690 143 690 74 l 690 419 l 593 419 l 593 542 l 690 542 l 690 636 l 593 636 l 593 758 z "},"ﻞ":{"ha":1011,"x_min":49,"x_max":1011,"o":"m 439 -333 q 147 -234 246 -333 q 49 47 49 -135 q 66 188 49 110 q 114 340 83 267 l 247 301 q 203 181 219 242 q 188 75 188 119 q 240 -60 188 -12 q 383 -108 292 -108 l 494 -108 q 586 -95 549 -108 q 647 -52 624 -82 q 680 26 669 -22 q 690 143 690 74 l 690 1028 l 857 1028 l 857 208 l 1011 208 l 1011 42 l 969 0 l 846 0 q 719 -252 818 -171 q 439 -333 621 -333 z "},"ں":{"ha":961,"x_min":49,"x_max":913,"o":"m 481 -225 q 158 -126 267 -225 q 49 156 49 -26 q 66 297 49 218 q 114 449 83 375 l 247 410 q 203 289 219 350 q 188 183 188 228 q 250 48 188 96 q 425 0 313 0 l 536 0 q 710 54 654 0 q 765 224 765 108 q 758 306 765 256 q 742 400 751 356 l 714 529 l 864 558 l 890 431 q 906 326 900 385 q 913 224 913 267 q 808 -116 913 -7 q 481 -225 703 -225 z "},"ن":{"ha":961,"x_min":49,"x_max":913,"o":"m 481 -225 q 158 -126 267 -225 q 49 156 49 -26 q 66 297 49 218 q 114 449 83 375 l 247 410 q 203 289 219 350 q 188 183 188 228 q 250 48 188 96 q 425 0 313 0 l 536 0 q 710 54 654 0 q 765 224 765 108 q 758 306 765 256 q 742 400 751 356 l 714 529 l 864 558 l 890 431 q 906 326 900 385 q 913 224 913 267 q 808 -116 913 -7 q 481 -225 703 -225 m 467 521 q 408 543 431 521 q 385 614 385 565 q 408 685 385 663 q 467 707 431 707 l 494 707 q 553 685 531 707 q 576 614 576 663 q 553 543 576 565 q 494 521 531 521 l 467 521 z "},"ﻥ":{"ha":961,"x_min":49,"x_max":913,"o":"m 481 -225 q 158 -126 267 -225 q 49 156 49 -26 q 66 297 49 218 q 114 449 83 375 l 247 410 q 203 289 219 350 q 188 183 188 228 q 250 48 188 96 q 425 0 313 0 l 536 0 q 710 54 654 0 q 765 224 765 108 q 758 306 765 256 q 742 400 751 356 l 714 529 l 864 558 l 890 431 q 906 326 900 385 q 913 224 913 267 q 808 -116 913 -7 q 481 -225 703 -225 m 467 521 q 408 543 431 521 q 385 614 385 565 q 408 685 385 663 q 467 707 431 707 l 494 707 q 553 685 531 707 q 576 614 576 663 q 553 543 576 565 q 494 521 531 521 l 467 521 z "},"ڹ":{"ha":961,"x_min":49,"x_max":913,"o":"m 481 -225 q 158 -126 267 -225 q 49 156 49 -26 q 66 297 49 218 q 114 449 83 375 l 247 410 q 203 289 219 350 q 188 183 188 228 q 250 48 188 96 q 425 0 313 0 l 536 0 q 710 54 654 0 q 765 224 765 108 q 758 306 765 256 q 742 400 751 356 l 714 529 l 864 558 l 890 431 q 906 326 900 385 q 913 224 913 267 q 808 -116 913 -7 q 481 -225 703 -225 m 467 521 q 408 543 431 521 q 385 614 385 565 q 408 685 385 663 q 467 707 431 707 l 494 707 q 553 685 531 707 q 576 614 576 663 q 553 543 576 565 q 494 521 531 521 l 467 521 m 467 -524 q 408 -501 431 -524 q 385 -431 385 -479 q 408 -360 385 -382 q 467 -337 431 -337 l 494 -337 q 553 -360 531 -337 q 576 -431 576 -382 q 553 -501 576 -479 q 494 -524 531 -524 l 467 -524 z "},"ڻ":{"ha":961,"x_min":49,"x_max":913,"o":"m 481 -225 q 158 -126 267 -225 q 49 156 49 -26 q 66 297 49 218 q 114 449 83 375 l 247 410 q 203 289 219 350 q 188 183 188 228 q 250 48 188 96 q 425 0 313 0 l 536 0 q 710 54 654 0 q 765 224 765 108 q 758 306 765 256 q 742 400 751 356 l 714 529 l 864 558 l 890 431 q 906 326 900 385 q 913 224 913 267 q 808 -116 913 -7 q 481 -225 703 -225 m 282 632 l 336 632 l 346 647 l 346 918 l 443 918 l 443 781 q 538 807 481 807 q 643 764 608 807 q 678 661 678 721 q 642 554 678 588 q 528 521 606 521 l 282 521 l 282 632 m 410 636 l 411 632 l 528 632 q 606 661 606 632 q 590 685 606 676 q 547 694 575 694 l 515 694 q 451 685 471 694 q 417 649 432 675 l 410 636 z "},"ڽ":{"ha":961,"x_min":49,"x_max":913,"o":"m 481 -225 q 158 -126 267 -225 q 49 156 49 -26 q 66 297 49 218 q 114 449 83 375 l 247 410 q 203 289 219 350 q 188 183 188 228 q 250 48 188 96 q 425 0 313 0 l 536 0 q 710 54 654 0 q 765 224 765 108 q 758 306 765 256 q 742 400 751 356 l 714 529 l 864 558 l 890 431 q 906 326 900 385 q 913 224 913 267 q 808 -116 913 -7 q 481 -225 703 -225 m 576 521 q 517 543 540 521 q 494 614 494 565 q 517 685 494 663 q 576 707 540 707 l 604 707 q 663 685 640 707 q 686 614 686 663 q 663 543 686 565 q 604 521 640 521 l 576 521 m 357 521 q 298 543 321 521 q 275 614 275 565 q 298 685 275 663 q 357 707 321 707 l 385 707 q 444 685 421 707 q 467 614 467 663 q 444 543 467 565 q 385 521 421 521 l 357 521 m 467 724 q 408 746 431 724 q 385 817 385 768 q 408 888 385 865 q 467 910 431 910 l 494 910 q 553 888 531 910 q 576 817 576 865 q 553 746 576 768 q 494 724 531 724 l 467 724 z "},"ݧ":{"ha":961,"x_min":49,"x_max":913,"o":"m 481 -225 q 158 -126 267 -225 q 49 156 49 -26 q 66 297 49 218 q 114 449 83 375 l 247 410 q 203 289 219 350 q 188 183 188 228 q 250 48 188 96 q 425 0 313 0 l 536 0 q 710 54 654 0 q 765 224 765 108 q 758 306 765 256 q 742 400 751 356 l 714 529 l 864 558 l 890 431 q 906 326 900 385 q 913 224 913 267 q 808 -116 913 -7 q 481 -225 703 -225 m 467 521 q 408 543 431 521 q 385 614 385 565 q 408 685 385 663 q 467 707 431 707 l 494 707 q 553 685 531 707 q 576 614 576 663 q 553 543 576 565 q 494 521 531 521 l 467 521 m 576 -524 q 517 -501 540 -524 q 494 -431 494 -479 q 517 -360 494 -382 q 576 -337 540 -337 l 604 -337 q 663 -360 640 -337 q 686 -431 686 -382 q 663 -501 686 -479 q 604 -524 640 -524 l 576 -524 m 357 -524 q 298 -501 321 -524 q 275 -431 275 -479 q 298 -360 275 -382 q 357 -337 321 -337 l 385 -337 q 444 -360 421 -337 q 467 -431 467 -382 q 444 -501 467 -479 q 385 -524 421 -524 l 357 -524 z "},"ݨ":{"ha":961,"x_min":49,"x_max":913,"o":"m 481 -225 q 158 -126 267 -225 q 49 156 49 -26 q 66 297 49 218 q 114 449 83 375 l 247 410 q 203 289 219 350 q 188 183 188 228 q 250 48 188 96 q 425 0 313 0 l 536 0 q 710 54 654 0 q 765 224 765 108 q 758 306 765 256 q 742 400 751 356 l 714 529 l 864 558 l 890 431 q 906 326 900 385 q 913 224 913 267 q 808 -116 913 -7 q 481 -225 703 -225 m 467 521 q 408 543 431 521 q 385 614 385 565 q 408 685 385 663 q 467 707 431 707 l 494 707 q 553 685 531 707 q 576 614 576 663 q 553 543 576 565 q 494 521 531 521 l 467 521 m 282 929 l 336 929 l 346 944 l 346 1215 l 443 1215 l 443 1078 q 538 1104 481 1104 q 643 1061 608 1104 q 678 958 678 1018 q 642 851 678 885 q 528 818 606 818 l 282 818 l 282 929 m 410 933 l 411 929 l 528 929 q 606 958 606 929 q 590 983 606 974 q 547 992 575 992 l 515 992 q 451 982 471 992 q 417 946 432 972 l 410 933 z "},"ݩ":{"ha":961,"x_min":49,"x_max":913,"o":"m 481 -225 q 158 -126 267 -225 q 49 156 49 -26 q 66 297 49 218 q 114 449 83 375 l 247 410 q 203 289 219 350 q 188 183 188 228 q 250 48 188 96 q 425 0 313 0 l 536 0 q 710 54 654 0 q 765 224 765 108 q 758 306 765 256 q 742 400 751 356 l 714 529 l 864 558 l 890 431 q 906 326 900 385 q 913 224 913 267 q 808 -116 913 -7 q 481 -225 703 -225 m 467 521 q 408 543 431 521 q 385 614 385 565 q 408 685 385 663 q 467 707 431 707 l 494 707 q 553 685 531 707 q 576 614 576 663 q 553 543 576 565 q 494 521 531 521 l 467 521 m 288 1129 l 419 1129 l 486 936 l 489 936 l 557 1129 l 674 1129 l 553 818 l 406 818 l 288 1129 z "},"ڼ":{"ha":961,"x_min":49,"x_max":913,"o":"m 481 -464 q 417 -451 446 -464 q 366 -416 388 -439 q 332 -362 344 -393 q 319 -296 319 -332 q 339 -211 319 -247 q 122 -85 194 -179 q 49 156 49 8 q 66 297 49 218 q 114 449 83 375 l 247 410 q 203 289 219 350 q 188 183 188 228 q 250 48 188 96 q 425 0 313 0 l 536 0 q 710 54 654 0 q 765 224 765 108 q 758 306 765 256 q 742 400 751 356 l 714 529 l 864 558 l 890 431 q 906 326 900 385 q 913 224 913 267 q 842 -73 913 33 q 622 -211 771 -179 q 642 -296 642 -250 q 629 -362 642 -332 q 595 -416 617 -393 q 544 -451 574 -439 q 481 -464 515 -464 m 467 521 q 408 543 431 521 q 385 614 385 565 q 408 685 385 663 q 467 707 431 707 l 494 707 q 553 685 531 707 q 576 614 576 663 q 553 543 576 565 q 494 521 531 521 l 467 521 m 481 -367 q 536 -347 514 -367 q 558 -296 558 -328 q 536 -244 558 -264 q 481 -225 514 -225 q 425 -244 447 -225 q 403 -296 403 -264 q 425 -347 403 -328 q 481 -367 447 -367 z "},"ٮ":{"ha":1226,"x_min":56,"x_max":1185,"o":"m 599 -17 q 344 0 447 -17 q 176 55 240 17 q 84 154 113 93 q 56 306 56 215 q 70 428 56 361 q 111 560 85 494 l 244 521 q 208 430 221 474 q 194 351 194 386 q 211 284 194 311 q 265 240 228 257 q 364 216 303 224 q 515 208 425 208 l 710 208 q 864 213 801 208 q 965 227 926 217 q 1020 253 1003 238 q 1038 293 1038 269 q 1034 347 1038 314 q 1021 432 1031 379 l 997 561 l 1149 586 l 1169 457 q 1181 374 1176 419 q 1185 293 1185 328 q 1159 140 1185 200 q 1067 46 1133 81 q 888 -3 1001 11 q 599 -17 775 -17 z "},"ب":{"ha":1226,"x_min":56,"x_max":1185,"o":"m 599 -17 q 344 0 447 -17 q 176 55 240 17 q 84 154 113 93 q 56 306 56 215 q 70 428 56 361 q 111 560 85 494 l 244 521 q 208 430 221 474 q 194 351 194 386 q 211 284 194 311 q 265 240 228 257 q 364 216 303 224 q 515 208 425 208 l 710 208 q 864 213 801 208 q 965 227 926 217 q 1020 253 1003 238 q 1038 293 1038 269 q 1034 347 1038 314 q 1021 432 1031 379 l 997 561 l 1149 586 l 1169 457 q 1181 374 1176 419 q 1185 293 1185 328 q 1159 140 1185 200 q 1067 46 1133 81 q 888 -3 1001 11 q 599 -17 775 -17 m 597 -297 q 538 -275 561 -297 q 515 -204 515 -253 q 538 -133 515 -156 q 597 -111 561 -111 l 625 -111 q 684 -133 661 -111 q 707 -204 707 -156 q 684 -275 707 -253 q 625 -297 661 -297 l 597 -297 z "},"ﺏ":{"ha":1226,"x_min":56,"x_max":1185,"o":"m 599 -17 q 344 0 447 -17 q 176 55 240 17 q 84 154 113 93 q 56 306 56 215 q 70 428 56 361 q 111 560 85 494 l 244 521 q 208 430 221 474 q 194 351 194 386 q 211 284 194 311 q 265 240 228 257 q 364 216 303 224 q 515 208 425 208 l 710 208 q 864 213 801 208 q 965 227 926 217 q 1020 253 1003 238 q 1038 293 1038 269 q 1034 347 1038 314 q 1021 432 1031 379 l 997 561 l 1149 586 l 1169 457 q 1181 374 1176 419 q 1185 293 1185 328 q 1159 140 1185 200 q 1067 46 1133 81 q 888 -3 1001 11 q 599 -17 775 -17 m 597 -297 q 538 -275 561 -297 q 515 -204 515 -253 q 538 -133 515 -156 q 597 -111 561 -111 l 625 -111 q 684 -133 661 -111 q 707 -204 707 -156 q 684 -275 707 -253 q 625 -297 661 -297 l 597 -297 z "},"پ":{"ha":1226,"x_min":56,"x_max":1185,"o":"m 599 -17 q 344 0 447 -17 q 176 55 240 17 q 84 154 113 93 q 56 306 56 215 q 70 428 56 361 q 111 560 85 494 l 244 521 q 208 430 221 474 q 194 351 194 386 q 211 284 194 311 q 265 240 228 257 q 364 216 303 224 q 515 208 425 208 l 710 208 q 864 213 801 208 q 965 227 926 217 q 1020 253 1003 238 q 1038 293 1038 269 q 1034 347 1038 314 q 1021 432 1031 379 l 997 561 l 1149 586 l 1169 457 q 1181 374 1176 419 q 1185 293 1185 328 q 1159 140 1185 200 q 1067 46 1133 81 q 888 -3 1001 11 q 599 -17 775 -17 m 707 -297 q 648 -275 671 -297 q 625 -204 625 -253 q 648 -133 625 -156 q 707 -111 671 -111 l 735 -111 q 794 -133 771 -111 q 817 -204 817 -156 q 794 -275 817 -253 q 735 -297 771 -297 l 707 -297 m 597 -500 q 538 -478 561 -500 q 515 -407 515 -456 q 538 -336 515 -358 q 597 -314 561 -314 l 625 -314 q 684 -336 661 -314 q 707 -407 707 -358 q 684 -478 707 -456 q 625 -500 661 -500 l 597 -500 m 488 -297 q 428 -275 451 -297 q 406 -204 406 -253 q 428 -133 406 -156 q 488 -111 451 -111 l 515 -111 q 574 -133 551 -111 q 597 -204 597 -156 q 574 -275 597 -253 q 515 -297 551 -297 l 488 -297 z "},"ٻ":{"ha":1226,"x_min":56,"x_max":1185,"o":"m 599 -17 q 344 0 447 -17 q 176 55 240 17 q 84 154 113 93 q 56 306 56 215 q 70 428 56 361 q 111 560 85 494 l 244 521 q 208 430 221 474 q 194 351 194 386 q 211 284 194 311 q 265 240 228 257 q 364 216 303 224 q 515 208 425 208 l 710 208 q 864 213 801 208 q 965 227 926 217 q 1020 253 1003 238 q 1038 293 1038 269 q 1034 347 1038 314 q 1021 432 1031 379 l 997 561 l 1149 586 l 1169 457 q 1181 374 1176 419 q 1185 293 1185 328 q 1159 140 1185 200 q 1067 46 1133 81 q 888 -3 1001 11 q 599 -17 775 -17 m 597 -469 q 538 -447 561 -469 q 515 -376 515 -425 q 538 -306 515 -328 q 597 -283 561 -283 l 625 -283 q 684 -306 661 -283 q 707 -376 707 -328 q 684 -447 707 -425 q 625 -469 661 -469 l 597 -469 m 597 -256 q 538 -233 561 -256 q 515 -162 515 -211 q 538 -92 515 -114 q 597 -69 561 -69 l 625 -69 q 684 -92 661 -69 q 707 -162 707 -114 q 684 -233 707 -211 q 625 -256 661 -256 l 597 -256 z "},"ڀ":{"ha":1226,"x_min":56,"x_max":1185,"o":"m 599 -17 q 344 0 447 -17 q 176 55 240 17 q 84 154 113 93 q 56 306 56 215 q 70 428 56 361 q 111 560 85 494 l 244 521 q 208 430 221 474 q 194 351 194 386 q 211 284 194 311 q 265 240 228 257 q 364 216 303 224 q 515 208 425 208 l 710 208 q 864 213 801 208 q 965 227 926 217 q 1020 253 1003 238 q 1038 293 1038 269 q 1034 347 1038 314 q 1021 432 1031 379 l 997 561 l 1149 586 l 1169 457 q 1181 374 1176 419 q 1185 293 1185 328 q 1159 140 1185 200 q 1067 46 1133 81 q 888 -3 1001 11 q 599 -17 775 -17 m 707 -469 q 648 -447 671 -469 q 625 -376 625 -425 q 648 -306 625 -328 q 707 -283 671 -283 l 735 -283 q 794 -306 771 -283 q 817 -376 817 -328 q 794 -447 817 -425 q 735 -469 771 -469 l 707 -469 m 707 -256 q 648 -233 671 -256 q 625 -162 625 -211 q 648 -92 625 -114 q 707 -69 671 -69 l 735 -69 q 794 -92 771 -69 q 817 -162 817 -114 q 794 -233 817 -211 q 735 -256 771 -256 l 707 -256 m 488 -469 q 428 -447 451 -469 q 406 -376 406 -425 q 428 -306 406 -328 q 488 -283 451 -283 l 515 -283 q 574 -306 551 -283 q 597 -376 597 -328 q 574 -447 597 -425 q 515 -469 551 -469 l 488 -469 m 488 -256 q 428 -233 451 -256 q 406 -162 406 -211 q 428 -92 406 -114 q 488 -69 451 -69 l 515 -69 q 574 -92 551 -69 q 597 -162 597 -114 q 574 -233 597 -211 q 515 -256 551 -256 l 488 -256 z "},"ت":{"ha":1226,"x_min":56,"x_max":1185,"o":"m 599 -17 q 344 0 447 -17 q 176 55 240 17 q 84 154 113 93 q 56 306 56 215 q 70 428 56 361 q 111 560 85 494 l 244 521 q 208 430 221 474 q 194 351 194 386 q 211 284 194 311 q 265 240 228 257 q 364 216 303 224 q 515 208 425 208 l 710 208 q 864 213 801 208 q 965 227 926 217 q 1020 253 1003 238 q 1038 293 1038 269 q 1034 347 1038 314 q 1021 432 1031 379 l 997 561 l 1149 586 l 1169 457 q 1181 374 1176 419 q 1185 293 1185 328 q 1159 140 1185 200 q 1067 46 1133 81 q 888 -3 1001 11 q 599 -17 775 -17 m 707 504 q 648 526 671 504 q 625 597 625 549 q 648 668 625 646 q 707 690 671 690 l 735 690 q 794 668 771 690 q 817 597 817 646 q 794 526 817 549 q 735 504 771 504 l 707 504 m 488 504 q 428 526 451 504 q 406 597 406 549 q 428 668 406 646 q 488 690 451 690 l 515 690 q 574 668 551 690 q 597 597 597 646 q 574 526 597 549 q 515 504 551 504 l 488 504 z "},"ﺕ":{"ha":1226,"x_min":56,"x_max":1185,"o":"m 599 -17 q 344 0 447 -17 q 176 55 240 17 q 84 154 113 93 q 56 306 56 215 q 70 428 56 361 q 111 560 85 494 l 244 521 q 208 430 221 474 q 194 351 194 386 q 211 284 194 311 q 265 240 228 257 q 364 216 303 224 q 515 208 425 208 l 710 208 q 864 213 801 208 q 965 227 926 217 q 1020 253 1003 238 q 1038 293 1038 269 q 1034 347 1038 314 q 1021 432 1031 379 l 997 561 l 1149 586 l 1169 457 q 1181 374 1176 419 q 1185 293 1185 328 q 1159 140 1185 200 q 1067 46 1133 81 q 888 -3 1001 11 q 599 -17 775 -17 m 707 504 q 648 526 671 504 q 625 597 625 549 q 648 668 625 646 q 707 690 671 690 l 735 690 q 794 668 771 690 q 817 597 817 646 q 794 526 817 549 q 735 504 771 504 l 707 504 m 488 504 q 428 526 451 504 q 406 597 406 549 q 428 668 406 646 q 488 690 451 690 l 515 690 q 574 668 551 690 q 597 597 597 646 q 574 526 597 549 q 515 504 551 504 l 488 504 z "},"ٽ":{"ha":1226,"x_min":56,"x_max":1185,"o":"m 599 -17 q 344 0 447 -17 q 176 55 240 17 q 84 154 113 93 q 56 306 56 215 q 70 428 56 361 q 111 560 85 494 l 244 521 q 208 430 221 474 q 194 351 194 386 q 211 284 194 311 q 265 240 228 257 q 364 216 303 224 q 515 208 425 208 l 710 208 q 864 213 801 208 q 965 227 926 217 q 1020 253 1003 238 q 1038 293 1038 269 q 1034 347 1038 314 q 1021 432 1031 379 l 997 561 l 1149 586 l 1169 457 q 1181 374 1176 419 q 1185 293 1185 328 q 1159 140 1185 200 q 1067 46 1133 81 q 888 -3 1001 11 q 599 -17 775 -17 m 707 707 q 648 729 671 707 q 625 800 625 751 q 648 871 625 849 q 707 893 671 893 l 735 893 q 794 871 771 893 q 817 800 817 849 q 794 729 817 751 q 735 707 771 707 l 707 707 m 597 504 q 538 526 561 504 q 515 597 515 549 q 538 668 515 646 q 597 690 561 690 l 625 690 q 684 668 661 690 q 707 597 707 646 q 684 526 707 549 q 625 504 661 504 l 597 504 m 488 707 q 428 729 451 707 q 406 800 406 751 q 428 871 406 849 q 488 893 451 893 l 515 893 q 574 871 551 893 q 597 800 597 849 q 574 729 597 751 q 515 707 551 707 l 488 707 z "},"ث":{"ha":1226,"x_min":56,"x_max":1185,"o":"m 599 -17 q 344 0 447 -17 q 176 55 240 17 q 84 154 113 93 q 56 306 56 215 q 70 428 56 361 q 111 560 85 494 l 244 521 q 208 430 221 474 q 194 351 194 386 q 211 284 194 311 q 265 240 228 257 q 364 216 303 224 q 515 208 425 208 l 710 208 q 864 213 801 208 q 965 227 926 217 q 1020 253 1003 238 q 1038 293 1038 269 q 1034 347 1038 314 q 1021 432 1031 379 l 997 561 l 1149 586 l 1169 457 q 1181 374 1176 419 q 1185 293 1185 328 q 1159 140 1185 200 q 1067 46 1133 81 q 888 -3 1001 11 q 599 -17 775 -17 m 707 504 q 648 526 671 504 q 625 597 625 549 q 648 668 625 646 q 707 690 671 690 l 735 690 q 794 668 771 690 q 817 597 817 646 q 794 526 817 549 q 735 504 771 504 l 707 504 m 488 504 q 428 526 451 504 q 406 597 406 549 q 428 668 406 646 q 488 690 451 690 l 515 690 q 574 668 551 690 q 597 597 597 646 q 574 526 597 549 q 515 504 551 504 l 488 504 m 597 707 q 538 729 561 707 q 515 800 515 751 q 538 871 515 849 q 597 893 561 893 l 625 893 q 684 871 661 893 q 707 800 707 849 q 684 729 707 751 q 625 707 661 707 l 597 707 z "},"ﺙ":{"ha":1226,"x_min":56,"x_max":1185,"o":"m 599 -17 q 344 0 447 -17 q 176 55 240 17 q 84 154 113 93 q 56 306 56 215 q 70 428 56 361 q 111 560 85 494 l 244 521 q 208 430 221 474 q 194 351 194 386 q 211 284 194 311 q 265 240 228 257 q 364 216 303 224 q 515 208 425 208 l 710 208 q 864 213 801 208 q 965 227 926 217 q 1020 253 1003 238 q 1038 293 1038 269 q 1034 347 1038 314 q 1021 432 1031 379 l 997 561 l 1149 586 l 1169 457 q 1181 374 1176 419 q 1185 293 1185 328 q 1159 140 1185 200 q 1067 46 1133 81 q 888 -3 1001 11 q 599 -17 775 -17 m 707 504 q 648 526 671 504 q 625 597 625 549 q 648 668 625 646 q 707 690 671 690 l 735 690 q 794 668 771 690 q 817 597 817 646 q 794 526 817 549 q 735 504 771 504 l 707 504 m 488 504 q 428 526 451 504 q 406 597 406 549 q 428 668 406 646 q 488 690 451 690 l 515 690 q 574 668 551 690 q 597 597 597 646 q 574 526 597 549 q 515 504 551 504 l 488 504 m 597 707 q 538 729 561 707 q 515 800 515 751 q 538 871 515 849 q 597 893 561 893 l 625 893 q 684 871 661 893 q 707 800 707 849 q 684 729 707 751 q 625 707 661 707 l 597 707 z "},"ٹ":{"ha":1226,"x_min":56,"x_max":1185,"o":"m 599 -17 q 344 0 447 -17 q 176 55 240 17 q 84 154 113 93 q 56 306 56 215 q 70 428 56 361 q 111 560 85 494 l 244 521 q 208 430 221 474 q 194 351 194 386 q 211 284 194 311 q 265 240 228 257 q 364 216 303 224 q 515 208 425 208 l 710 208 q 864 213 801 208 q 965 227 926 217 q 1020 253 1003 238 q 1038 293 1038 269 q 1034 347 1038 314 q 1021 432 1031 379 l 997 561 l 1149 586 l 1169 457 q 1181 374 1176 419 q 1185 293 1185 328 q 1159 140 1185 200 q 1067 46 1133 81 q 888 -3 1001 11 q 599 -17 775 -17 m 413 615 l 467 615 l 476 631 l 476 901 l 574 901 l 574 764 q 668 790 611 790 q 774 747 739 790 q 808 644 808 704 q 772 538 808 571 q 658 504 736 504 l 413 504 l 413 615 m 540 619 l 542 615 l 658 615 q 736 644 736 615 q 721 669 736 660 q 678 678 706 678 l 646 678 q 582 668 601 678 q 547 632 563 658 l 540 619 z "},"ٺ":{"ha":1226,"x_min":56,"x_max":1185,"o":"m 599 -17 q 344 0 447 -17 q 176 55 240 17 q 84 154 113 93 q 56 306 56 215 q 70 428 56 361 q 111 560 85 494 l 244 521 q 208 430 221 474 q 194 351 194 386 q 211 284 194 311 q 265 240 228 257 q 364 216 303 224 q 515 208 425 208 l 710 208 q 864 213 801 208 q 965 227 926 217 q 1020 253 1003 238 q 1038 293 1038 269 q 1034 347 1038 314 q 1021 432 1031 379 l 997 561 l 1149 586 l 1169 457 q 1181 374 1176 419 q 1185 293 1185 328 q 1159 140 1185 200 q 1067 46 1133 81 q 888 -3 1001 11 q 599 -17 775 -17 m 597 504 q 538 526 561 504 q 515 597 515 549 q 538 668 515 646 q 597 690 561 690 l 625 690 q 684 668 661 690 q 707 597 707 646 q 684 526 707 549 q 625 504 661 504 l 597 504 m 597 718 q 538 740 561 718 q 515 811 515 763 q 538 882 515 860 q 597 904 561 904 l 625 904 q 684 882 661 904 q 707 811 707 860 q 684 740 707 763 q 625 718 661 718 l 597 718 z "},"ٿ":{"ha":1226,"x_min":56,"x_max":1185,"o":"m 599 -17 q 344 0 447 -17 q 176 55 240 17 q 84 154 113 93 q 56 306 56 215 q 70 428 56 361 q 111 560 85 494 l 244 521 q 208 430 221 474 q 194 351 194 386 q 211 284 194 311 q 265 240 228 257 q 364 216 303 224 q 515 208 425 208 l 710 208 q 864 213 801 208 q 965 227 926 217 q 1020 253 1003 238 q 1038 293 1038 269 q 1034 347 1038 314 q 1021 432 1031 379 l 997 561 l 1149 586 l 1169 457 q 1181 374 1176 419 q 1185 293 1185 328 q 1159 140 1185 200 q 1067 46 1133 81 q 888 -3 1001 11 q 599 -17 775 -17 m 707 504 q 648 526 671 504 q 625 597 625 549 q 648 668 625 646 q 707 690 671 690 l 735 690 q 794 668 771 690 q 817 597 817 646 q 794 526 817 549 q 735 504 771 504 l 707 504 m 707 718 q 648 740 671 718 q 625 811 625 763 q 648 882 625 860 q 707 904 671 904 l 735 904 q 794 882 771 904 q 817 811 817 860 q 794 740 817 763 q 735 718 771 718 l 707 718 m 488 504 q 428 526 451 504 q 406 597 406 549 q 428 668 406 646 q 488 690 451 690 l 515 690 q 574 668 551 690 q 597 597 597 646 q 574 526 597 549 q 515 504 551 504 l 488 504 m 488 718 q 428 740 451 718 q 406 811 406 763 q 428 882 406 860 q 488 904 451 904 l 515 904 q 574 882 551 904 q 597 811 597 860 q 574 740 597 763 q 515 718 551 718 l 488 718 z "},"ݐ":{"ha":1226,"x_min":56,"x_max":1185,"o":"m 599 -17 q 344 0 447 -17 q 176 55 240 17 q 84 154 113 93 q 56 306 56 215 q 70 428 56 361 q 111 560 85 494 l 244 521 q 208 430 221 474 q 194 351 194 386 q 211 284 194 311 q 265 240 228 257 q 364 216 303 224 q 515 208 425 208 l 710 208 q 864 213 801 208 q 965 227 926 217 q 1020 253 1003 238 q 1038 293 1038 269 q 1034 347 1038 314 q 1021 432 1031 379 l 997 561 l 1149 586 l 1169 457 q 1181 374 1176 419 q 1185 293 1185 328 q 1159 140 1185 200 q 1067 46 1133 81 q 888 -3 1001 11 q 599 -17 775 -17 m 817 -297 q 758 -275 781 -297 q 735 -204 735 -253 q 758 -133 735 -156 q 817 -111 781 -111 l 844 -111 q 903 -133 881 -111 q 926 -204 926 -156 q 903 -275 926 -253 q 844 -297 881 -297 l 817 -297 m 597 -297 q 538 -275 561 -297 q 515 -204 515 -253 q 538 -133 515 -156 q 597 -111 561 -111 l 625 -111 q 684 -133 661 -111 q 707 -204 707 -156 q 684 -275 707 -253 q 625 -297 661 -297 l 597 -297 m 378 -297 q 319 -275 342 -297 q 296 -204 296 -253 q 319 -133 296 -156 q 378 -111 342 -111 l 406 -111 q 465 -133 442 -111 q 488 -204 488 -156 q 465 -275 488 -253 q 406 -297 442 -297 l 378 -297 z "},"ݑ":{"ha":1226,"x_min":56,"x_max":1185,"o":"m 599 -17 q 344 0 447 -17 q 176 55 240 17 q 84 154 113 93 q 56 306 56 215 q 70 428 56 361 q 111 560 85 494 l 244 521 q 208 430 221 474 q 194 351 194 386 q 211 284 194 311 q 265 240 228 257 q 364 216 303 224 q 515 208 425 208 l 710 208 q 864 213 801 208 q 965 227 926 217 q 1020 253 1003 238 q 1038 293 1038 269 q 1034 347 1038 314 q 1021 432 1031 379 l 997 561 l 1149 586 l 1169 457 q 1181 374 1176 419 q 1185 293 1185 328 q 1159 140 1185 200 q 1067 46 1133 81 q 888 -3 1001 11 q 599 -17 775 -17 m 597 -297 q 538 -275 561 -297 q 515 -204 515 -253 q 538 -133 515 -156 q 597 -111 561 -111 l 625 -111 q 684 -133 661 -111 q 707 -204 707 -156 q 684 -275 707 -253 q 625 -297 661 -297 l 597 -297 m 707 504 q 648 526 671 504 q 625 597 625 549 q 648 668 625 646 q 707 690 671 690 l 735 690 q 794 668 771 690 q 817 597 817 646 q 794 526 817 549 q 735 504 771 504 l 707 504 m 488 504 q 428 526 451 504 q 406 597 406 549 q 428 668 406 646 q 488 690 451 690 l 515 690 q 574 668 551 690 q 597 597 597 646 q 574 526 597 549 q 515 504 551 504 l 488 504 m 597 707 q 538 729 561 707 q 515 800 515 751 q 538 871 515 849 q 597 893 561 893 l 625 893 q 684 871 661 893 q 707 800 707 849 q 684 729 707 751 q 625 707 661 707 l 597 707 z "},"ݒ":{"ha":1226,"x_min":56,"x_max":1185,"o":"m 599 -17 q 344 0 447 -17 q 176 55 240 17 q 84 154 113 93 q 56 306 56 215 q 70 428 56 361 q 111 560 85 494 l 244 521 q 208 430 221 474 q 194 351 194 386 q 211 284 194 311 q 265 240 228 257 q 364 216 303 224 q 515 208 425 208 l 710 208 q 864 213 801 208 q 965 227 926 217 q 1020 253 1003 238 q 1038 293 1038 269 q 1034 347 1038 314 q 1021 432 1031 379 l 997 561 l 1149 586 l 1169 457 q 1181 374 1176 419 q 1185 293 1185 328 q 1159 140 1185 200 q 1067 46 1133 81 q 888 -3 1001 11 q 599 -17 775 -17 m 707 -500 q 648 -478 671 -500 q 625 -407 625 -456 q 648 -336 625 -358 q 707 -314 671 -314 l 735 -314 q 794 -336 771 -314 q 817 -407 817 -358 q 794 -478 817 -456 q 735 -500 771 -500 l 707 -500 m 488 -500 q 428 -478 451 -500 q 406 -407 406 -456 q 428 -336 406 -358 q 488 -314 451 -314 l 515 -314 q 574 -336 551 -314 q 597 -407 597 -358 q 574 -478 597 -456 q 515 -500 551 -500 l 488 -500 m 597 -297 q 538 -275 561 -297 q 515 -204 515 -253 q 538 -133 515 -156 q 597 -111 561 -111 l 625 -111 q 684 -133 661 -111 q 707 -204 707 -156 q 684 -275 707 -253 q 625 -297 661 -297 l 597 -297 z "},"ݓ":{"ha":1226,"x_min":56,"x_max":1185,"o":"m 599 -17 q 344 0 447 -17 q 176 55 240 17 q 84 154 113 93 q 56 306 56 215 q 70 428 56 361 q 111 560 85 494 l 244 521 q 208 430 221 474 q 194 351 194 386 q 211 284 194 311 q 265 240 228 257 q 364 216 303 224 q 515 208 425 208 l 710 208 q 864 213 801 208 q 965 227 926 217 q 1020 253 1003 238 q 1038 293 1038 269 q 1034 347 1038 314 q 1021 432 1031 379 l 997 561 l 1149 586 l 1169 457 q 1181 374 1176 419 q 1185 293 1185 328 q 1159 140 1185 200 q 1067 46 1133 81 q 888 -3 1001 11 q 599 -17 775 -17 m 707 -500 q 648 -478 671 -500 q 625 -407 625 -456 q 648 -336 625 -358 q 707 -314 671 -314 l 735 -314 q 794 -336 771 -314 q 817 -407 817 -358 q 794 -478 817 -456 q 735 -500 771 -500 l 707 -500 m 488 -500 q 428 -478 451 -500 q 406 -407 406 -456 q 428 -336 406 -358 q 488 -314 451 -314 l 515 -314 q 574 -336 551 -314 q 597 -407 597 -358 q 574 -478 597 -456 q 515 -500 551 -500 l 488 -500 m 597 -297 q 538 -275 561 -297 q 515 -204 515 -253 q 538 -133 515 -156 q 597 -111 561 -111 l 625 -111 q 684 -133 661 -111 q 707 -204 707 -156 q 684 -275 707 -253 q 625 -297 661 -297 l 597 -297 m 707 504 q 648 526 671 504 q 625 597 625 549 q 648 668 625 646 q 707 690 671 690 l 735 690 q 794 668 771 690 q 817 597 817 646 q 794 526 817 549 q 735 504 771 504 l 707 504 m 488 504 q 428 526 451 504 q 406 597 406 549 q 428 668 406 646 q 488 690 451 690 l 515 690 q 574 668 551 690 q 597 597 597 646 q 574 526 597 549 q 515 504 551 504 l 488 504 z "},"ݔ":{"ha":1226,"x_min":56,"x_max":1185,"o":"m 599 -17 q 344 0 447 -17 q 176 55 240 17 q 84 154 113 93 q 56 306 56 215 q 70 428 56 361 q 111 560 85 494 l 244 521 q 208 430 221 474 q 194 351 194 386 q 211 284 194 311 q 265 240 228 257 q 364 216 303 224 q 515 208 425 208 l 710 208 q 864 213 801 208 q 965 227 926 217 q 1020 253 1003 238 q 1038 293 1038 269 q 1034 347 1038 314 q 1021 432 1031 379 l 997 561 l 1149 586 l 1169 457 q 1181 374 1176 419 q 1185 293 1185 328 q 1159 140 1185 200 q 1067 46 1133 81 q 888 -3 1001 11 q 599 -17 775 -17 m 707 -297 q 648 -275 671 -297 q 625 -204 625 -253 q 648 -133 625 -156 q 707 -111 671 -111 l 735 -111 q 794 -133 771 -111 q 817 -204 817 -156 q 794 -275 817 -253 q 735 -297 771 -297 l 707 -297 m 488 -297 q 428 -275 451 -297 q 406 -204 406 -253 q 428 -133 406 -156 q 488 -111 451 -111 l 515 -111 q 574 -133 551 -111 q 597 -204 597 -156 q 574 -275 597 -253 q 515 -297 551 -297 l 488 -297 m 597 504 q 538 526 561 504 q 515 597 515 549 q 538 668 515 646 q 597 690 561 690 l 625 690 q 684 668 661 690 q 707 597 707 646 q 684 526 707 549 q 625 504 661 504 l 597 504 z "},"ݕ":{"ha":1226,"x_min":56,"x_max":1185,"o":"m 599 -17 q 344 0 447 -17 q 176 55 240 17 q 84 154 113 93 q 56 306 56 215 q 70 428 56 361 q 111 560 85 494 l 244 521 q 208 430 221 474 q 194 351 194 386 q 211 284 194 311 q 265 240 228 257 q 364 216 303 224 q 515 208 425 208 l 710 208 q 864 213 801 208 q 965 227 926 217 q 1020 253 1003 238 q 1038 293 1038 269 q 1034 347 1038 314 q 1021 432 1031 379 l 997 561 l 1149 586 l 1169 457 q 1181 374 1176 419 q 1185 293 1185 328 q 1159 140 1185 200 q 1067 46 1133 81 q 888 -3 1001 11 q 599 -17 775 -17 m 804 -424 l 672 -424 l 606 -231 l 603 -231 l 535 -424 l 418 -424 l 539 -112 l 686 -112 l 804 -424 z "},"ݖ":{"ha":1226,"x_min":56,"x_max":1185,"o":"m 599 -17 q 344 0 447 -17 q 176 55 240 17 q 84 154 113 93 q 56 306 56 215 q 70 428 56 361 q 111 560 85 494 l 244 521 q 208 430 221 474 q 194 351 194 386 q 211 284 194 311 q 265 240 228 257 q 364 216 303 224 q 515 208 425 208 l 710 208 q 864 213 801 208 q 965 227 926 217 q 1020 253 1003 238 q 1038 293 1038 269 q 1034 347 1038 314 q 1021 432 1031 379 l 997 561 l 1149 586 l 1169 457 q 1181 374 1176 419 q 1185 293 1185 328 q 1159 140 1185 200 q 1067 46 1133 81 q 888 -3 1001 11 q 599 -17 775 -17 m 418 815 l 550 815 l 617 622 l 619 622 l 688 815 l 804 815 l 683 504 l 536 504 l 418 815 z "},"ࢠ":{"ha":1226,"x_min":56,"x_max":1185,"o":"m 599 -17 q 344 0 447 -17 q 176 55 240 17 q 84 154 113 93 q 56 306 56 215 q 70 428 56 361 q 111 560 85 494 l 244 521 q 208 430 221 474 q 194 351 194 386 q 211 284 194 311 q 265 240 228 257 q 364 216 303 224 q 515 208 425 208 l 710 208 q 864 213 801 208 q 965 227 926 217 q 1020 253 1003 238 q 1038 293 1038 269 q 1034 347 1038 314 q 1021 432 1031 379 l 997 561 l 1149 586 l 1169 457 q 1181 374 1176 419 q 1185 293 1185 328 q 1159 140 1185 200 q 1067 46 1133 81 q 888 -3 1001 11 q 599 -17 775 -17 m 418 -112 l 550 -112 l 617 -306 l 619 -306 l 688 -112 l 804 -112 l 683 -424 l 536 -424 l 418 -112 z "},"ټ":{"ha":1226,"x_min":56,"x_max":1185,"o":"m 643 -256 q 579 -243 608 -256 q 528 -208 550 -231 q 494 -154 507 -185 q 482 -87 482 -124 q 485 -49 482 -68 q 496 -14 489 -31 q 291 11 375 -8 q 155 69 207 31 q 79 165 103 107 q 56 306 56 224 q 70 428 56 361 q 111 560 85 494 l 244 521 q 208 430 221 474 q 194 351 194 386 q 211 284 194 311 q 265 240 228 257 q 364 216 303 224 q 515 208 425 208 l 710 208 q 864 213 801 208 q 965 227 926 217 q 1020 253 1003 238 q 1038 293 1038 269 q 1034 347 1038 314 q 1021 432 1031 379 l 997 561 l 1149 586 l 1169 457 q 1181 374 1176 419 q 1185 293 1185 328 q 1167 159 1185 214 q 1103 69 1149 104 q 982 15 1058 33 q 789 -11 906 -4 q 804 -87 804 -46 q 792 -154 804 -124 q 758 -208 779 -185 q 707 -243 736 -231 q 643 -256 678 -256 m 488 504 q 428 526 451 504 q 406 597 406 549 q 428 668 406 646 q 488 690 451 690 l 515 690 q 574 668 551 690 q 597 597 597 646 q 574 526 597 549 q 515 504 551 504 l 488 504 m 707 504 q 648 526 671 504 q 625 597 625 549 q 648 668 625 646 q 707 690 671 690 l 735 690 q 794 668 771 690 q 817 597 817 646 q 794 526 817 549 q 735 504 771 504 l 707 504 m 643 -158 q 699 -139 676 -158 q 721 -87 721 -119 q 699 -36 721 -56 q 643 -17 676 -17 q 588 -36 610 -17 q 565 -87 565 -56 q 588 -139 565 -119 q 643 -158 610 -158 z "},"ﮟ":{"ha":1032,"x_min":49,"x_max":1032,"o":"m 481 -333 q 158 -234 267 -333 q 49 47 49 -135 q 66 188 49 110 q 114 340 83 267 l 247 301 q 203 181 219 242 q 188 75 188 119 q 250 -60 188 -12 q 425 -108 313 -108 l 536 -108 q 710 -54 654 -108 q 765 115 765 0 q 758 197 765 147 q 742 292 751 247 l 714 421 l 864 450 l 890 322 q 900 267 896 297 q 907 208 904 238 l 1032 208 l 1032 42 l 990 0 l 904 0 q 777 -252 881 -171 q 481 -333 674 -333 z "},"ﻦ":{"ha":1032,"x_min":49,"x_max":1032,"o":"m 481 -333 q 158 -234 267 -333 q 49 47 49 -135 q 66 188 49 110 q 114 340 83 267 l 247 301 q 203 181 219 242 q 188 75 188 119 q 250 -60 188 -12 q 425 -108 313 -108 l 536 -108 q 710 -54 654 -108 q 765 115 765 0 q 758 197 765 147 q 742 292 751 247 l 714 421 l 864 450 l 890 322 q 900 267 896 297 q 907 208 904 238 l 1032 208 l 1032 42 l 990 0 l 904 0 q 777 -252 881 -171 q 481 -333 674 -333 m 467 414 q 408 436 431 414 q 385 507 385 458 q 408 578 385 556 q 467 600 431 600 l 494 600 q 553 578 531 600 q 576 507 576 556 q 553 436 576 458 q 494 414 531 414 l 467 414 z "},"ﮡ":{"ha":1032,"x_min":49,"x_max":1032,"o":"m 481 -333 q 158 -234 267 -333 q 49 47 49 -135 q 66 188 49 110 q 114 340 83 267 l 247 301 q 203 181 219 242 q 188 75 188 119 q 250 -60 188 -12 q 425 -108 313 -108 l 536 -108 q 710 -54 654 -108 q 765 115 765 0 q 758 197 765 147 q 742 292 751 247 l 714 421 l 864 450 l 890 322 q 900 267 896 297 q 907 208 904 238 l 1032 208 l 1032 42 l 990 0 l 904 0 q 777 -252 881 -171 q 481 -333 674 -333 m 282 525 l 336 525 l 346 540 l 346 811 l 443 811 l 443 674 q 538 700 481 700 q 643 657 608 700 q 678 554 678 614 q 642 447 678 481 q 528 414 606 414 l 282 414 l 282 525 m 410 529 l 411 525 l 528 525 q 606 554 606 525 q 590 578 606 569 q 547 588 575 588 l 515 588 q 451 578 471 588 q 417 542 432 568 l 410 529 z "},"ﺐ":{"ha":1342,"x_min":56,"x_max":1342,"o":"m 599 -17 q 344 0 447 -17 q 176 55 240 17 q 84 154 113 93 q 56 306 56 215 q 70 428 56 361 q 111 560 85 494 l 244 521 q 208 430 221 474 q 194 351 194 386 q 211 284 194 311 q 265 240 228 257 q 364 216 303 224 q 515 208 425 208 l 710 208 q 871 213 807 208 q 971 228 935 217 q 1022 258 1007 239 q 1036 306 1036 276 l 1036 504 l 1189 504 l 1189 306 q 1300 208 1189 208 l 1342 208 l 1342 42 l 1300 0 q 1133 45 1193 0 q 1054 188 1074 90 l 1046 188 q 1006 92 1035 131 q 924 28 976 53 q 791 -6 871 4 q 599 -17 711 -17 m 597 -297 q 538 -275 561 -297 q 515 -204 515 -253 q 538 -133 515 -156 q 597 -111 561 -111 l 625 -111 q 684 -133 661 -111 q 707 -204 707 -156 q 684 -275 707 -253 q 625 -297 661 -297 l 597 -297 z "},"ﭗ":{"ha":1342,"x_min":56,"x_max":1342,"o":"m 599 -17 q 344 0 447 -17 q 176 55 240 17 q 84 154 113 93 q 56 306 56 215 q 70 428 56 361 q 111 560 85 494 l 244 521 q 208 430 221 474 q 194 351 194 386 q 211 284 194 311 q 265 240 228 257 q 364 216 303 224 q 515 208 425 208 l 710 208 q 871 213 807 208 q 971 228 935 217 q 1022 258 1007 239 q 1036 306 1036 276 l 1036 504 l 1189 504 l 1189 306 q 1300 208 1189 208 l 1342 208 l 1342 42 l 1300 0 q 1133 45 1193 0 q 1054 188 1074 90 l 1046 188 q 1006 92 1035 131 q 924 28 976 53 q 791 -6 871 4 q 599 -17 711 -17 m 707 -297 q 648 -275 671 -297 q 625 -204 625 -253 q 648 -133 625 -156 q 707 -111 671 -111 l 735 -111 q 794 -133 771 -111 q 817 -204 817 -156 q 794 -275 817 -253 q 735 -297 771 -297 l 707 -297 m 597 -500 q 538 -478 561 -500 q 515 -407 515 -456 q 538 -336 515 -358 q 597 -314 561 -314 l 625 -314 q 684 -336 661 -314 q 707 -407 707 -358 q 684 -478 707 -456 q 625 -500 661 -500 l 597 -500 m 488 -297 q 428 -275 451 -297 q 406 -204 406 -253 q 428 -133 406 -156 q 488 -111 451 -111 l 515 -111 q 574 -133 551 -111 q 597 -204 597 -156 q 574 -275 597 -253 q 515 -297 551 -297 l 488 -297 z "},"ﭓ":{"ha":1342,"x_min":56,"x_max":1342,"o":"m 599 -17 q 344 0 447 -17 q 176 55 240 17 q 84 154 113 93 q 56 306 56 215 q 70 428 56 361 q 111 560 85 494 l 244 521 q 208 430 221 474 q 194 351 194 386 q 211 284 194 311 q 265 240 228 257 q 364 216 303 224 q 515 208 425 208 l 710 208 q 871 213 807 208 q 971 228 935 217 q 1022 258 1007 239 q 1036 306 1036 276 l 1036 504 l 1189 504 l 1189 306 q 1300 208 1189 208 l 1342 208 l 1342 42 l 1300 0 q 1133 45 1193 0 q 1054 188 1074 90 l 1046 188 q 1006 92 1035 131 q 924 28 976 53 q 791 -6 871 4 q 599 -17 711 -17 m 597 -469 q 538 -447 561 -469 q 515 -376 515 -425 q 538 -306 515 -328 q 597 -283 561 -283 l 625 -283 q 684 -306 661 -283 q 707 -376 707 -328 q 684 -447 707 -425 q 625 -469 661 -469 l 597 -469 m 597 -256 q 538 -233 561 -256 q 515 -162 515 -211 q 538 -92 515 -114 q 597 -69 561 -69 l 625 -69 q 684 -92 661 -69 q 707 -162 707 -114 q 684 -233 707 -211 q 625 -256 661 -256 l 597 -256 z "},"ﭛ":{"ha":1342,"x_min":56,"x_max":1342,"o":"m 599 -17 q 344 0 447 -17 q 176 55 240 17 q 84 154 113 93 q 56 306 56 215 q 70 428 56 361 q 111 560 85 494 l 244 521 q 208 430 221 474 q 194 351 194 386 q 211 284 194 311 q 265 240 228 257 q 364 216 303 224 q 515 208 425 208 l 710 208 q 871 213 807 208 q 971 228 935 217 q 1022 258 1007 239 q 1036 306 1036 276 l 1036 504 l 1189 504 l 1189 306 q 1300 208 1189 208 l 1342 208 l 1342 42 l 1300 0 q 1133 45 1193 0 q 1054 188 1074 90 l 1046 188 q 1006 92 1035 131 q 924 28 976 53 q 791 -6 871 4 q 599 -17 711 -17 m 707 -469 q 648 -447 671 -469 q 625 -376 625 -425 q 648 -306 625 -328 q 707 -283 671 -283 l 735 -283 q 794 -306 771 -283 q 817 -376 817 -328 q 794 -447 817 -425 q 735 -469 771 -469 l 707 -469 m 707 -256 q 648 -233 671 -256 q 625 -162 625 -211 q 648 -92 625 -114 q 707 -69 671 -69 l 735 -69 q 794 -92 771 -69 q 817 -162 817 -114 q 794 -233 817 -211 q 735 -256 771 -256 l 707 -256 m 488 -469 q 428 -447 451 -469 q 406 -376 406 -425 q 428 -306 406 -328 q 488 -283 451 -283 l 515 -283 q 574 -306 551 -283 q 597 -376 597 -328 q 574 -447 597 -425 q 515 -469 551 -469 l 488 -469 m 488 -256 q 428 -233 451 -256 q 406 -162 406 -211 q 428 -92 406 -114 q 488 -69 451 -69 l 515 -69 q 574 -92 551 -69 q 597 -162 597 -114 q 574 -233 597 -211 q 515 -256 551 -256 l 488 -256 z "},"ﺖ":{"ha":1342,"x_min":56,"x_max":1342,"o":"m 599 -17 q 344 0 447 -17 q 176 55 240 17 q 84 154 113 93 q 56 306 56 215 q 70 428 56 361 q 111 560 85 494 l 244 521 q 208 430 221 474 q 194 351 194 386 q 211 284 194 311 q 265 240 228 257 q 364 216 303 224 q 515 208 425 208 l 710 208 q 871 213 807 208 q 971 228 935 217 q 1022 258 1007 239 q 1036 306 1036 276 l 1036 504 l 1189 504 l 1189 306 q 1300 208 1189 208 l 1342 208 l 1342 42 l 1300 0 q 1133 45 1193 0 q 1054 188 1074 90 l 1046 188 q 1006 92 1035 131 q 924 28 976 53 q 791 -6 871 4 q 599 -17 711 -17 m 707 504 q 648 526 671 504 q 625 597 625 549 q 648 668 625 646 q 707 690 671 690 l 735 690 q 794 668 771 690 q 817 597 817 646 q 794 526 817 549 q 735 504 771 504 l 707 504 m 488 504 q 428 526 451 504 q 406 597 406 549 q 428 668 406 646 q 488 690 451 690 l 515 690 q 574 668 551 690 q 597 597 597 646 q 574 526 597 549 q 515 504 551 504 l 488 504 z "},"ﺚ":{"ha":1342,"x_min":56,"x_max":1342,"o":"m 599 -17 q 344 0 447 -17 q 176 55 240 17 q 84 154 113 93 q 56 306 56 215 q 70 428 56 361 q 111 560 85 494 l 244 521 q 208 430 221 474 q 194 351 194 386 q 211 284 194 311 q 265 240 228 257 q 364 216 303 224 q 515 208 425 208 l 710 208 q 871 213 807 208 q 971 228 935 217 q 1022 258 1007 239 q 1036 306 1036 276 l 1036 504 l 1189 504 l 1189 306 q 1300 208 1189 208 l 1342 208 l 1342 42 l 1300 0 q 1133 45 1193 0 q 1054 188 1074 90 l 1046 188 q 1006 92 1035 131 q 924 28 976 53 q 791 -6 871 4 q 599 -17 711 -17 m 707 504 q 648 526 671 504 q 625 597 625 549 q 648 668 625 646 q 707 690 671 690 l 735 690 q 794 668 771 690 q 817 597 817 646 q 794 526 817 549 q 735 504 771 504 l 707 504 m 488 504 q 428 526 451 504 q 406 597 406 549 q 428 668 406 646 q 488 690 451 690 l 515 690 q 574 668 551 690 q 597 597 597 646 q 574 526 597 549 q 515 504 551 504 l 488 504 m 597 707 q 538 729 561 707 q 515 800 515 751 q 538 871 515 849 q 597 893 561 893 l 625 893 q 684 871 661 893 q 707 800 707 849 q 684 729 707 751 q 625 707 661 707 l 597 707 z "},"ﭧ":{"ha":1342,"x_min":56,"x_max":1342,"o":"m 599 -17 q 344 0 447 -17 q 176 55 240 17 q 84 154 113 93 q 56 306 56 215 q 70 428 56 361 q 111 560 85 494 l 244 521 q 208 430 221 474 q 194 351 194 386 q 211 284 194 311 q 265 240 228 257 q 364 216 303 224 q 515 208 425 208 l 710 208 q 871 213 807 208 q 971 228 935 217 q 1022 258 1007 239 q 1036 306 1036 276 l 1036 504 l 1189 504 l 1189 306 q 1300 208 1189 208 l 1342 208 l 1342 42 l 1300 0 q 1133 45 1193 0 q 1054 188 1074 90 l 1046 188 q 1006 92 1035 131 q 924 28 976 53 q 791 -6 871 4 q 599 -17 711 -17 m 413 615 l 467 615 l 476 631 l 476 901 l 574 901 l 574 764 q 668 790 611 790 q 774 747 739 790 q 808 644 808 704 q 772 538 808 571 q 658 504 736 504 l 413 504 l 413 615 m 540 619 l 542 615 l 658 615 q 736 644 736 615 q 721 669 736 660 q 678 678 706 678 l 646 678 q 582 668 601 678 q 547 632 563 658 l 540 619 z "},"ﭟ":{"ha":1342,"x_min":56,"x_max":1342,"o":"m 599 -17 q 344 0 447 -17 q 176 55 240 17 q 84 154 113 93 q 56 306 56 215 q 70 428 56 361 q 111 560 85 494 l 244 521 q 208 430 221 474 q 194 351 194 386 q 211 284 194 311 q 265 240 228 257 q 364 216 303 224 q 515 208 425 208 l 710 208 q 871 213 807 208 q 971 228 935 217 q 1022 258 1007 239 q 1036 306 1036 276 l 1036 504 l 1189 504 l 1189 306 q 1300 208 1189 208 l 1342 208 l 1342 42 l 1300 0 q 1133 45 1193 0 q 1054 188 1074 90 l 1046 188 q 1006 92 1035 131 q 924 28 976 53 q 791 -6 871 4 q 599 -17 711 -17 m 597 504 q 538 526 561 504 q 515 597 515 549 q 538 668 515 646 q 597 690 561 690 l 625 690 q 684 668 661 690 q 707 597 707 646 q 684 526 707 549 q 625 504 661 504 l 597 504 m 597 718 q 538 740 561 718 q 515 811 515 763 q 538 882 515 860 q 597 904 561 904 l 625 904 q 684 882 661 904 q 707 811 707 860 q 684 740 707 763 q 625 718 661 718 l 597 718 z "},"ﭣ":{"ha":1342,"x_min":56,"x_max":1342,"o":"m 599 -17 q 344 0 447 -17 q 176 55 240 17 q 84 154 113 93 q 56 306 56 215 q 70 428 56 361 q 111 560 85 494 l 244 521 q 208 430 221 474 q 194 351 194 386 q 211 284 194 311 q 265 240 228 257 q 364 216 303 224 q 515 208 425 208 l 710 208 q 871 213 807 208 q 971 228 935 217 q 1022 258 1007 239 q 1036 306 1036 276 l 1036 504 l 1189 504 l 1189 306 q 1300 208 1189 208 l 1342 208 l 1342 42 l 1300 0 q 1133 45 1193 0 q 1054 188 1074 90 l 1046 188 q 1006 92 1035 131 q 924 28 976 53 q 791 -6 871 4 q 599 -17 711 -17 m 707 504 q 648 526 671 504 q 625 597 625 549 q 648 668 625 646 q 707 690 671 690 l 735 690 q 794 668 771 690 q 817 597 817 646 q 794 526 817 549 q 735 504 771 504 l 707 504 m 707 718 q 648 740 671 718 q 625 811 625 763 q 648 882 625 860 q 707 904 671 904 l 735 904 q 794 882 771 904 q 817 811 817 860 q 794 740 817 763 q 735 718 771 718 l 707 718 m 488 504 q 428 526 451 504 q 406 597 406 549 q 428 668 406 646 q 488 690 451 690 l 515 690 q 574 668 551 690 q 597 597 597 646 q 574 526 597 549 q 515 504 551 504 l 488 504 m 488 718 q 428 740 451 718 q 406 811 406 763 q 428 882 406 860 q 488 904 451 904 l 515 904 q 574 882 551 904 q 597 811 597 860 q 574 740 597 763 q 515 718 551 718 l 488 718 z "},"ح":{"ha":883,"x_min":32,"x_max":925,"o":"m 468 -422 q 285 -396 365 -422 q 148 -319 204 -369 q 62 -198 92 -269 q 32 -35 32 -126 q 133 212 32 113 q 451 379 235 311 l 728 465 l 728 474 l 235 485 l 235 386 l 75 386 l 75 490 q 128 645 75 596 q 304 688 182 694 l 847 654 l 847 339 l 538 256 q 374 206 440 229 q 265 153 307 182 q 205 88 224 125 q 186 1 186 51 l 186 -15 q 201 -101 186 -64 q 250 -162 215 -137 q 341 -201 285 -187 q 481 -214 397 -214 q 665 -178 576 -214 q 821 -78 754 -143 l 925 -242 q 720 -374 840 -326 q 468 -422 600 -422 z "},"ﺡ":{"ha":883,"x_min":32,"x_max":925,"o":"m 468 -422 q 285 -396 365 -422 q 148 -319 204 -369 q 62 -198 92 -269 q 32 -35 32 -126 q 133 212 32 113 q 451 379 235 311 l 728 465 l 728 474 l 235 485 l 235 386 l 75 386 l 75 490 q 128 645 75 596 q 304 688 182 694 l 847 654 l 847 339 l 538 256 q 374 206 440 229 q 265 153 307 182 q 205 88 224 125 q 186 1 186 51 l 186 -15 q 201 -101 186 -64 q 250 -162 215 -137 q 341 -201 285 -187 q 481 -214 397 -214 q 665 -178 576 -214 q 821 -78 754 -143 l 925 -242 q 720 -374 840 -326 q 468 -422 600 -422 z "},"ج":{"ha":883,"x_min":32,"x_max":925,"o":"m 468 -422 q 285 -396 365 -422 q 148 -319 204 -369 q 62 -198 92 -269 q 32 -35 32 -126 q 133 212 32 113 q 451 379 235 311 l 728 465 l 728 474 l 235 485 l 235 386 l 75 386 l 75 490 q 128 645 75 596 q 304 688 182 694 l 847 654 l 847 339 l 538 256 q 374 206 440 229 q 265 153 307 182 q 205 88 224 125 q 186 1 186 51 l 186 -15 q 201 -101 186 -64 q 250 -162 215 -137 q 341 -201 285 -187 q 481 -214 397 -214 q 665 -178 576 -214 q 821 -78 754 -143 l 925 -242 q 720 -374 840 -326 q 468 -422 600 -422 m 450 -79 q 391 -57 414 -79 q 368 14 368 -35 q 391 85 368 63 q 450 107 414 107 l 478 107 q 537 85 514 107 q 560 14 560 63 q 537 -57 560 -35 q 478 -79 514 -79 l 450 -79 z "},"ﺝ":{"ha":883,"x_min":32,"x_max":925,"o":"m 468 -422 q 285 -396 365 -422 q 148 -319 204 -369 q 62 -198 92 -269 q 32 -35 32 -126 q 133 212 32 113 q 451 379 235 311 l 728 465 l 728 474 l 235 485 l 235 386 l 75 386 l 75 490 q 128 645 75 596 q 304 688 182 694 l 847 654 l 847 339 l 538 256 q 374 206 440 229 q 265 153 307 182 q 205 88 224 125 q 186 1 186 51 l 186 -15 q 201 -101 186 -64 q 250 -162 215 -137 q 341 -201 285 -187 q 481 -214 397 -214 q 665 -178 576 -214 q 821 -78 754 -143 l 925 -242 q 720 -374 840 -326 q 468 -422 600 -422 m 450 -79 q 391 -57 414 -79 q 368 14 368 -35 q 391 85 368 63 q 450 107 414 107 l 478 107 q 537 85 514 107 q 560 14 560 63 q 537 -57 560 -35 q 478 -79 514 -79 l 450 -79 z "}}}
